<svg version="1.1" id="Layer_1" xmlns="http://www.w3.org/2000/svg" xmlns:xlink="http://www.w3.org/1999/xlink" x="0px" y="0px"
	 width="100%" viewBox="0 0 500 500" enable-background="new 0 0 500 500" xml:space="preserve">
<path fill="#000000" opacity="1.000000" stroke="none" 
	d="
M274.000000,501.000000 
	C182.666687,501.000000 91.833374,501.000000 1.000049,501.000000 
	C1.000032,334.333405 1.000032,167.666794 1.000016,1.000138 
	C167.666565,1.000092 334.333130,1.000092 500.999756,1.000046 
	C500.999847,167.666519 500.999847,334.333038 500.999939,500.999786 
	C425.500000,501.000000 350.000000,501.000000 274.000000,501.000000 
M116.034340,261.499939 
	C116.076279,280.151917 115.668365,298.819000 116.294426,317.451355 
	C116.851990,334.045288 123.851768,348.369690 135.699249,359.814636 
	C148.471512,372.152954 164.460861,376.893311 182.012344,376.890808 
	C233.166260,376.883514 284.320221,376.934235 335.473969,376.844543 
	C339.535767,376.837433 343.673981,376.269562 347.643250,375.372070 
	C363.741638,371.732086 375.656860,361.995850 384.876282,348.756165 
	C392.807312,337.366730 395.003387,324.327118 394.984924,310.739746 
	C394.915588,259.747620 395.082794,208.753860 394.687958,157.764404 
	C394.587646,144.811432 391.419312,132.271057 383.438904,121.521912 
	C370.668854,104.321320 354.372498,94.220955 332.115417,94.938881 
	C320.556946,95.311707 308.958252,94.321983 297.374725,94.117218 
	C294.634583,94.068779 291.797333,94.385063 289.154663,95.093056 
	C284.679718,96.291924 283.202698,101.113831 286.819183,103.746643 
	C289.498474,105.697182 293.383209,106.727280 296.772156,106.831795 
	C307.573761,107.164879 318.395721,106.761192 329.207520,106.870377 
	C334.942261,106.928284 340.898193,106.572609 346.355865,107.965096 
	C356.751862,110.617561 364.632935,117.082748 371.437347,125.615257 
	C378.346649,134.279266 382.508789,143.786301 382.851501,154.462250 
	C383.524597,175.430298 383.343872,196.429077 383.330353,217.415039 
	C383.309113,250.382278 383.179108,283.349701 382.961395,316.316162 
	C382.936737,320.047272 382.352692,323.842834 381.505951,327.487244 
	C379.201324,337.406586 373.656311,345.183075 366.419678,352.427582 
	C358.404327,360.451630 349.101532,365.749207 338.281219,365.840363 
	C283.469086,366.302216 228.649368,366.242645 173.836212,365.837799 
	C164.701920,365.770355 156.357208,361.768799 148.818161,355.831696 
	C141.483185,350.055298 136.517960,342.885498 133.137589,334.603973 
	C130.760010,328.779144 128.850357,322.513947 128.204803,316.292572 
	C127.332268,307.883484 127.808640,299.327759 127.816986,290.835052 
	C127.859909,247.179321 127.866989,203.523346 128.042297,159.868073 
	C128.105194,144.203827 134.262848,130.736893 145.099915,119.785446 
	C153.844818,110.948235 164.551025,106.204002 177.602997,106.776352 
	C191.973312,107.406525 206.392593,106.920082 220.213074,106.920082 
	C224.380066,97.384567 222.851471,95.067909 213.788391,95.064301 
	C201.790039,95.059509 189.788681,94.921379 177.794830,95.156876 
	C173.091431,95.249222 168.283646,95.712074 163.733673,96.848259 
	C150.879181,100.058167 140.030014,106.676758 131.584732,117.054237 
	C122.324600,128.432983 116.428780,141.222321 116.316124,156.042374 
	C116.051460,190.860229 116.106827,225.680542 116.034340,261.499939 
M164.961395,177.204285 
	C163.738693,185.113663 162.329361,192.999878 161.343735,200.938690 
	C160.273987,209.554993 159.762634,218.240280 158.711166,226.859283 
	C157.285187,238.548248 155.520187,250.195465 154.010696,261.874817 
	C153.042847,269.363434 152.184448,276.868805 151.435272,284.382477 
	C150.231323,296.457336 149.150070,308.544525 148.034943,320.628143 
	C147.697098,324.289001 149.840317,325.924927 153.084244,325.925018 
	C162.396255,325.925232 171.721725,325.918579 181.008209,325.357239 
	C182.736847,325.252747 185.575577,322.692871 185.754715,321.034271 
	C187.336716,306.386627 188.442993,291.687317 189.670288,277.001678 
	C190.452576,267.640930 191.111343,258.269012 191.985199,248.916992 
	C193.592392,231.716721 195.342957,214.529877 196.971786,197.331573 
	C197.299896,193.867249 196.623947,191.176346 192.157761,190.950226 
	C187.729431,190.726028 186.502960,192.887039 186.169785,196.828506 
	C184.573257,215.714752 182.827026,234.588516 181.086716,253.462357 
	C179.506653,270.598328 177.737762,287.717957 176.303329,304.865814 
	C175.539322,313.999084 175.779495,314.019745 166.539825,314.029541 
	C164.063385,314.032166 161.586945,314.029938 159.131927,314.029938 
	C159.391464,311.921631 159.605209,310.186707 159.818604,308.451721 
	C160.816650,300.337402 161.847961,292.227051 162.804688,284.107849 
	C164.195099,272.308472 165.570648,260.507019 166.876938,248.698090 
	C167.684753,241.395370 168.191254,234.056702 169.116821,226.770218 
	C170.966858,212.205811 172.963348,197.659393 174.996078,183.119064 
	C176.104355,175.191452 178.252136,168.497498 186.920242,164.711578 
	C198.184555,159.791718 198.544968,157.481567 193.819321,148.516388 
	C193.750702,148.386200 193.552322,148.324417 193.190277,148.078262 
	C192.749329,148.192261 192.037567,148.198776 191.544708,148.530533 
	C185.002655,152.933853 178.489182,157.379654 171.973083,161.821442 
	C166.854782,165.310425 164.924774,170.338379 164.961395,177.204285 
M349.836639,203.573929 
	C348.579498,195.503967 347.670929,187.358276 345.940125,179.391220 
	C344.824341,174.255203 343.779510,168.167542 340.441864,164.654648 
	C334.381958,158.276596 326.636200,153.500290 319.398621,147.904343 
	C314.012634,158.392609 314.033417,158.524307 322.025269,163.509094 
	C322.691681,163.924774 323.636047,163.910416 324.275757,164.350800 
	C329.022461,167.618347 334.113342,170.650970 334.984650,177.141785 
	C335.769897,182.991516 336.398407,188.862625 337.214111,194.707825 
	C338.752899,205.734604 340.429047,216.742294 341.950043,227.771439 
	C343.440308,238.577682 344.862274,249.394012 346.214813,260.218353 
	C347.513611,270.612823 348.725250,281.018616 349.898712,291.428070 
	C350.736938,298.863892 351.448700,306.313904 352.235840,313.941223 
	C346.518799,313.941223 341.290405,313.941223 336.245422,313.941223 
	C335.786499,311.295929 335.233429,309.056671 335.029907,306.786072 
	C333.290466,287.376953 331.681396,267.955933 329.899384,248.550797 
	C328.305939,231.199203 326.510925,213.866196 324.877808,196.518112 
	C324.494812,192.450165 322.659668,190.428497 318.418243,191.041565 
	C314.549744,191.600723 313.795013,194.088379 314.162140,197.498810 
	C314.847687,203.867538 315.486053,210.243546 315.997528,216.628281 
	C316.782990,226.433075 317.273529,236.263916 318.197693,246.054596 
	C319.696503,261.933685 321.456207,277.788055 323.084045,293.655090 
	C324.023895,302.816132 324.703247,312.013275 326.030060,321.116913 
	C326.281677,322.843384 328.970581,325.457825 330.626801,325.529175 
	C339.545715,325.913513 348.497131,325.755981 357.430145,325.517090 
	C362.529449,325.380676 364.371948,323.214050 363.859009,318.393433 
	C362.503479,305.653473 361.171082,292.908417 359.577972,280.196930 
	C357.163605,260.932648 354.511719,241.698181 352.014343,222.444092 
	C351.238831,216.465210 350.637054,210.463776 349.836639,203.573929 
M233.346725,229.975311 
	C226.697342,234.349838 218.970779,237.704895 213.644928,243.332062 
	C205.140854,252.317337 198.483551,262.817108 197.251907,275.932922 
	C196.129135,287.889435 197.192368,299.545532 202.923203,310.010437 
	C208.572357,320.326111 217.078384,328.271027 227.158005,334.693573 
	C238.498856,341.919678 250.930176,344.732330 263.586304,342.128265 
	C289.942657,336.705231 307.908875,321.351196 313.970978,294.193115 
	C316.163971,284.368652 314.968781,274.571198 312.143372,264.990021 
	C311.495026,262.791412 310.482025,260.003967 307.397827,261.597992 
	C304.832123,262.923981 300.742096,263.228119 302.169800,268.343384 
	C303.593414,273.444122 305.062408,278.847992 304.816071,284.038513 
	C304.137482,298.335419 299.133453,310.856293 287.593933,320.248291 
	C277.560425,328.414520 266.561218,333.472839 253.326935,333.051392 
	C246.207474,332.824646 239.967178,330.543518 233.710571,327.223877 
	C216.731033,318.214752 205.763428,300.907715 206.581467,282.083008 
	C207.409576,263.026794 218.122665,249.938583 233.817123,240.400589 
	C242.135910,235.345001 251.344421,234.383362 260.872711,234.876938 
	C268.649475,235.279785 275.432922,238.042557 281.444183,242.829376 
	C283.198120,244.226059 284.725281,246.704468 286.900269,243.634384 
	C288.775482,240.987457 292.470612,238.314667 288.005127,234.864899 
	C273.611450,223.745163 249.244659,221.536453 233.346725,229.975311 
M237.533676,125.063454 
	C234.012222,128.399750 230.338959,131.594833 227.041428,135.139450 
	C225.655563,136.629150 223.955322,139.116989 224.325241,140.700958 
	C225.327744,144.993637 227.362122,149.045319 229.084610,153.440872 
	C236.780716,149.161682 243.645111,145.362442 250.491440,141.530914 
	C253.933014,139.604843 256.909576,139.243149 260.706146,141.640732 
	C267.305084,145.808044 274.464294,149.088150 281.787201,152.950470 
	C283.200287,149.455765 284.560547,146.142731 285.880493,142.813690 
	C287.308014,139.213242 286.816620,136.664520 282.718658,134.960251 
	C280.686554,134.115128 279.150726,131.872711 277.618134,130.068924 
	C273.005859,124.640350 268.636902,118.940796 259.862640,117.890053 
	C260.863770,115.563133 261.132294,113.172958 262.458405,112.138504 
	C272.300323,104.461052 272.151367,92.468292 261.750610,85.500717 
	C256.094635,81.711716 250.272110,83.066422 244.477844,85.561104 
	C238.749786,88.027283 237.623856,93.371101 236.345139,98.494110 
	C236.104004,99.460251 237.510208,101.270020 238.609390,102.060303 
	C242.507980,104.863274 245.505829,103.296967 248.836899,97.816879 
	C249.764542,96.290779 252.120041,95.093254 253.966888,94.848221 
	C255.274109,94.674782 258.057587,96.392197 258.035004,97.205864 
	C257.973206,99.428757 257.426147,102.742775 255.909744,103.622543 
	C250.398880,106.819733 249.685806,111.373451 250.688553,115.567398 
	C246.049271,118.891640 242.067200,121.744957 237.533676,125.063454 
M250.600037,209.139297 
	C250.418961,206.541992 251.068542,203.475281 249.912201,201.429123 
	C245.055771,192.835495 239.409973,184.689270 234.518326,176.113907 
	C227.064133,163.046234 218.464706,150.356995 218.787827,134.295853 
	C218.864441,130.488052 216.130020,130.442673 213.576721,131.623093 
	C211.360565,132.647675 209.416397,134.266388 207.366867,135.644592 
	C199.052017,141.235916 197.441681,148.594681 203.580933,156.665878 
	C207.215530,161.444260 211.963013,165.376144 216.626114,170.111115 
	C216.435638,170.319473 215.438080,171.590714 214.261902,172.666672 
	C208.496643,177.940720 208.236191,181.776184 214.360077,186.592972 
	C222.524536,193.014755 231.008102,199.053955 239.598999,204.898254 
	C242.714432,207.017654 246.533600,208.102585 250.600037,209.139297 
M274.034424,180.602524 
	C270.277344,187.084091 266.585083,193.604462 262.739136,200.032852 
	C260.383820,203.969635 259.410065,207.745789 263.180725,212.364990 
	C275.472534,203.024780 287.557434,193.879059 299.594025,184.670166 
	C302.741241,182.262329 302.844482,179.512970 300.078979,176.632050 
	C297.884369,174.345871 295.751984,171.999954 293.133026,169.187759 
	C300.290741,165.736115 305.551880,160.973938 309.180817,154.343430 
	C312.431213,148.404648 311.619690,142.680954 306.366211,138.847488 
	C303.576508,136.811829 300.631012,134.946762 298.068420,132.655136 
	C295.663971,130.504883 293.572296,130.669998 291.950287,131.722534 
	C291.950287,136.366623 293.152466,140.769730 291.735931,144.037766 
	C286.451782,156.228699 280.308716,168.047318 274.034424,180.602524 
M285.910950,269.384521 
	C286.855438,268.447327 287.855103,267.558990 288.734589,266.564301 
	C292.085907,262.774078 291.274658,257.893433 286.511169,256.865814 
	C284.287811,256.386169 280.810730,258.158325 278.983093,259.989136 
	C268.143677,270.847717 257.621155,282.022614 246.540222,293.561737 
	C241.736389,288.625671 236.989182,283.562073 232.032562,278.712524 
	C227.933899,274.702362 221.042725,275.293762 220.173508,280.003113 
	C219.680206,282.675812 221.513687,286.564117 223.540192,288.759491 
	C228.443146,294.071045 234.150131,298.631104 239.391205,303.642334 
	C245.381210,309.369659 248.057510,309.546234 253.804184,303.520355 
	C264.420227,292.388580 274.872253,281.100372 285.910950,269.384521 
M249.542282,170.721863 
	C257.501404,170.721863 265.460510,170.721863 273.314758,170.721863 
	C274.425110,168.595337 275.343292,166.650665 276.425690,164.802139 
	C278.778412,160.784180 278.206146,159.589325 273.660889,159.555847 
	C262.881134,159.476456 252.100754,159.404404 241.321075,159.445572 
	C238.435898,159.456589 235.552322,159.885574 232.760376,160.115082 
	C234.600769,168.670090 239.273880,172.378799 247.565933,170.686478 
	C247.884232,170.621536 248.228333,170.683105 249.542282,170.721863 
z"/>
<path fill="#F7F7F7" opacity="1.000000" stroke="none" 
	d="
M116.033508,260.999878 
	C116.106827,225.680542 116.051460,190.860229 116.316124,156.042374 
	C116.428780,141.222321 122.324600,128.432983 131.584732,117.054237 
	C140.030014,106.676758 150.879181,100.058167 163.733673,96.848259 
	C168.283646,95.712074 173.091431,95.249222 177.794830,95.156876 
	C189.788681,94.921379 201.790039,95.059509 213.788391,95.064301 
	C222.851471,95.067909 224.380066,97.384567 220.213074,106.920082 
	C206.392593,106.920082 191.973312,107.406525 177.602997,106.776352 
	C164.551025,106.204002 153.844818,110.948235 145.099915,119.785446 
	C134.262848,130.736893 128.105194,144.203827 128.042297,159.868073 
	C127.866989,203.523346 127.859909,247.179321 127.816986,290.835052 
	C127.808640,299.327759 127.332268,307.883484 128.204803,316.292572 
	C128.850357,322.513947 130.760010,328.779144 133.137589,334.603973 
	C136.517960,342.885498 141.483185,350.055298 148.818161,355.831696 
	C156.357208,361.768799 164.701920,365.770355 173.836212,365.837799 
	C228.649368,366.242645 283.469086,366.302216 338.281219,365.840363 
	C349.101532,365.749207 358.404327,360.451630 366.419678,352.427582 
	C373.656311,345.183075 379.201324,337.406586 381.505951,327.487244 
	C382.352692,323.842834 382.936737,320.047272 382.961395,316.316162 
	C383.179108,283.349701 383.309113,250.382278 383.330353,217.415039 
	C383.343872,196.429077 383.524597,175.430298 382.851501,154.462250 
	C382.508789,143.786301 378.346649,134.279266 371.437347,125.615257 
	C364.632935,117.082748 356.751862,110.617561 346.355865,107.965096 
	C340.898193,106.572609 334.942261,106.928284 329.207520,106.870377 
	C318.395721,106.761192 307.573761,107.164879 296.772156,106.831795 
	C293.383209,106.727280 289.498474,105.697182 286.819183,103.746643 
	C283.202698,101.113831 284.679718,96.291924 289.154663,95.093056 
	C291.797333,94.385063 294.634583,94.068779 297.374725,94.117218 
	C308.958252,94.321983 320.556946,95.311707 332.115417,94.938881 
	C354.372498,94.220955 370.668854,104.321320 383.438904,121.521912 
	C391.419312,132.271057 394.587646,144.811432 394.687958,157.764404 
	C395.082794,208.753860 394.915588,259.747620 394.984924,310.739746 
	C395.003387,324.327118 392.807312,337.366730 384.876282,348.756165 
	C375.656860,361.995850 363.741638,371.732086 347.643250,375.372070 
	C343.673981,376.269562 339.535767,376.837433 335.473969,376.844543 
	C284.320221,376.934235 233.166260,376.883514 182.012344,376.890808 
	C164.460861,376.893311 148.471512,372.152954 135.699249,359.814636 
	C123.851768,348.369690 116.851990,334.045288 116.294426,317.451355 
	C115.668365,298.819000 116.076279,280.151917 116.033508,260.999878 
z"/>
<path fill="#F5F5F4" opacity="1.000000" stroke="none" 
	d="
M164.979736,176.765533 
	C164.924774,170.338379 166.854782,165.310425 171.973083,161.821442 
	C178.489182,157.379654 185.002655,152.933853 191.544708,148.530533 
	C192.037567,148.198776 192.749329,148.192261 193.190277,148.078262 
	C193.552322,148.324417 193.750702,148.386200 193.819321,148.516388 
	C198.544968,157.481567 198.184555,159.791718 186.920242,164.711578 
	C178.252136,168.497498 176.104355,175.191452 174.996078,183.119064 
	C172.963348,197.659393 170.966858,212.205811 169.116821,226.770218 
	C168.191254,234.056702 167.684753,241.395370 166.876938,248.698090 
	C165.570648,260.507019 164.195099,272.308472 162.804688,284.107849 
	C161.847961,292.227051 160.816650,300.337402 159.818604,308.451721 
	C159.605209,310.186707 159.391464,311.921631 159.131927,314.029938 
	C161.586945,314.029938 164.063385,314.032166 166.539825,314.029541 
	C175.779495,314.019745 175.539322,313.999084 176.303329,304.865814 
	C177.737762,287.717957 179.506653,270.598328 181.086716,253.462357 
	C182.827026,234.588516 184.573257,215.714752 186.169785,196.828506 
	C186.502960,192.887039 187.729431,190.726028 192.157761,190.950226 
	C196.623947,191.176346 197.299896,193.867249 196.971786,197.331573 
	C195.342957,214.529877 193.592392,231.716721 191.985199,248.916992 
	C191.111343,258.269012 190.452576,267.640930 189.670288,277.001678 
	C188.442993,291.687317 187.336716,306.386627 185.754715,321.034271 
	C185.575577,322.692871 182.736847,325.252747 181.008209,325.357239 
	C171.721725,325.918579 162.396255,325.925232 153.084244,325.925018 
	C149.840317,325.924927 147.697098,324.289001 148.034943,320.628143 
	C149.150070,308.544525 150.231323,296.457336 151.435272,284.382477 
	C152.184448,276.868805 153.042847,269.363434 154.010696,261.874817 
	C155.520187,250.195465 157.285187,238.548248 158.711166,226.859283 
	C159.762634,218.240280 160.273987,209.554993 161.343735,200.938690 
	C162.329361,192.999878 163.738693,185.113663 164.979736,176.765533 
z"/>
<path fill="#F3F3F3" opacity="1.000000" stroke="none" 
	d="
M349.896179,204.023300 
	C350.637054,210.463776 351.238831,216.465210 352.014343,222.444092 
	C354.511719,241.698181 357.163605,260.932648 359.577972,280.196930 
	C361.171082,292.908417 362.503479,305.653473 363.859009,318.393433 
	C364.371948,323.214050 362.529449,325.380676 357.430145,325.517090 
	C348.497131,325.755981 339.545715,325.913513 330.626801,325.529175 
	C328.970581,325.457825 326.281677,322.843384 326.030060,321.116913 
	C324.703247,312.013275 324.023895,302.816132 323.084045,293.655090 
	C321.456207,277.788055 319.696503,261.933685 318.197693,246.054596 
	C317.273529,236.263916 316.782990,226.433075 315.997528,216.628281 
	C315.486053,210.243546 314.847687,203.867538 314.162140,197.498810 
	C313.795013,194.088379 314.549744,191.600723 318.418243,191.041565 
	C322.659668,190.428497 324.494812,192.450165 324.877808,196.518112 
	C326.510925,213.866196 328.305939,231.199203 329.899384,248.550797 
	C331.681396,267.955933 333.290466,287.376953 335.029907,306.786072 
	C335.233429,309.056671 335.786499,311.295929 336.245422,313.941223 
	C341.290405,313.941223 346.518799,313.941223 352.235840,313.941223 
	C351.448700,306.313904 350.736938,298.863892 349.898712,291.428070 
	C348.725250,281.018616 347.513611,270.612823 346.214813,260.218353 
	C344.862274,249.394012 343.440308,238.577682 341.950043,227.771439 
	C340.429047,216.742294 338.752899,205.734604 337.214111,194.707825 
	C336.398407,188.862625 335.769897,182.991516 334.984650,177.141785 
	C334.113342,170.650970 329.022461,167.618347 324.275757,164.350800 
	C323.636047,163.910416 322.691681,163.924774 322.025269,163.509094 
	C314.033417,158.524307 314.012634,158.392609 319.398621,147.904343 
	C326.636200,153.500290 334.381958,158.276596 340.441864,164.654648 
	C343.779510,168.167542 344.824341,174.255203 345.940125,179.391220 
	C347.670929,187.358276 348.579498,195.503967 349.896179,204.023300 
z"/>
<path fill="#F2F2F2" opacity="1.000000" stroke="none" 
	d="
M233.682526,229.782349 
	C249.244659,221.536453 273.611450,223.745163 288.005127,234.864899 
	C292.470612,238.314667 288.775482,240.987457 286.900269,243.634384 
	C284.725281,246.704468 283.198120,244.226059 281.444183,242.829376 
	C275.432922,238.042557 268.649475,235.279785 260.872711,234.876938 
	C251.344421,234.383362 242.135910,235.345001 233.817123,240.400589 
	C218.122665,249.938583 207.409576,263.026794 206.581467,282.083008 
	C205.763428,300.907715 216.731033,318.214752 233.710571,327.223877 
	C239.967178,330.543518 246.207474,332.824646 253.326935,333.051392 
	C266.561218,333.472839 277.560425,328.414520 287.593933,320.248291 
	C299.133453,310.856293 304.137482,298.335419 304.816071,284.038513 
	C305.062408,278.847992 303.593414,273.444122 302.169800,268.343384 
	C300.742096,263.228119 304.832123,262.923981 307.397827,261.597992 
	C310.482025,260.003967 311.495026,262.791412 312.143372,264.990021 
	C314.968781,274.571198 316.163971,284.368652 313.970978,294.193115 
	C307.908875,321.351196 289.942657,336.705231 263.586304,342.128265 
	C250.930176,344.732330 238.498856,341.919678 227.158005,334.693573 
	C217.078384,328.271027 208.572357,320.326111 202.923203,310.010437 
	C197.192368,299.545532 196.129135,287.889435 197.251907,275.932922 
	C198.483551,262.817108 205.140854,252.317337 213.644928,243.332062 
	C218.970779,237.704895 226.697342,234.349838 233.682526,229.782349 
z"/>
<path fill="#F6F6F6" opacity="1.000000" stroke="none" 
	d="
M237.809402,124.830864 
	C242.067200,121.744957 246.049271,118.891640 250.688553,115.567398 
	C249.685806,111.373451 250.398880,106.819733 255.909744,103.622543 
	C257.426147,102.742775 257.973206,99.428757 258.035004,97.205864 
	C258.057587,96.392197 255.274109,94.674782 253.966888,94.848221 
	C252.120041,95.093254 249.764542,96.290779 248.836899,97.816879 
	C245.505829,103.296967 242.507980,104.863274 238.609390,102.060303 
	C237.510208,101.270020 236.104004,99.460251 236.345139,98.494110 
	C237.623856,93.371101 238.749786,88.027283 244.477844,85.561104 
	C250.272110,83.066422 256.094635,81.711716 261.750610,85.500717 
	C272.151367,92.468292 272.300323,104.461052 262.458405,112.138504 
	C261.132294,113.172958 260.863770,115.563133 259.862640,117.890053 
	C268.636902,118.940796 273.005859,124.640350 277.618134,130.068924 
	C279.150726,131.872711 280.686554,134.115128 282.718658,134.960251 
	C286.816620,136.664520 287.308014,139.213242 285.880493,142.813690 
	C284.560547,146.142731 283.200287,149.455765 281.787201,152.950470 
	C274.464294,149.088150 267.305084,145.808044 260.706146,141.640732 
	C256.909576,139.243149 253.933014,139.604843 250.491440,141.530914 
	C243.645111,145.362442 236.780716,149.161682 229.084610,153.440872 
	C227.362122,149.045319 225.327744,144.993637 224.325241,140.700958 
	C223.955322,139.116989 225.655563,136.629150 227.041428,135.139450 
	C230.338959,131.594833 234.012222,128.399750 237.809402,124.830864 
z"/>
<path fill="#F6F6F6" opacity="1.000000" stroke="none" 
	d="
M250.315842,209.399414 
	C246.533600,208.102585 242.714432,207.017654 239.598999,204.898254 
	C231.008102,199.053955 222.524536,193.014755 214.360077,186.592972 
	C208.236191,181.776184 208.496643,177.940720 214.261902,172.666672 
	C215.438080,171.590714 216.435638,170.319473 216.626114,170.111115 
	C211.963013,165.376144 207.215530,161.444260 203.580933,156.665878 
	C197.441681,148.594681 199.052017,141.235916 207.366867,135.644592 
	C209.416397,134.266388 211.360565,132.647675 213.576721,131.623093 
	C216.130020,130.442673 218.864441,130.488052 218.787827,134.295853 
	C218.464706,150.356995 227.064133,163.046234 234.518326,176.113907 
	C239.409973,184.689270 245.055771,192.835495 249.912201,201.429123 
	C251.068542,203.475281 250.418961,206.541992 250.315842,209.399414 
z"/>
<path fill="#F6F6F5" opacity="1.000000" stroke="none" 
	d="
M274.261169,180.304077 
	C280.308716,168.047318 286.451782,156.228699 291.735931,144.037766 
	C293.152466,140.769730 291.950287,136.366623 291.950287,131.722534 
	C293.572296,130.669998 295.663971,130.504883 298.068420,132.655136 
	C300.631012,134.946762 303.576508,136.811829 306.366211,138.847488 
	C311.619690,142.680954 312.431213,148.404648 309.180817,154.343430 
	C305.551880,160.973938 300.290741,165.736115 293.133026,169.187759 
	C295.751984,171.999954 297.884369,174.345871 300.078979,176.632050 
	C302.844482,179.512970 302.741241,182.262329 299.594025,184.670166 
	C287.557434,193.879059 275.472534,203.024780 263.180725,212.364990 
	C259.410065,207.745789 260.383820,203.969635 262.739136,200.032852 
	C266.585083,193.604462 270.277344,187.084091 274.261169,180.304077 
z"/>
<path fill="#F4F4F4" opacity="1.000000" stroke="none" 
	d="
M285.651764,269.630920 
	C274.872253,281.100372 264.420227,292.388580 253.804184,303.520355 
	C248.057510,309.546234 245.381210,309.369659 239.391205,303.642334 
	C234.150131,298.631104 228.443146,294.071045 223.540192,288.759491 
	C221.513687,286.564117 219.680206,282.675812 220.173508,280.003113 
	C221.042725,275.293762 227.933899,274.702362 232.032562,278.712524 
	C236.989182,283.562073 241.736389,288.625671 246.540222,293.561737 
	C257.621155,282.022614 268.143677,270.847717 278.983093,259.989136 
	C280.810730,258.158325 284.287811,256.386169 286.511169,256.865814 
	C291.274658,257.893433 292.085907,262.774078 288.734589,266.564301 
	C287.855103,267.558990 286.855438,268.447327 285.651764,269.630920 
z"/>
<path fill="#EAEAEA" opacity="1.000000" stroke="none" 
	d="
M249.051346,170.703796 
	C248.228333,170.683105 247.884232,170.621536 247.565933,170.686478 
	C239.273880,172.378799 234.600769,168.670090 232.760376,160.115082 
	C235.552322,159.885574 238.435898,159.456589 241.321075,159.445572 
	C252.100754,159.404404 262.881134,159.476456 273.660889,159.555847 
	C278.206146,159.589325 278.778412,160.784180 276.425690,164.802139 
	C275.343292,166.650665 274.425110,168.595337 273.314758,170.721863 
	C265.460510,170.721863 257.501404,170.721863 249.051346,170.703796 
z"/>
</svg>