<?xml version="1.0" encoding="UTF-8"?>
<svg version="1.1" xmlns="http://www.w3.org/2000/svg" width="512" height="512">
<path d="M0 0 C3.99996428 0.68793193 6.25245009 2.94655149 9.08374023 5.71386719 C10.2952869 6.82399888 11.50754254 7.93335727 12.72045898 9.04199219 C13.62417236 9.88793945 13.62417236 9.88793945 14.54614258 10.75097656 C17.25182883 13.24898791 20.07041669 15.60385762 22.89624023 17.96386719 C23.95525431 18.85920359 25.01384693 19.75503874 26.07202148 20.65136719 C28.37529366 22.59688363 30.68668976 24.53234733 33.00170898 26.46386719 C33.60104248 26.96587646 34.20037598 27.46788574 34.81787109 27.98510742 C35.97127592 28.9509823 37.1269455 29.91416089 38.28515625 30.87426758 C42.04193551 34.02592803 43.11385812 35.42760354 44.20874023 40.27636719 C44.17779839 44.12553214 43.36552606 45.36409422 40.82202148 48.34667969 C37.48362459 51.55158194 33.92730754 54.48930364 30.33374023 57.40136719 C29.40303711 58.17480469 28.47233398 58.94824219 27.51342773 59.74511719 C25.76389939 61.18651964 24.00465482 62.6162066 22.23608398 64.03417969 C18.14169027 67.3736179 14.16048273 70.84197262 10.19140625 74.32910156 C1.98182142 81.45819757 1.98182142 81.45819757 -3.29125977 81.27636719 C-6.5466507 80.43237695 -7.74988451 80.06299948 -9.66625977 77.40136719 C-11.11773879 74.49840913 -11.03865002 72.6287494 -10.66625977 69.40136719 C-6.65771679 63.1812143 -0.41286687 58.94250786 5.33374023 54.40136719 C7.00085363 53.06859246 8.66766266 51.73543655 10.33374023 50.40136719 C-31.55658407 49.10875147 -74.84394505 62.40440864 -108.66625977 87.40136719 C-109.71555664 88.16835937 -110.76485352 88.93535156 -111.84594727 89.72558594 C-119.57670428 95.47202023 -126.71384104 101.74319453 -133.66625977 108.40136719 C-134.16512695 108.87300293 -134.66399414 109.34463867 -135.17797852 109.83056641 C-143.17344433 117.41752353 -150.16087345 125.50644617 -156.66625977 134.40136719 C-157.07553711 134.95566406 -157.48481445 135.50996094 -157.90649414 136.08105469 C-175.26885762 159.90188187 -186.71550244 187.63360722 -192.66625977 216.40136719 C-192.8299707 217.1601416 -192.99368164 217.91891602 -193.16235352 218.70068359 C-200.17949424 252.5902837 -196.4816067 289.82559685 -185.66625977 322.40136719 C-185.30661133 323.48683838 -185.30661133 323.48683838 -184.93969727 324.59423828 C-181.42022963 334.99068765 -176.80776329 344.7187932 -171.66625977 354.40136719 C-171.32224121 355.06136719 -170.97822266 355.72136719 -170.6237793 356.40136719 C-160.79147377 375.1767161 -147.27465447 392.99941845 -131.66625977 407.40136719 C-131.09133789 407.93503906 -130.51641602 408.46871094 -129.92407227 409.01855469 C-113.18581757 424.08992925 -94.47181988 435.62511021 -74.10375977 445.04980469 C-73.03125977 445.55769531 -71.95875977 446.06558594 -70.85375977 446.58886719 C-69.91918945 447.01554687 -68.98461914 447.44222656 -68.02172852 447.88183594 C-65.17850856 449.71601929 -64.07137103 451.34290835 -62.66625977 454.40136719 C-62.73014559 458.10674523 -62.87366271 460.41854683 -65.22875977 463.33886719 C-69.74488332 465.30743386 -73.791782 465.05388497 -78.35449219 463.46557617 C-81.44444221 462.11233812 -84.46199769 460.66078889 -87.47875977 459.15136719 C-88.57808838 458.61068604 -89.67741699 458.07000488 -90.81005859 457.51293945 C-111.77926664 447.00474717 -129.80189447 433.58927007 -146.66625977 417.40136719 C-147.17930664 416.91555176 -147.69235352 416.42973633 -148.22094727 415.92919922 C-156.20835988 408.34470495 -163.08668392 400.22459061 -169.66625977 391.40136719 C-170.304104 390.5626709 -170.304104 390.5626709 -170.95483398 389.70703125 C-178.21096083 380.14936474 -184.14486806 370.04579143 -189.66625977 359.40136719 C-190.25238037 358.27819092 -190.25238037 358.27819092 -190.8503418 357.13232422 C-206.903754 325.975366 -214.12291105 291.97368698 -214.04125977 257.08886719 C-214.04038361 256.16961456 -214.03950745 255.25036194 -214.03860474 254.30325317 C-213.85517671 195.70212501 -191.07857041 141.62004931 -150.66625977 99.40136719 C-150.19607422 98.9039502 -149.72588867 98.4065332 -149.24145508 97.89404297 C-141.64559682 89.8893352 -133.51105934 82.98626203 -124.66625977 76.40136719 C-124.09649414 75.97082031 -123.52672852 75.54027344 -122.93969727 75.09667969 C-113.96692305 68.33637035 -104.63307409 62.57975356 -94.66625977 57.40136719 C-93.88395996 56.9938623 -93.10166016 56.58635742 -92.2956543 56.16650391 C-71.44124044 45.4485641 -49.70467798 38.60171672 -26.66625977 34.40136719 C-25.6339624 34.2123584 -25.6339624 34.2123584 -24.58081055 34.01953125 C-12.73273011 31.94480893 -0.66191922 31.78595369 11.33374023 31.40136719 C10.48811523 30.68851563 9.64249023 29.97566406 8.77124023 29.24121094 C-1.44437093 20.62122399 -1.44437093 20.62122399 -6.41625977 16.33886719 C-7.02985352 15.81164063 -7.64344727 15.28441406 -8.27563477 14.74121094 C-10.36551705 12.72764458 -10.65575603 11.49590083 -10.97875977 8.58886719 C-10.26687046 1.32759631 -6.58483727 -0.17215261 0 0 Z " fill="#000000" transform="translate(245.666259765625,-0.4013671875)"/>
<path d="M0 0 C4.97251265 0.90389106 9.44281428 3.41734045 13.93383789 5.64697266 C15.03912842 6.189104 16.14441895 6.73123535 17.28320312 7.28979492 C33.72643423 15.5048802 48.29037557 25.39660558 62.18383789 37.39697266 C63.09391602 38.17685547 64.00399414 38.95673828 64.94165039 39.76025391 C67.40449921 41.92613542 69.80379188 44.1404196 72.18383789 46.39697266 C72.67948242 46.86538574 73.17512695 47.33379883 73.68579102 47.81640625 C82.03116934 55.75871193 89.31590167 64.15802464 96.18383789 73.39697266 C96.60761719 73.95465332 97.03139648 74.51233398 97.46801758 75.08691406 C104.72600119 84.64614152 110.66132868 94.75039403 116.18383789 105.39697266 C116.57458496 106.14575684 116.96533203 106.89454102 117.36791992 107.66601562 C133.42133213 138.82297385 140.64048917 172.82465286 140.55883789 207.70947266 C140.55796173 208.62872528 140.55708557 209.54797791 140.55618286 210.49508667 C140.37238693 269.21375404 117.66494084 323.10642332 77.18383789 365.39697266 C76.71365234 365.89438965 76.2434668 366.39180664 75.7590332 366.90429688 C68.16188855 374.91036028 60.02439636 381.80446987 51.18383789 388.39697266 C50.62470703 388.82220215 50.06557617 389.24743164 49.48950195 389.68554688 C39.93354881 396.94037295 29.83147059 402.88499648 19.18383789 408.39697266 C18.41910156 408.79303711 17.65436523 409.18910156 16.86645508 409.59716797 C-14.92497968 425.83480082 -49.35643767 432.46773998 -84.81616211 433.39697266 C-83.19178356 434.73106302 -81.56661493 436.06419139 -79.94116211 437.39697266 C-78.94600586 438.21294922 -77.95084961 439.02892578 -76.92553711 439.86962891 C-73.22913891 442.88712043 -69.47560026 445.83163846 -65.71459961 448.76806641 C-62.7843173 451.28232098 -62.82515193 452.2854989 -62.50366211 456.27197266 C-62.56275584 459.22665918 -62.75051247 460.28755659 -64.31616211 462.89697266 C-67.12847793 464.58436215 -69.34619465 465.15654938 -72.63647461 464.95166016 C-77.22064962 463.78507798 -80.35929643 460.47930237 -83.81616211 457.39697266 C-84.9642295 456.40415028 -86.11409956 455.41341013 -87.26538086 454.42431641 C-89.83561314 452.21183312 -92.39548505 449.98812766 -94.94897461 447.75634766 C-99.58151869 443.71652748 -104.29263891 439.77283935 -109.01147461 435.83447266 C-117.58207341 428.38592997 -117.58207341 428.38592997 -117.94116211 424.33447266 C-117.6638181 419.28344992 -114.5682376 416.61256873 -111.00366211 413.39697266 C-108.64639919 411.34758402 -106.24279947 409.36340923 -103.81616211 407.39697266 C-102.88545898 406.62353516 -101.95475586 405.85009766 -100.99584961 405.05322266 C-99.24632127 403.6118202 -97.48707669 402.18213325 -95.71850586 400.76416016 C-91.62411215 397.42472195 -87.6429046 393.95636722 -83.67382812 390.46923828 C-75.49575442 383.36750612 -75.49575442 383.36750612 -70.25366211 383.45947266 C-66.44977649 384.49689601 -64.9778297 385.11123792 -62.81616211 388.39697266 C-62.18325057 391.7514038 -62.0482603 394.05081281 -63.78100586 397.08837891 C-69.26113644 403.93457102 -76.81729422 409.20532417 -83.81616211 414.39697266 C-32.94678611 416.57968724 17.83205532 395.29693532 55.18383789 361.39697266 C56.26704104 360.29389721 57.34647476 359.18710767 58.42211914 358.07666016 C61.18383789 355.39697266 61.18383789 355.39697266 63.18383789 355.39697266 C63.44551758 354.80271484 63.70719727 354.20845703 63.97680664 353.59619141 C65.25731751 351.26309232 66.52761883 349.98427078 68.49633789 348.20947266 C103.15638412 314.24011576 121.9763896 261.34357699 122.65649414 213.64379883 C122.7932798 196.59390326 122.0277128 180.07452558 118.18383789 163.39697266 C117.98016602 162.47932129 117.77649414 161.56166992 117.56665039 160.61621094 C105.75243743 108.75582702 72.48629943 62.11142798 27.54956055 33.73339844 C17.80730016 27.82005214 7.83536016 22.43045667 -2.66430664 17.98144531 C-7.48387613 15.86998085 -7.48387613 15.86998085 -9.24584961 13.36181641 C-10.0874359 10.46237872 -10.24585958 8.40485497 -9.81616211 5.39697266 C-7.0071386 1.48136412 -4.88923356 -0.16751395 0 0 Z " fill="#000000" transform="translate(339.816162109375,47.60302734375)"/>
</svg>
