<?xml version="1.0" encoding="UTF-8"?>
<svg version="1.1" xmlns="http://www.w3.org/2000/svg" width="512" height="512">
<path d="M0 0 C0.75376649 0.00176947 1.50753298 0.00353894 2.28414088 0.00536203 C3.08130832 0.0033094 3.87847575 0.00125677 4.69979978 -0.00085807 C7.40557709 -0.00657062 10.11130418 -0.00506562 12.81708652 -0.0036521 C14.76271787 -0.0062333 16.70834869 -0.00924576 18.65397877 -0.0126555 C24.02747306 -0.02075752 29.40095402 -0.02251684 34.7744537 -0.02325296 C40.55914561 -0.02509797 46.34383052 -0.03264245 52.1285184 -0.03938818 C64.78941293 -0.05299451 77.4503043 -0.05899973 90.11120492 -0.06339884 C98.00948496 -0.06615725 105.90776376 -0.07039385 113.80604297 -0.07490301 C135.65344228 -0.08709844 157.50084043 -0.09743278 179.34824306 -0.1007781 C180.76180134 -0.10099974 182.17535963 -0.10122152 183.58891792 -0.10144345 C185.0059492 -0.1016641 186.42298049 -0.10188458 187.84001178 -0.1021049 C190.68296613 -0.10254746 193.52592049 -0.10299458 196.36887485 -0.10344458 C197.07376544 -0.10355397 197.77865602 -0.10366336 198.50490693 -0.10377606 C221.3701232 -0.10740813 244.23530779 -0.12333302 267.10051193 -0.14663494 C291.25798443 -0.17120893 315.4154387 -0.18494306 339.57292408 -0.18614602 C352.74829153 -0.18706459 365.92361751 -0.19286252 379.09897357 -0.21096563 C390.31573917 -0.22632278 401.53245049 -0.23151312 412.74922459 -0.22322753 C418.47709778 -0.21930547 424.20486152 -0.22032601 429.93272144 -0.23428488 C435.16959976 -0.24693105 440.40628534 -0.24590881 445.64316304 -0.23369417 C447.54425248 -0.23172094 449.44535515 -0.2348896 451.34642594 -0.24353853 C453.91796443 -0.25450302 456.48880715 -0.24723564 459.06032497 -0.235147 C459.80940913 -0.24274219 460.55849329 -0.25033739 461.33027697 -0.25816274 C466.30331957 -0.20721268 466.30331957 -0.20721268 468.71918339 1.47253585 C471.22487439 5.33771536 470.94021255 9.27106643 470.92950183 13.69157457 C470.93155447 14.47187839 470.9336071 15.25218221 470.93572193 16.0561316 C470.94141367 18.69252016 470.93993202 21.32885684 470.93851596 23.96525049 C470.94109834 25.86580978 470.94411115 27.76636852 470.94751936 29.6669265 C470.95560737 34.90662363 470.95737993 40.14630707 470.95811683 45.38600969 C470.95996423 51.03028085 470.96750992 56.67454486 470.97425205 62.31881189 C470.98784813 74.66774872 470.99386192 87.01668231 470.9982627 99.36562538 C471.00102267 107.07129565 471.00525954 114.77696465 471.00976688 122.48263407 C471.02196063 143.80339932 471.03229551 165.12416303 471.03564197 186.44493151 C471.0358636 187.82392708 471.03608539 189.20292265 471.03630732 190.58191822 C471.03652796 191.96427117 471.03674844 193.34662413 471.03696877 194.72897708 C471.03741132 197.50228445 471.03785844 200.27559181 471.03830844 203.04889917 C471.03847253 204.08032921 471.03847253 204.08032921 471.03863993 205.13259623 C471.04227189 227.4369473 471.05819723 249.7412659 471.08149881 272.04560454 C471.10608067 295.61846185 471.11980729 319.19129403 471.12100989 342.764166 C471.12192799 355.61763369 471.12771438 368.47105886 471.1458295 381.32451487 C471.16119679 392.26705764 471.1663709 403.20954475 471.1580914 414.15209626 C471.15417306 419.73846355 471.155172 425.32471862 471.16914874 430.91107225 C471.18181679 436.02091459 471.18075301 441.13055956 471.16855803 446.24040134 C471.16658867 448.09301473 471.16973609 449.94564177 471.17840239 451.79823594 C471.18940855 454.30917409 471.18206878 456.81940504 471.17001086 459.33032274 C471.18140365 460.4187387 471.18140365 460.4187387 471.1930266 461.52914286 C471.14324717 466.30409141 470.23217579 469.70268807 466.79807407 473.1367898 C465.23634662 473.22364583 463.67078062 473.24381199 462.10666782 473.23444605 C461.16242954 473.23122339 460.21819125 473.22800074 459.24533969 473.22468042 C458.25211704 473.21630152 457.25889438 473.20792261 456.23557407 473.1992898 C455.23848422 473.19477808 454.24139438 473.19026636 453.21408969 473.18561792 C450.74202558 473.17378987 448.27007889 473.15730829 445.79807407 473.1367898 C445.82127719 474.38975855 445.84448032 475.6427273 445.86838657 476.9336648 C445.88714834 478.5847005 445.9053481 480.23574265 445.92307407 481.8867898 C445.93983188 482.7117898 445.95658969 483.5367898 445.97385532 484.3867898 C445.98030063 485.18600855 445.98674594 485.9852273 445.99338657 486.8086648 C446.0038602 487.5418191 446.01433383 488.27497339 446.02512485 489.03034449 C445.76143399 491.47671519 445.09217184 493.05283244 443.79807407 495.1367898 C440.85757941 496.60703713 438.25436286 496.26501787 434.96982795 496.26821756 C434.25592536 496.2702702 433.54202276 496.27232283 432.80648676 496.27443767 C430.38997437 496.28013779 427.97351843 496.27864673 425.55700046 496.27723169 C423.816746 496.2798136 422.07649213 496.28282626 420.3362391 496.28623509 C415.53508253 496.29432873 410.73394089 496.29609597 405.9327783 496.29683256 C400.76228786 496.29867899 395.59180524 496.30622417 390.42131931 496.31296778 C379.10754859 496.32656775 367.79378142 496.33257822 356.48000389 496.33697844 C349.42144458 496.33973769 342.36288665 496.34397442 335.30432826 496.34848261 C315.77733475 496.36067677 296.25034234 496.37097623 276.7233451 496.3743577 C274.84758457 496.37468705 274.84758457 496.37468705 272.93392989 496.37502305 C271.68036441 496.37524133 270.42679894 496.37545961 269.13524663 496.3756845 C266.59487726 496.37612797 264.05450789 496.37657454 261.51413852 496.37702417 C259.62395627 496.37735632 259.62395627 496.37735632 257.69558852 496.37769517 C237.26350231 496.38164569 216.83145171 496.3991068 196.39937926 496.4223837 C175.44322006 496.44606582 154.48707876 496.45855809 133.53090596 496.45972562 C121.75618864 496.46064408 109.98151773 496.46643932 98.20681316 496.48454523 C88.18315833 496.49990383 78.15956425 496.50509182 68.13589991 496.49680713 C63.0176201 496.4928857 57.89946278 496.49390256 52.78119785 496.50786448 C48.10132906 496.52051432 43.42167592 496.51948518 38.74180781 496.50727376 C37.04330391 496.50530119 35.34478519 496.5084663 33.64630217 496.51711813 C31.3479884 496.52808983 29.0504521 496.52081033 26.75216132 496.5087266 C24.83259253 496.50962223 24.83259253 496.50962223 22.87424457 496.51053596 C19.79807407 496.1367898 19.79807407 496.1367898 17.88472962 494.74957585 C16.41143177 492.56294531 16.4549954 491.09123986 16.50510532 488.46882105 C16.51477329 487.57614527 16.52444125 486.68346949 16.53440219 485.76374292 C16.55953891 484.83497339 16.58467563 483.90620386 16.61057407 482.9492898 C16.62410922 482.0089187 16.63764438 481.06854761 16.65158969 480.09968042 C16.68694311 477.77813942 16.73628733 475.45775327 16.79807407 473.1367898 C16.1473392 473.15250025 15.49660434 473.1682107 14.82615024 473.18439722 C11.87937982 473.24673629 8.93274809 473.28577663 5.98557407 473.3242898 C4.44933383 473.36199488 4.44933383 473.36199488 2.88205844 473.40046167 C1.89914829 473.41012964 0.91623813 473.41979761 -0.09645718 473.42975855 C-1.00242642 473.445469 -1.90839566 473.46117945 -2.84181851 473.47736597 C-5.20192593 473.1367898 -5.20192593 473.1367898 -6.95851773 471.80597925 C-9.74280432 468.06826722 -9.34409768 464.01624042 -9.3333537 459.58200502 C-9.33643265 458.4115493 -9.33643265 458.4115493 -9.3395738 457.217448 C-9.34526554 454.58105944 -9.34378388 451.94472276 -9.34236783 449.30832911 C-9.34495021 447.40776982 -9.34796301 445.50721108 -9.35137123 443.60665309 C-9.35945924 438.36695597 -9.3612318 433.12727253 -9.3619687 427.8875699 C-9.3638161 422.24329875 -9.37136179 416.59903474 -9.37810391 410.9547677 C-9.39169999 398.60583087 -9.39771378 386.25689729 -9.40211457 373.90795422 C-9.40487453 366.20228395 -9.4091114 358.49661494 -9.41361874 350.79094553 C-9.4258125 329.47018028 -9.43614738 308.14941657 -9.43949383 286.82864809 C-9.43971547 285.44965252 -9.43993725 284.07065695 -9.44015919 282.69166138 C-9.44037983 281.30930842 -9.44060031 279.92695547 -9.44082063 278.54460251 C-9.44126319 275.77129515 -9.44171031 272.99798779 -9.44216031 270.22468042 C-9.4422697 269.5370604 -9.44237909 268.84944037 -9.4424918 268.14098337 C-9.44612376 245.83663229 -9.46204909 223.53231369 -9.48535067 201.22797506 C-9.50993254 177.65511775 -9.52365915 154.08228557 -9.52486175 130.5094136 C-9.52577986 117.65594591 -9.53156625 104.80252074 -9.54968137 91.94906473 C-9.56504865 81.00652196 -9.57022277 70.06403485 -9.56194326 59.12148334 C-9.55802493 53.53511605 -9.55902387 47.94886097 -9.57300061 42.36250734 C-9.58566866 37.25266501 -9.58460487 32.14302004 -9.5724099 27.03317825 C-9.57044054 25.18056486 -9.57358795 23.32793783 -9.58225426 21.47534366 C-9.59326042 18.9644055 -9.58592064 16.45417456 -9.57386273 13.94325686 C-9.58145792 13.21764622 -9.58905312 12.49203558 -9.59687847 11.74443674 C-9.51854997 4.23100065 -7.54178308 0.0335458 0 0 Z M5.79807407 15.1367898 C5.79807407 35.9267898 5.79807407 56.7167898 5.79807407 78.1367898 C51.99807407 78.1367898 98.19807407 78.1367898 145.79807407 78.1367898 C145.79807407 57.3467898 145.79807407 36.5567898 145.79807407 15.1367898 C99.59807407 15.1367898 53.39807407 15.1367898 5.79807407 15.1367898 Z M160.79807407 15.1367898 C160.79807407 40.8767898 160.79807407 66.6167898 160.79807407 93.1367898 C206.99807407 93.1367898 253.19807407 93.1367898 300.79807407 93.1367898 C300.79807407 67.3967898 300.79807407 41.6567898 300.79807407 15.1367898 C254.59807407 15.1367898 208.39807407 15.1367898 160.79807407 15.1367898 Z M315.79807407 15.1367898 C315.79807407 40.8767898 315.79807407 66.6167898 315.79807407 93.1367898 C336.25807407 93.1367898 356.71807407 93.1367898 377.79807407 93.1367898 C377.79807407 67.3967898 377.79807407 41.6567898 377.79807407 15.1367898 C357.33807407 15.1367898 336.87807407 15.1367898 315.79807407 15.1367898 Z M392.79807407 15.1367898 C392.79807407 27.0167898 392.79807407 38.8967898 392.79807407 51.1367898 C393.45807407 49.8167898 394.11807407 48.4967898 394.79807407 47.1367898 C397.19032991 43.78763161 398.96269433 41.65057685 402.79807407 40.1367898 C407.64613421 39.58045503 412.23560719 39.51831333 416.79807407 41.3242898 C420.00134185 44.22725122 421.56832227 46.30157726 422.11838657 50.69538355 C422.3036357 55.24633719 422.10869039 58.44100924 420.23557407 62.6367898 C416.76449189 66.19687408 413.60026841 67.97568803 408.55588657 68.26569605 C402.77139126 67.9443352 399.69215388 66.41077984 395.79807407 62.1367898 C394.42307407 58.8242898 394.42307407 58.8242898 393.79807407 56.1367898 C393.46807407 56.1367898 393.13807407 56.1367898 392.79807407 56.1367898 C392.79807407 68.3467898 392.79807407 80.5567898 392.79807407 93.1367898 C413.58807407 93.1367898 434.37807407 93.1367898 455.79807407 93.1367898 C455.79807407 67.3967898 455.79807407 41.6567898 455.79807407 15.1367898 C435.00807407 15.1367898 414.21807407 15.1367898 392.79807407 15.1367898 Z M5.79807407 93.1367898 C5.79807407 114.2567898 5.79807407 135.3767898 5.79807407 157.1367898 C51.99807407 157.1367898 98.19807407 157.1367898 145.79807407 157.1367898 C145.79807407 136.0167898 145.79807407 114.8967898 145.79807407 93.1367898 C99.59807407 93.1367898 53.39807407 93.1367898 5.79807407 93.1367898 Z M160.79807407 108.1367898 C160.79807407 119.3567898 160.79807407 130.5767898 160.79807407 142.1367898 C165.05004116 139.70709431 168.73303246 137.59092315 172.56760532 134.71882105 C173.39324985 134.10458277 174.21889438 133.49034449 175.06955844 132.85749292 C175.9080936 132.22778589 176.74662875 131.59807886 177.61057407 130.9492898 C179.30360261 129.68365238 180.99756655 128.41926496 182.69260532 127.15632105 C183.43357455 126.60049341 184.17454379 126.04466578 184.93796664 125.47199488 C186.79807407 124.1367898 186.79807407 124.1367898 188.79807407 123.1367898 C188.79807407 118.1867898 188.79807407 113.2367898 188.79807407 108.1367898 C179.55807407 108.1367898 170.31807407 108.1367898 160.79807407 108.1367898 Z M203.79807407 108.1367898 C202.41723131 120.91818183 202.41723131 120.91818183 206.14963657 125.3399148 C207.76998813 126.35311792 207.76998813 126.35311792 209.42307407 127.3867898 C210.28485263 127.95792505 210.28485263 127.95792505 211.16404086 128.54059839 C212.38378805 129.34783969 213.61600273 130.13651363 214.85910922 130.90729761 C217.56253751 132.62153393 220.13238872 134.50229461 222.71946079 136.38581324 C225.39273784 138.33089321 228.09562662 140.23251648 230.79807407 142.1367898 C231.33682163 141.77254908 231.87556918 141.40830835 232.43064243 141.03303003 C236.44159312 138.33792312 240.46930032 135.71883979 244.61448032 133.23444605 C246.19769335 132.22457765 247.779725 131.21285476 249.36057407 130.1992898 C250.17848422 129.73200464 250.99639438 129.26471949 251.83908969 128.78327417 C254.62726312 127.08133304 254.62726312 127.08133304 257.79807407 123.1367898 C257.79807407 118.1867898 257.79807407 113.2367898 257.79807407 108.1367898 C239.97807407 108.1367898 222.15807407 108.1367898 203.79807407 108.1367898 Z M272.79807407 108.1367898 C271.4834116 115.75849356 271.4834116 115.75849356 272.79807407 123.1367898 C276.45807275 127.75893325 281.75372004 130.75834835 286.71116 133.82184839 C289.67775914 135.69106961 292.43514575 137.77723232 295.23557407 139.8867898 C297.76976543 142.08011162 297.76976543 142.08011162 300.79807407 143.1367898 C300.79807407 131.5867898 300.79807407 120.0367898 300.79807407 108.1367898 C291.55807407 108.1367898 282.31807407 108.1367898 272.79807407 108.1367898 Z M315.79807407 108.1367898 C315.79807407 179.7467898 315.79807407 251.3567898 315.79807407 325.1367898 C361.99807407 325.1367898 408.19807407 325.1367898 455.79807407 325.1367898 C455.79807407 253.5267898 455.79807407 181.9167898 455.79807407 108.1367898 C441.27807407 108.1367898 426.75807407 108.1367898 411.79807407 108.1367898 C410.1564295 122.12577478 410.1564295 122.12577478 415.24338657 127.09382105 C416.77016813 128.09790269 418.333028 129.04873697 419.92307407 129.9492898 C421.5703121 131.00381702 423.21744621 132.0585066 424.86448032 133.1133523 C425.69221957 133.61640894 426.51995883 134.11946558 427.3727811 134.63776636 C430.98705003 136.87167126 434.41740107 139.33816342 437.86057407 141.8242898 C438.44919223 142.23461451 439.03781039 142.64493921 439.64426547 143.067698 C443.68304063 145.90672293 443.68304063 145.90672293 444.79807407 148.1367898 C444.94182829 151.51501395 444.87343755 153.91069935 443.79807407 157.1367898 C417.39807407 157.1367898 390.99807407 157.1367898 363.79807407 157.1367898 C362.79807407 148.1367898 362.79807407 148.1367898 364.83323032 145.36725855 C365.81162875 144.63120386 366.79002719 143.89514917 367.79807407 143.1367898 C368.80741 142.36979761 369.81674594 141.60280542 370.85666782 140.81257105 C371.98075413 140.02165208 373.10715776 139.23401873 374.23557407 138.4492898 C375.13397006 137.80093164 375.13397006 137.80093164 376.05051547 137.13947535 C379.23112478 134.85726609 382.42755497 132.73891612 385.82541782 130.7930398 C386.47002963 130.3994729 387.11464145 130.00590601 387.77878696 129.60041285 C389.67307407 128.4492898 389.67307407 128.4492898 391.5302518 127.50324488 C393.61304996 126.33041171 393.61304996 126.33041171 395.79807407 123.1367898 C395.79807407 118.1867898 395.79807407 113.2367898 395.79807407 108.1367898 C369.39807407 108.1367898 342.99807407 108.1367898 315.79807407 108.1367898 Z M190.61057407 139.0742898 C189.89514438 139.61956324 189.17971469 140.16483667 188.44260532 140.72663355 C187.89991 141.19198511 187.35721469 141.65733667 186.79807407 142.1367898 C186.79807407 142.4667898 186.79807407 142.7967898 186.79807407 143.1367898 C193.06807407 143.1367898 199.33807407 143.1367898 205.79807407 143.1367898 C198.74973103 135.59227624 198.74973103 135.59227624 190.61057407 139.0742898 Z M264.79807407 136.1367898 C263.12862885 137.27857108 261.46257927 138.42531885 259.79807407 139.5742898 C258.40588657 140.5314187 258.40588657 140.5314187 256.98557407 141.50788355 C256.26369907 142.04542261 255.54182407 142.58296167 254.79807407 143.1367898 C254.79807407 143.4667898 254.79807407 143.7967898 254.79807407 144.1367898 C261.39807407 144.1367898 267.99807407 144.1367898 274.79807407 144.1367898 C271.18842838 140.52714412 269.03797591 138.4384508 264.79807407 136.1367898 Z M398.17307407 139.0742898 C397.35580844 139.61956324 396.53854282 140.16483667 395.69651157 140.72663355 C395.07002719 141.19198511 394.44354282 141.65733667 393.79807407 142.1367898 C393.79807407 142.4667898 393.79807407 142.7967898 393.79807407 143.1367898 C400.39807407 143.1367898 406.99807407 143.1367898 413.79807407 143.1367898 C412.14807407 141.8167898 410.49807407 140.4967898 408.79807407 139.1367898 C408.07619907 138.5592898 407.35432407 137.9817898 406.61057407 137.3867898 C403.11181322 134.97385129 401.36717139 136.9195416 398.17307407 139.0742898 Z M160.79807407 157.1367898 C160.79807407 234.6867898 160.79807407 312.2367898 160.79807407 392.1367898 C206.99807407 392.1367898 253.19807407 392.1367898 300.79807407 392.1367898 C300.79807407 314.5867898 300.79807407 237.0367898 300.79807407 157.1367898 C254.59807407 157.1367898 208.39807407 157.1367898 160.79807407 157.1367898 Z M5.79807407 172.1367898 C5.79807407 192.9267898 5.79807407 213.7167898 5.79807407 235.1367898 C51.99807407 235.1367898 98.19807407 235.1367898 145.79807407 235.1367898 C145.79807407 214.3467898 145.79807407 193.5567898 145.79807407 172.1367898 C99.59807407 172.1367898 53.39807407 172.1367898 5.79807407 172.1367898 Z M5.79807407 250.1367898 C5.79807407 270.9267898 5.79807407 291.7167898 5.79807407 313.1367898 C51.99807407 313.1367898 98.19807407 313.1367898 145.79807407 313.1367898 C145.79807407 292.3467898 145.79807407 271.5567898 145.79807407 250.1367898 C99.59807407 250.1367898 53.39807407 250.1367898 5.79807407 250.1367898 Z M5.79807407 328.1367898 C5.79807407 349.2567898 5.79807407 370.3767898 5.79807407 392.1367898 C51.99807407 392.1367898 98.19807407 392.1367898 145.79807407 392.1367898 C145.79807407 371.0167898 145.79807407 349.8967898 145.79807407 328.1367898 C99.59807407 328.1367898 53.39807407 328.1367898 5.79807407 328.1367898 Z M315.79807407 340.1367898 C315.79807407 357.2967898 315.79807407 374.4567898 315.79807407 392.1367898 C361.99807407 392.1367898 408.19807407 392.1367898 455.79807407 392.1367898 C455.79807407 374.9767898 455.79807407 357.8167898 455.79807407 340.1367898 C409.59807407 340.1367898 363.39807407 340.1367898 315.79807407 340.1367898 Z M5.79807407 407.1367898 C5.79807407 424.2967898 5.79807407 441.4567898 5.79807407 459.1367898 C51.99807407 459.1367898 98.19807407 459.1367898 145.79807407 459.1367898 C145.79807407 441.9767898 145.79807407 424.8167898 145.79807407 407.1367898 C99.59807407 407.1367898 53.39807407 407.1367898 5.79807407 407.1367898 Z M160.79807407 407.1367898 C160.79807407 424.2967898 160.79807407 441.4567898 160.79807407 459.1367898 C181.25807407 459.1367898 201.71807407 459.1367898 222.79807407 459.1367898 C222.79807407 451.2167898 222.79807407 443.2967898 222.79807407 435.1367898 C222.13807407 436.4567898 221.47807407 437.7767898 220.79807407 439.1367898 C217.84450916 443.12809372 215.72278245 445.96424018 210.79807407 447.1367898 C205.56721978 447.61232201 202.19228153 447.06626144 197.79807407 444.1367898 C194.29144555 440.44560189 193.51381697 437.52470187 193.36057407 432.5742898 C193.53920638 428.32745062 193.78975469 425.3456638 196.79807407 422.1367898 C201.78196899 418.61159583 206.89579284 418.29223574 212.79807407 419.1367898 C216.94663595 421.02249975 218.87331997 422.79794755 220.67307407 426.8867898 C221.04432407 427.9592898 221.41557407 429.0317898 221.79807407 430.1367898 C222.12807407 430.1367898 222.45807407 430.1367898 222.79807407 430.1367898 C222.79807407 422.5467898 222.79807407 414.9567898 222.79807407 407.1367898 C202.33807407 407.1367898 181.87807407 407.1367898 160.79807407 407.1367898 Z M238.79807407 407.1367898 C238.79807407 424.2967898 238.79807407 441.4567898 238.79807407 459.1367898 C259.25807407 459.1367898 279.71807407 459.1367898 300.79807407 459.1367898 C300.79807407 441.9767898 300.79807407 424.8167898 300.79807407 407.1367898 C280.33807407 407.1367898 259.87807407 407.1367898 238.79807407 407.1367898 Z M315.79807407 407.1367898 C315.79807407 424.2967898 315.79807407 441.4567898 315.79807407 459.1367898 C361.99807407 459.1367898 408.19807407 459.1367898 455.79807407 459.1367898 C455.79807407 441.9767898 455.79807407 424.8167898 455.79807407 407.1367898 C409.59807407 407.1367898 363.39807407 407.1367898 315.79807407 407.1367898 Z M31.79807407 473.1367898 C31.79807407 475.7767898 31.79807407 478.4167898 31.79807407 481.1367898 C163.46807407 481.1367898 295.13807407 481.1367898 430.79807407 481.1367898 C430.79807407 478.4967898 430.79807407 475.8567898 430.79807407 473.1367898 C299.12807407 473.1367898 167.45807407 473.1367898 31.79807407 473.1367898 Z " fill="#000000" transform="translate(25.201925933361053,7.863210201263428)"/>
<path d="M0 0 C5.13308791 2.61320839 8.1797908 5.53937241 10 11 C10.43619612 16.23435345 10.3042595 19.9897995 7.38671875 24.453125 C4.208462 27.99844802 0.4384219 29.83496298 -4.30859375 30.15625 C-9.45245589 29.80927785 -13.06512971 28.46643335 -17 25 C-20.09818479 20.45599564 -20.7810678 16.34977943 -20 11 C-16.47632302 1.35625248 -9.51323783 -1.0667686 0 0 Z " fill="#000000" transform="translate(285,426)"/>
<path d="M0 0 C3.81978202 1.77347022 5.48336877 3.25949523 7.875 6.6875 C9.53004055 11.56067496 10.03915402 16.10042507 8.2734375 21.02734375 C6.22200809 24.97175884 4.09483504 27.32484021 0 29 C-6.0366879 30.36312307 -9.48435262 30.22613337 -15 27 C-18.84443305 23.35424566 -20.84576149 20.04366029 -21.25 14.6875 C-20.88716594 9.33569763 -19.41893949 6.28050637 -15.4375 2.6875 C-10.47611647 -0.74730398 -5.91995875 -0.59366818 0 0 Z " fill="#000000" transform="translate(393,47)"/>
<path d="M0 0 C0.67293091 -0.00619858 1.34586182 -0.01239716 2.03918457 -0.01878357 C3.45791176 -0.02586816 4.87672232 -0.02273126 6.29541016 -0.01000977 C8.46282166 0.00386829 10.62592117 -0.03023311 12.79296875 -0.06835938 C14.17448022 -0.06931058 15.55599708 -0.06745166 16.9375 -0.0625 C18.81598633 -0.06358765 18.81598633 -0.06358765 20.73242188 -0.06469727 C23.96875 0.56640625 23.96875 0.56640625 26.40820312 2.87915039 C27.96875 5.56640625 27.96875 5.56640625 27.96875 9.19140625 C26.83993365 13.00116143 26.34362044 13.6741622 22.96875 15.56640625 C18.8376593 16.1160449 14.71641217 16.03938049 10.55151367 16.01245117 C8.54046098 16.00394521 6.53225634 16.03270798 4.52148438 16.06445312 C2.61012695 16.06348633 2.61012695 16.06348633 0.66015625 16.0625 C-0.50314209 16.06435303 -1.66644043 16.06620605 -2.86499023 16.06811523 C-6.68889205 15.46219973 -8.35681766 14.33028449 -11.03125 11.56640625 C-11.59375 8.06640625 -11.59375 8.06640625 -11.03125 4.56640625 C-7.86224894 0.23036334 -5.21111047 0.04525862 0 0 Z " fill="#000000" transform="translate(93.03125,183.43359375)"/>
<path d="M0 0 C1.27101563 -0.01998047 2.54203125 -0.03996094 3.8515625 -0.06054688 C5.07617188 -0.05990234 6.30078125 -0.05925781 7.5625 -0.05859375 C8.67753906 -0.06044678 9.79257812 -0.0622998 10.94140625 -0.06420898 C14.69329609 0.55122314 16.3637759 1.73337864 19 4.4375 C19.5625 7.9375 19.5625 7.9375 19 11.4375 C16.75641919 14.50731995 15.55261893 15.34641126 11.76367188 15.97094727 C9.88518555 15.98726196 9.88518555 15.98726196 7.96875 16.00390625 C7.29581909 16.01010483 6.62288818 16.01630341 5.92956543 16.02268982 C4.51083824 16.02977441 3.09202768 16.02663751 1.67333984 16.01391602 C-0.49407166 16.00003796 -2.65717117 16.03413936 -4.82421875 16.07226562 C-6.20573022 16.07321683 -7.58724708 16.07135791 -8.96875 16.06640625 C-10.84723633 16.0674939 -10.84723633 16.0674939 -12.76367188 16.06860352 C-16 15.4375 -16 15.4375 -18.43554688 13.12475586 C-20 10.4375 -20 10.4375 -20.0625 6.8125 C-19 3.4375 -19 3.4375 -16.8359375 1.75366211 C-11.52406425 -0.71158485 -5.75850625 -0.03212149 0 0 Z " fill="#000000" transform="translate(411,418.5625)"/>
<path d="M0 0 C1.83691406 -0.0009668 1.83691406 -0.0009668 3.7109375 -0.00195312 C5.61746094 0.02801758 5.61746094 0.02801758 7.5625 0.05859375 C8.83351563 0.05150391 10.10453125 0.04441406 11.4140625 0.03710938 C22.21197643 0.11098984 22.21197643 0.11098984 26.5625 3.49609375 C27.625 6.87109375 27.625 6.87109375 27.5625 10.49609375 C25.99804688 13.18334961 25.99804688 13.18334961 23.5625 15.49609375 C20.32617188 16.12719727 20.32617188 16.12719727 16.53125 16.125 C15.85831909 16.12741196 15.18538818 16.12982391 14.49206543 16.13230896 C13.07326345 16.13133208 11.65442262 16.11797562 10.23583984 16.09301758 C8.06866522 16.0586914 5.90556797 16.07236264 3.73828125 16.09179688 C2.35675354 16.08489805 0.97523632 16.0752253 -0.40625 16.0625 C-1.65857422 16.05162354 -2.91089844 16.04074707 -4.20117188 16.02954102 C-7.99011893 15.40500501 -9.19391919 14.5659137 -11.4375 11.49609375 C-12 7.99609375 -12 7.99609375 -11.4375 4.49609375 C-7.7617573 0.72568048 -5.19226496 -0.00862876 0 0 Z " fill="#000000" transform="translate(93.4375,418.50390625)"/>
<path d="M0 0 C0.67293091 -0.00619858 1.34586182 -0.01239716 2.03918457 -0.01878357 C3.45791176 -0.02586816 4.87672232 -0.02273126 6.29541016 -0.01000977 C8.46282166 0.00386829 10.62592117 -0.03023311 12.79296875 -0.06835938 C14.17448022 -0.06931058 15.55599708 -0.06745166 16.9375 -0.0625 C18.81598633 -0.06358765 18.81598633 -0.06358765 20.73242188 -0.06469727 C23.96875 0.56640625 23.96875 0.56640625 26.40429688 2.87915039 C27.96875 5.56640625 27.96875 5.56640625 28.03125 9.19140625 C26.96875 12.56640625 26.96875 12.56640625 24.8046875 14.25024414 C19.49281425 16.7154911 13.72725625 16.03602774 7.96875 16.00390625 C6.69773437 16.02388672 5.42671875 16.04386719 4.1171875 16.06445312 C2.89257812 16.06380859 1.66796875 16.06316406 0.40625 16.0625 C-1.26630859 16.06527954 -1.26630859 16.06527954 -2.97265625 16.06811523 C-6.72454609 15.45268311 -8.3950259 14.27052761 -11.03125 11.56640625 C-11.59375 8.06640625 -11.59375 8.06640625 -11.03125 4.56640625 C-7.86224894 0.23036334 -5.21111047 0.04525862 0 0 Z " fill="#000000" transform="translate(93.03125,340.43359375)"/>
<path d="M0 0 C1.83691406 -0.0009668 1.83691406 -0.0009668 3.7109375 -0.00195312 C5.61746094 0.02801758 5.61746094 0.02801758 7.5625 0.05859375 C8.83351563 0.05150391 10.10453125 0.04441406 11.4140625 0.03710938 C22.21197643 0.11098984 22.21197643 0.11098984 26.5625 3.49609375 C27.625 6.87109375 27.625 6.87109375 27.5625 10.49609375 C25.99804688 13.18334961 25.99804688 13.18334961 23.5625 15.49609375 C20.32617188 16.12719727 20.32617188 16.12719727 16.53125 16.125 C15.85831909 16.12741196 15.18538818 16.12982391 14.49206543 16.13230896 C13.07326345 16.13133208 11.65442262 16.11797562 10.23583984 16.09301758 C8.06866522 16.0586914 5.90556797 16.07236264 3.73828125 16.09179688 C2.35675354 16.08489805 0.97523632 16.0752253 -0.40625 16.0625 C-1.65857422 16.05162354 -2.91089844 16.04074707 -4.20117188 16.02954102 C-7.99011893 15.40500501 -9.19391919 14.5659137 -11.4375 11.49609375 C-12 7.99609375 -12 7.99609375 -11.4375 4.49609375 C-7.7617573 0.72568048 -5.19226496 -0.00862876 0 0 Z " fill="#000000" transform="translate(93.4375,261.50390625)"/>
</svg>
