<?xml version="1.0" standalone="no"?>
<!DOCTYPE svg PUBLIC "-//W3C//DTD SVG 20010904//EN"
 "http://www.w3.org/TR/2001/REC-SVG-20010904/DTD/svg10.dtd">
<svg version="1.0" xmlns="http://www.w3.org/2000/svg"
 width="512.000000pt" height="512.000000pt" viewBox="0 0 512.000000 512.000000"
 preserveAspectRatio="xMidYMid meet">
<metadata>
Created by potrace 1.16, written by Peter Selinger 2001-2019
</metadata>
<g transform="translate(0.000000,512.000000) scale(0.100000,-0.100000)"
fill="#000000" stroke="none">
<path d="M66 4891 c-15 -10 -37 -32 -47 -47 -18 -28 -19 -92 -19 -2284 0
-2192 1 -2256 19 -2284 10 -15 32 -37 47 -47 28 -18 96 -19 2494 -19 2398 0
2466 1 2494 19 15 10 37 32 47 47 18 28 19 92 19 2284 0 2192 -1 2256 -19
2284 -10 15 -32 37 -47 47 -28 18 -96 19 -2494 19 -2398 0 -2466 -1 -2494 -19z
m4754 -2331 l0 -2050 -2260 0 -2260 0 0 2050 0 2050 2260 0 2260 0 0 -2050z"/>
<path d="M948 4291 c-214 -69 -348 -254 -348 -481 0 -287 213 -500 500 -500
287 0 500 213 500 500 0 227 -136 415 -349 480 -83 26 -223 26 -303 1z m240
-310 c67 -34 102 -93 102 -171 0 -111 -79 -190 -190 -190 -111 0 -190 79 -190
190 0 111 77 189 188 190 33 0 67 -7 90 -19z"/>
<path d="M2408 4291 c-214 -69 -348 -254 -348 -481 0 -287 213 -500 500 -500
287 0 500 213 500 500 0 227 -136 415 -349 480 -83 26 -223 26 -303 1z m240
-310 c67 -34 102 -93 102 -171 0 -111 -79 -190 -190 -190 -111 0 -190 79 -190
190 0 111 77 189 188 190 33 0 67 -7 90 -19z"/>
<path d="M3868 4291 c-214 -69 -348 -254 -348 -481 0 -287 213 -500 500 -500
287 0 500 213 500 500 0 227 -136 415 -349 480 -83 26 -223 26 -303 1z m240
-310 c67 -34 102 -93 102 -171 0 -111 -79 -190 -190 -190 -111 0 -190 79 -190
190 0 111 77 189 188 190 33 0 67 -7 90 -19z"/>
<path d="M716 2991 c-46 -31 -66 -69 -66 -131 0 -62 20 -100 66 -131 27 -18
53 -19 384 -19 331 0 357 1 384 19 46 31 66 69 66 131 0 62 -20 100 -66 131
-27 18 -53 19 -384 19 -331 0 -357 -1 -384 -19z"/>
<path d="M2176 2991 c-46 -31 -66 -69 -66 -131 0 -62 20 -100 66 -131 27 -18
53 -19 384 -19 331 0 357 1 384 19 46 31 66 69 66 131 0 62 -20 100 -66 131
-27 18 -53 19 -384 19 -331 0 -357 -1 -384 -19z"/>
<path d="M3636 2991 c-46 -31 -66 -69 -66 -131 0 -62 20 -100 66 -131 27 -18
53 -19 384 -19 331 0 357 1 384 19 46 31 66 69 66 131 0 62 -20 100 -66 131
-27 18 -53 19 -384 19 -331 0 -357 -1 -384 -19z"/>
<path d="M948 2391 c-214 -69 -348 -254 -348 -481 0 -287 213 -500 500 -500
287 0 500 213 500 500 0 227 -136 415 -349 480 -83 26 -223 26 -303 1z m240
-310 c67 -34 102 -93 102 -171 0 -111 -79 -190 -190 -190 -111 0 -190 79 -190
190 0 111 77 189 188 190 33 0 67 -7 90 -19z"/>
<path d="M2408 2391 c-214 -69 -348 -254 -348 -481 0 -287 213 -500 500 -500
287 0 500 213 500 500 0 227 -136 415 -349 480 -83 26 -223 26 -303 1z m240
-310 c67 -34 102 -93 102 -171 0 -111 -79 -190 -190 -190 -111 0 -190 79 -190
190 0 111 77 189 188 190 33 0 67 -7 90 -19z"/>
<path d="M3868 2391 c-214 -69 -348 -254 -348 -481 0 -287 213 -500 500 -500
287 0 500 213 500 500 0 227 -136 415 -349 480 -83 26 -223 26 -303 1z m240
-310 c67 -34 102 -93 102 -171 0 -111 -79 -190 -190 -190 -111 0 -190 79 -190
190 0 111 77 189 188 190 33 0 67 -7 90 -19z"/>
<path d="M716 1091 c-46 -31 -66 -69 -66 -131 0 -62 20 -100 66 -131 27 -18
53 -19 384 -19 331 0 357 1 384 19 46 31 66 69 66 131 0 62 -20 100 -66 131
-27 18 -53 19 -384 19 -331 0 -357 -1 -384 -19z"/>
<path d="M2176 1091 c-46 -31 -66 -69 -66 -131 0 -62 20 -100 66 -131 27 -18
53 -19 384 -19 331 0 357 1 384 19 46 31 66 69 66 131 0 62 -20 100 -66 131
-27 18 -53 19 -384 19 -331 0 -357 -1 -384 -19z"/>
<path d="M3636 1091 c-46 -31 -66 -69 -66 -131 0 -62 20 -100 66 -131 27 -18
53 -19 384 -19 331 0 357 1 384 19 46 31 66 69 66 131 0 62 -20 100 -66 131
-27 18 -53 19 -384 19 -331 0 -357 -1 -384 -19z"/>
</g>
</svg>
