<?xml version="1.0" encoding="UTF-8"?>
<svg version="1.1" xmlns="http://www.w3.org/2000/svg" width="512" height="512">
<path d="M0 0 C1.22988647 0.00323273 1.22988647 0.00323273 2.48461914 0.00653076 C14.49978797 0.05724376 26.1658919 0.36961083 37.875 3.3125 C38.71869141 3.52181152 39.56238281 3.73112305 40.43164062 3.94677734 C72.20624794 12.03933685 98.87640882 26.93390791 122.875 49.3125 C123.66519531 50.03695312 124.45539063 50.76140625 125.26953125 51.5078125 C152.48390952 77.44720374 167.6047239 112.79104874 173.875 149.3125 C174.060625 150.28832031 174.24625 151.26414063 174.4375 152.26953125 C178.17431407 178.26040771 175.1358476 205.47157666 166.875 230.3125 C166.47925781 231.52292969 166.08351563 232.73335937 165.67578125 233.98046875 C160.19779133 249.96435941 152.13945232 265.02712161 141.96875 278.5 C139.59534056 281.59093346 139.59534056 281.59093346 136.875 286.3125 C145.455 294.8925 154.035 303.4725 162.875 312.3125 C165.515 310.6625 168.155 309.0125 170.875 307.3125 C176.07358713 306.60360176 178.93209187 307.00214358 183.20166016 310.00366211 C186.49651783 312.58080421 189.48411253 315.48162954 192.5 318.375 C193.9278728 319.72970718 195.35626189 321.08387037 196.78515625 322.4375 C197.83147217 323.43136719 197.83147217 323.43136719 198.89892578 324.4453125 C201.55184669 326.95205071 204.2404231 329.41579284 206.9375 331.875 C211.4229755 335.97149117 215.87537041 340.10120781 220.3125 344.25 C227.1399764 350.63335647 234.00017993 356.9802058 240.875 363.3125 C248.39478893 370.23886539 255.89086305 377.1892116 263.35888672 384.17138672 C267.17886523 387.73939036 271.01685754 391.28579528 274.875 394.8125 C280.02750878 399.52237715 285.13467748 404.27891765 290.23388672 409.04638672 C295.36097376 413.8380446 300.51016335 418.6050622 305.671875 423.359375 C307.8948567 425.40693027 310.11298099 427.45959346 312.328125 429.515625 C312.89700439 430.04285156 313.46588379 430.57007813 314.05200195 431.11328125 C315.17145549 432.15112976 316.28980921 433.19016601 317.40698242 434.23046875 C320.128737 436.75276459 322.89094516 439.15162413 325.8125 441.4375 C332.18582635 446.8144999 337.01745391 456.19153891 338.17626953 464.46289062 C338.31153475 466.69301969 338.34304916 468.89106249 338.3125 471.125 C338.30420166 471.91253662 338.29590332 472.70007324 338.28735352 473.51147461 C337.94702608 485.31393329 333.43141415 493.79969836 325.11328125 502.0625 C314.67890198 511.44171732 303.59166663 513.19323201 290.01464844 512.5078125 C279.13795768 511.51496076 271.13851101 504.93032862 263.875 497.3125 C261.70234967 495.16870841 259.52756183 493.02711081 257.3515625 490.88671875 C254.71160887 488.142666 252.22668852 485.29471988 249.73095703 482.42016602 C246.73420148 479.01698387 243.61600912 475.73117454 240.5 472.4375 C235.63880822 467.27653572 230.82753542 462.08203779 226.10546875 456.79296875 C222.9228222 453.25359824 219.68857073 449.76280143 216.45629883 446.26879883 C213.0861599 442.62550632 209.72601863 438.97338346 206.375 435.3125 C195.93938638 423.91883829 185.42572067 412.59958504 174.875 401.3125 C166.64682291 392.51005537 158.42560325 383.70199694 150.27441406 374.828125 C148.89671307 373.33601618 147.50829517 371.85460558 146.1171875 370.375 C132.69369568 355.94975505 132.69369568 355.94975505 132.1875 349.1875 C133.05688778 344.28731435 134.71620262 342.10305685 137.875 338.3125 C136.20944925 333.97995976 133.0006989 331.17693392 129.75 328 C129.16613525 327.42330566 128.58227051 326.84661133 127.98071289 326.25244141 C122.54699321 320.92013914 117.00046284 315.84292985 110.875 311.3125 C109.9778125 312.00214844 109.080625 312.69179688 108.15625 313.40234375 C71.25954164 341.35500188 24.51129142 355.15364298 -21.72216797 348.96484375 C-60.40726349 343.22442979 -93.48545295 327.01876522 -122.125 300.3125 C-122.91519531 299.58804687 -123.70539063 298.86359375 -124.51953125 298.1171875 C-151.47968013 272.42011506 -167.27633722 236.66383207 -173.125 200.3125 C-173.3000708 199.23274902 -173.4751416 198.15299805 -173.65551758 197.04052734 C-174.14801004 193.12978374 -174.32072244 189.27874185 -174.36328125 185.34375 C-174.37302979 184.59438171 -174.38277832 183.84501343 -174.39282227 183.07293701 C-174.56788151 166.11538611 -174.25360748 149.86763928 -170.125 133.3125 C-169.94308105 132.55710938 -169.76116211 131.80171875 -169.57373047 131.0234375 C-161.88163398 99.89759932 -145.21588096 73.18191421 -123.125 50.3125 C-122.52558594 49.66152344 -121.92617187 49.01054688 -121.30859375 48.33984375 C-97.91171464 23.53563357 -64.01618975 8.72860253 -31.125 2.3125 C-30.17222168 2.12486084 -29.21944336 1.93722168 -28.23779297 1.74389648 C-18.81715239 0.08364712 -9.53377892 -0.04501608 0 0 Z " fill="#70B7E4" transform="translate(174.125,-0.3125)"/>
<path d="M0 0 C1.22988647 0.00323273 1.22988647 0.00323273 2.48461914 0.00653076 C14.49978797 0.05724376 26.1658919 0.36961083 37.875 3.3125 C38.71869141 3.52181152 39.56238281 3.73112305 40.43164062 3.94677734 C72.20624794 12.03933685 98.87640882 26.93390791 122.875 49.3125 C123.66519531 50.03695312 124.45539063 50.76140625 125.26953125 51.5078125 C152.48390952 77.44720374 167.6047239 112.79104874 173.875 149.3125 C174.060625 150.28832031 174.24625 151.26414063 174.4375 152.26953125 C178.17431407 178.26040771 175.1358476 205.47157666 166.875 230.3125 C166.47925781 231.52292969 166.08351563 232.73335937 165.67578125 233.98046875 C160.19779133 249.96435941 152.13945232 265.02712161 141.96875 278.5 C139.59534056 281.59093346 139.59534056 281.59093346 136.875 286.3125 C145.455 294.8925 154.035 303.4725 162.875 312.3125 C165.515 310.6625 168.155 309.0125 170.875 307.3125 C176.07358713 306.60360176 178.93209187 307.00214358 183.20166016 310.00366211 C186.49651783 312.58080421 189.48411253 315.48162954 192.5 318.375 C193.9278728 319.72970718 195.35626189 321.08387037 196.78515625 322.4375 C197.83147217 323.43136719 197.83147217 323.43136719 198.89892578 324.4453125 C201.55184669 326.95205071 204.2404231 329.41579284 206.9375 331.875 C211.4229755 335.97149117 215.87537041 340.10120781 220.3125 344.25 C227.1399764 350.63335647 234.00017993 356.9802058 240.875 363.3125 C248.39478893 370.23886539 255.89086305 377.1892116 263.35888672 384.17138672 C267.17886523 387.73939036 271.01685754 391.28579528 274.875 394.8125 C280.02750878 399.52237715 285.13467748 404.27891765 290.23388672 409.04638672 C295.36097376 413.8380446 300.51016335 418.6050622 305.671875 423.359375 C307.8948567 425.40693027 310.11298099 427.45959346 312.328125 429.515625 C312.89700439 430.04285156 313.46588379 430.57007813 314.05200195 431.11328125 C315.17145549 432.15112976 316.28980921 433.19016601 317.40698242 434.23046875 C320.128737 436.75276459 322.89094516 439.15162413 325.8125 441.4375 C332.18582635 446.8144999 337.01745391 456.19153891 338.17626953 464.46289062 C338.31153475 466.69301969 338.34304916 468.89106249 338.3125 471.125 C338.30420166 471.91253662 338.29590332 472.70007324 338.28735352 473.51147461 C337.94702608 485.31393329 333.43141415 493.79969836 325.11328125 502.0625 C314.67890198 511.44171732 303.59166663 513.19323201 290.01464844 512.5078125 C279.13795768 511.51496076 271.13851101 504.93032862 263.875 497.3125 C261.70234967 495.16870841 259.52756183 493.02711081 257.3515625 490.88671875 C254.71160887 488.142666 252.22668852 485.29471988 249.73095703 482.42016602 C246.73420148 479.01698387 243.61600912 475.73117454 240.5 472.4375 C235.63880822 467.27653572 230.82753542 462.08203779 226.10546875 456.79296875 C222.9228222 453.25359824 219.68857073 449.76280143 216.45629883 446.26879883 C213.0861599 442.62550632 209.72601863 438.97338346 206.375 435.3125 C195.93938638 423.91883829 185.42572067 412.59958504 174.875 401.3125 C166.64682291 392.51005537 158.42560325 383.70199694 150.27441406 374.828125 C148.89671307 373.33601618 147.50829517 371.85460558 146.1171875 370.375 C132.69369568 355.94975505 132.69369568 355.94975505 132.1875 349.1875 C133.05688778 344.28731435 134.71620262 342.10305685 137.875 338.3125 C136.20944925 333.97995976 133.0006989 331.17693392 129.75 328 C129.16613525 327.42330566 128.58227051 326.84661133 127.98071289 326.25244141 C122.54699321 320.92013914 117.00046284 315.84292985 110.875 311.3125 C109.9778125 312.00214844 109.080625 312.69179688 108.15625 313.40234375 C71.25954164 341.35500188 24.51129142 355.15364298 -21.72216797 348.96484375 C-60.40726349 343.22442979 -93.48545295 327.01876522 -122.125 300.3125 C-122.91519531 299.58804687 -123.70539063 298.86359375 -124.51953125 298.1171875 C-151.47968013 272.42011506 -167.27633722 236.66383207 -173.125 200.3125 C-173.3000708 199.23274902 -173.4751416 198.15299805 -173.65551758 197.04052734 C-174.14801004 193.12978374 -174.32072244 189.27874185 -174.36328125 185.34375 C-174.37302979 184.59438171 -174.38277832 183.84501343 -174.39282227 183.07293701 C-174.56788151 166.11538611 -174.25360748 149.86763928 -170.125 133.3125 C-169.94308105 132.55710938 -169.76116211 131.80171875 -169.57373047 131.0234375 C-161.88163398 99.89759932 -145.21588096 73.18191421 -123.125 50.3125 C-122.52558594 49.66152344 -121.92617187 49.01054688 -121.30859375 48.33984375 C-97.91171464 23.53563357 -64.01618975 8.72860253 -31.125 2.3125 C-30.17222168 2.12486084 -29.21944336 1.93722168 -28.23779297 1.74389648 C-18.81715239 0.08364712 -9.53377892 -0.04501608 0 0 Z M-102.125 79.3125 C-129.81696696 109.19387577 -140.72764267 146.58479989 -139.33642578 186.67578125 C-138.86423277 194.79793726 -137.35605673 202.50380145 -135.125 210.3125 C-134.91069336 211.07804199 -134.69638672 211.84358398 -134.47558594 212.63232422 C-127.50986154 236.85013021 -114.39046896 258.89878866 -96.125 276.3125 C-95.66859131 276.77970459 -95.21218262 277.24690918 -94.74194336 277.72827148 C-69.99075346 301.97868236 -34.60367823 314.77876765 -0.375 314.625 C0.28207947 314.62284485 0.93915894 314.6206897 1.6161499 314.61846924 C12.04199557 314.56376114 21.7800397 313.97877689 31.875 311.3125 C32.65456055 311.11382324 33.43412109 310.91514648 34.23730469 310.71044922 C72.52583909 300.74647389 102.70718449 276.36085815 123.10546875 242.6875 C139.30832691 214.74332899 145.68440688 175.8505043 137.46582031 144.421875 C131.48630031 123.07350608 122.96855826 103.87092864 108.77734375 86.65625 C107.05164889 84.53013723 105.45896457 82.3571452 103.875 80.125 C100.70555456 75.87641362 96.95930699 72.65936267 92.875 69.3125 C92.05 68.6009375 91.225 67.889375 90.375 67.15625 C70.58331022 50.35632728 47.15738161 41.04894618 21.875 36.3125 C20.50396118 36.05339844 20.50396118 36.05339844 19.10522461 35.7890625 C-26.29387334 29.09122869 -70.32471596 47.36236608 -102.125 79.3125 Z " fill="#C3D6E4" transform="translate(174.125,-0.3125)"/>
<path d="M0 0 C5.20246964 2.97074919 9.32009297 6.93247494 13.625 11.0625 C15.0528728 12.41720718 16.48126189 13.77137037 17.91015625 15.125 C18.6077002 15.78757812 19.30524414 16.45015625 20.02392578 17.1328125 C22.67684669 19.63955071 25.3654231 22.10329284 28.0625 24.5625 C32.5479755 28.65899117 37.00037041 32.78870781 41.4375 36.9375 C48.2649764 43.32085647 55.12517993 49.6677058 62 56 C69.51978893 62.92636539 77.01586305 69.8767116 84.48388672 76.85888672 C88.30386523 80.42689036 92.14185754 83.97329528 96 87.5 C101.15250878 92.20987715 106.25967748 96.96641765 111.35888672 101.73388672 C116.48597376 106.5255446 121.63516335 111.2925622 126.796875 116.046875 C129.0198567 118.09443027 131.23798099 120.14709346 133.453125 122.203125 C134.02200439 122.73035156 134.59088379 123.25757813 135.17700195 123.80078125 C136.29645549 124.83862976 137.41480921 125.87766601 138.53198242 126.91796875 C141.253737 129.44026459 144.01594516 131.83912413 146.9375 134.125 C153.31082635 139.5019999 158.14245391 148.87903891 159.30126953 157.15039062 C159.43653475 159.38051969 159.46804916 161.57856249 159.4375 163.8125 C159.42920166 164.60003662 159.42090332 165.38757324 159.41235352 166.19897461 C159.07202608 178.00143329 154.55641415 186.48719836 146.23828125 194.75 C135.80390198 204.12921732 124.71666663 205.88073201 111.13964844 205.1953125 C100.26295768 204.20246076 92.26351101 197.61782862 85 190 C82.82734967 187.85620841 80.65256183 185.71461081 78.4765625 183.57421875 C75.83660887 180.830166 73.35168852 177.98221988 70.85595703 175.10766602 C67.85920148 171.70448387 64.74100912 168.41867454 61.625 165.125 C56.76380822 159.96403572 51.95253542 154.76953779 47.23046875 149.48046875 C44.0478222 145.94109824 40.81357073 142.45030143 37.58129883 138.95629883 C34.2111599 135.31300632 30.85101863 131.66088346 27.5 128 C17.06438638 116.60633829 6.55072067 105.28708504 -4 94 C-12.22817709 85.19755537 -20.44939675 76.38949694 -28.60058594 67.515625 C-29.97828693 66.02351618 -31.36670483 64.54210558 -32.7578125 63.0625 C-46.14712379 48.67398638 -46.14712379 48.67398638 -46.75 41.9375 C-46.18511605 35.4670111 -41.24945658 30.95782162 -36.5625 26.9375 C-35.89863281 26.38191406 -35.23476563 25.82632812 -34.55078125 25.25390625 C-30.9789257 22.09776436 -27.62085535 18.74342415 -24.25 15.375 C-23.59974854 14.72909912 -22.94949707 14.08319824 -22.27954102 13.41772461 C-18.95711851 10.08585487 -15.90696222 6.70772265 -13 3 C-9.10030079 -0.14142436 -4.8936061 -1.12384805 0 0 Z " fill="#A35425" transform="translate(353,307)"/>
<path d="M0 0 C5.20246964 2.97074919 9.32009297 6.93247494 13.625 11.0625 C15.0528728 12.41720718 16.48126189 13.77137037 17.91015625 15.125 C18.6077002 15.78757812 19.30524414 16.45015625 20.02392578 17.1328125 C22.67684669 19.63955071 25.3654231 22.10329284 28.0625 24.5625 C32.5479755 28.65899117 37.00037041 32.78870781 41.4375 36.9375 C48.2649764 43.32085647 55.12517993 49.6677058 62 56 C69.51978893 62.92636539 77.01586305 69.8767116 84.48388672 76.85888672 C88.30386523 80.42689036 92.14185754 83.97329528 96 87.5 C100.50533907 91.61830323 104.97871219 95.76886209 109.4375 99.9375 C114.19734951 104.38697725 118.96398856 108.8286644 123.75 113.25 C124.27489014 113.73654053 124.79978027 114.22308105 125.34057617 114.72436523 C127.93840535 117.12613183 130.55569501 119.49876181 133.21875 121.828125 C133.72954102 122.27897461 134.24033203 122.72982422 134.76660156 123.19433594 C136.15625685 124.41748875 137.55439829 125.63098118 138.953125 126.84375 C141.08993177 129.09473729 141.51283999 130.03064377 142 133 C142.63889001 134.51203968 143.30695961 136.01200152 144 137.5 C147.30239376 144.59043366 147.68968053 151.19981029 147 159 C144.76263748 163.90498706 141.88949139 166.729879 137 169 C129.51497849 170.00759905 125.15837956 169.47283901 119 165 C117.20044851 163.36637494 115.44619806 161.68192333 113.73194885 159.95899963 C113.23765143 159.46499993 112.743354 158.97100022 112.23407787 158.46203083 C110.59209387 156.8186667 108.95735595 155.16828496 107.32250977 153.51782227 C106.1413257 152.33279668 104.9596831 151.14822798 103.77761841 149.96408081 C101.23915199 147.41930637 98.70382314 144.87146129 96.17086983 142.32119942 C92.16238735 138.28560822 88.14623055 134.25771336 84.12889099 130.23094177 C74.8762722 120.95426182 65.63370117 111.66759197 56.39122009 102.3808136 C47.92080438 93.87000214 39.44826667 85.36133223 30.96758503 76.86074871 C26.9775731 72.86079431 22.99248421 68.85601904 19.01113713 64.84744084 C16.52944032 62.35078277 14.04356864 59.85831341 11.55656815 57.36693954 C10.40796705 56.21460718 9.26108972 55.06055355 8.11611366 53.90461922 C-2.07381679 42.75352286 -2.07381679 42.75352286 -15.6875 37.6875 C-25.17488182 37.92899699 -30.71407024 44.28562265 -36.875 50.734375 C-37.926875 51.85585938 -37.926875 51.85585938 -39 53 C-42.79844086 51.25773993 -44.29559476 49.92013204 -46 46 C-46.75349925 40.89294953 -46.50532935 38.16297669 -43.5 33.9375 C-40.78562432 30.67774167 -37.79626036 27.97002566 -34.55078125 25.25390625 C-30.9789257 22.09776436 -27.62085535 18.74342415 -24.25 15.375 C-23.59974854 14.72909912 -22.94949707 14.08319824 -22.27954102 13.41772461 C-18.95711851 10.08585487 -15.90696222 6.70772265 -13 3 C-9.10030079 -0.14142436 -4.8936061 -1.12384805 0 0 Z " fill="#AF6328" transform="translate(353,307)"/>
<path d="M0 0 C1.49841431 0.00737183 1.49841431 0.00737183 3.02709961 0.01489258 C22.38188435 0.32002501 22.38188435 0.32002501 29.4375 5.75 C34.06270518 11.01759479 34.1233758 15.28986943 34 22.17578125 C33.59199481 26.27113338 32.55740983 28.36706623 29.6875 31.3125 C24.9676949 34.9701731 20.9689673 36.19577851 15.25 37.25 C-3.20340493 41.04862203 -20.22343112 47.4757928 -34.3125 60.3125 C-35.28960937 61.19679687 -36.26671875 62.08109375 -37.2734375 62.9921875 C-50.57521691 75.43673646 -58.87804866 90.75567148 -64.1875 108.125 C-64.4030957 108.81827393 -64.61869141 109.51154785 -64.84082031 110.22583008 C-65.86254754 113.77179964 -66.41529872 116.89041864 -66.33984375 120.58984375 C-66.30249492 125.67461975 -67.40589076 127.22753566 -70.3125 131.3125 C-74.64491003 135.42273515 -78.25842294 137.11371835 -84.1875 137.6875 C-88.66208692 137.55241813 -91.86823061 136.14328629 -95.3125 133.3125 C-104.06942969 122.66218011 -103.30837594 106.06885136 -102.09423828 92.95507812 C-99.03834025 66.46704811 -86.84049403 41.06331917 -65.79785156 24.09082031 C-46.50017522 9.08407978 -24.73229574 -0.1448297 0 0 Z " fill="#91C4EA" transform="translate(173.3125,69.6875)"/>
<path d="M0 0 C1.39992188 1.05960938 1.39992188 1.05960938 2.828125 2.140625 C10.33478637 7.93147806 10.33478637 7.93147806 12 12 C8.56943713 10.38273465 5.44672593 8.41149291 2.25 6.375 C-28.68425787 -12.80054466 -64.4001577 -20.90699807 -100.625 -14.9375 C-103.09872539 -14.35338856 -105.55747643 -13.7032653 -108 -13 C-108.77359863 -12.7848877 -109.54719727 -12.56977539 -110.34423828 -12.34814453 C-146.90393581 -1.9739518 -176.85273252 20.8171935 -195.79296875 53.77734375 C-201.03929262 63.23349243 -204.99169785 72.61889177 -208 83 C-208.29390625 83.89976562 -208.5878125 84.79953125 -208.890625 85.7265625 C-212.55077411 97.02996417 -213.36440341 108.23290884 -213.3125 120.0625 C-213.31001251 120.74286316 -213.30752502 121.42322632 -213.30496216 122.12420654 C-213.14147141 151.12704065 -205.24421785 177.55692902 -188.79345703 201.57397461 C-186 205.6987945 -186 205.6987945 -186 209 C-207.70824384 189.22137783 -219.81807712 160.36883205 -225 132 C-225.1750708 131.07155273 -225.3501416 130.14310547 -225.53051758 129.18652344 C-230.79224941 93.47351052 -220.49463068 56.36773765 -199.171875 27.52734375 C-176.58256312 -1.44390786 -144.10792364 -23.50165352 -107.0390625 -28.56640625 C-68.68950765 -32.52105246 -30.69299365 -23.99634049 0 0 Z " fill="#4D9DD6" transform="translate(261,64)"/>
<path d="M0 0 C0.78589324 18.90509852 -2.02566213 37.03476491 -8 55 C-8.39574219 56.21042969 -8.79148437 57.42085937 -9.19921875 58.66796875 C-14.67720867 74.65185941 -22.73554768 89.71462161 -32.90625 103.1875 C-34.79181847 105.72035317 -36.39954243 108.28310341 -38 111 C-36.81071899 112.15000488 -36.81071899 112.15000488 -35.59741211 113.32324219 C-32.66460631 116.16568158 -29.74827066 119.02452844 -26.83666992 121.88867188 C-25.57321526 123.12695164 -24.30531379 124.36071084 -23.03295898 125.58984375 C-21.20674998 127.35553511 -19.39705228 129.13676718 -17.58984375 130.921875 C-17.0159642 131.46994812 -16.44208466 132.01802124 -15.85081482 132.58270264 C-14.27319336 134.15917969 -14.27319336 134.15917969 -12 137 C-12.4750743 141.18402745 -14.74612452 143.09200252 -17.69140625 145.984375 C-18.15610825 146.44483215 -18.62081024 146.90528931 -19.09959412 147.37969971 C-20.58031819 148.84367811 -22.07114519 150.29686041 -23.5625 151.75 C-24.57034664 152.74279449 -25.57751633 153.7362767 -26.58398438 154.73046875 C-29.04819461 157.16166473 -31.52157329 159.58328868 -34 162 C-36.91834217 160.68516427 -38.94920929 159.28366724 -41.171875 156.98828125 C-41.75018066 156.39829346 -42.32848633 155.80830566 -42.92431641 155.20043945 C-43.82802979 154.26590942 -43.82802979 154.26590942 -44.75 153.3125 C-50.85163325 147.10413955 -56.99193 141.18719592 -64 136 C-64.8971875 136.68964844 -65.794375 137.37929688 -66.71875 138.08984375 C-94.62954588 159.23484475 -129.43592404 174.41346615 -164.9375 174.0625 C-165.81212891 174.05798828 -166.68675781 174.05347656 -167.58789062 174.04882812 C-169.72529047 174.03714834 -171.86265463 174.01921689 -174 174 C-173.81619462 170.04818434 -173.25126079 168.29341584 -170.6484375 165.25390625 C-166.20652532 161.94691452 -160.97758061 161.6309585 -155.625 160.9375 C-153.45376607 160.61245815 -151.28318501 160.28302507 -149.11328125 159.94921875 C-147.53474365 159.71017822 -147.53474365 159.71017822 -145.92431641 159.46630859 C-120.07078176 155.3437296 -95.62496166 143.92495487 -75 128 C-74.03449219 127.25878906 -73.06898438 126.51757812 -72.07421875 125.75390625 C-38.74570162 99.30794004 -18.06141653 60.80879444 -12.72119141 18.80712891 C-12.64433105 18.13472168 -12.5674707 17.46231445 -12.48828125 16.76953125 C-11.19958998 5.54964124 -11.19958998 5.54964124 -6 1 C-4 0 -4 0 0 0 Z " fill="#B0C9DB" transform="translate(349,175)"/>
<path d="M0 0 C0.2890625 4.6640625 0.2890625 4.6640625 -2.3125 7.6875 C-5.67736582 10.58284966 -7.91762578 12.19188181 -12.2890625 12.7109375 C-13.13960205 12.81897705 -13.9901416 12.9270166 -14.86645508 13.03833008 C-15.7767749 13.14943115 -16.68709473 13.26053223 -17.625 13.375 C-52.23754176 18.00878182 -83.89002335 32.01330186 -109.703125 55.89453125 C-111.75298754 57.77357191 -113.85686998 59.54227461 -116 61.3125 C-145.28139782 87.00722057 -158.73019885 127.37691305 -162.1796875 165.01171875 C-163.22497657 168.81955751 -165.05962334 170.44214883 -168 173 C-168.33 173.33 -168.66 173.66 -169 174 C-170.66617115 174.04063832 -172.33388095 174.042721 -174 174 C-175.91227433 131.45189616 -158.62281225 88.98028734 -130.2421875 57.61987305 C-127.86303411 55.04532122 -125.43550961 52.52134255 -123 50 C-122.40058594 49.34902344 -121.80117187 48.69804688 -121.18359375 48.02734375 C-97.61896742 23.04529629 -63.97470471 8.80151591 -31 2 C-29.81792969 1.7525 -28.63585937 1.505 -27.41796875 1.25 C-18.31607749 -0.39864445 -9.21260667 -0.18611327 0 0 Z " fill="#E0E6EF" transform="translate(174,0)"/>
<path d="M0 0 C3.95769636 1.60797932 6.68905756 4.34952654 9.67578125 7.3046875 C10.20519821 7.82507599 10.73461517 8.34546448 11.28007507 8.88162231 C12.39295341 9.98003406 13.50307652 11.08124348 14.6105957 12.18505859 C16.31212681 13.87462943 18.03142393 15.54465115 19.75195312 17.21484375 C20.83187272 18.28530591 21.91068831 19.35688322 22.98828125 20.4296875 C23.50586502 20.92773895 24.02344879 21.42579041 24.55671692 21.93893433 C27.96837567 25.39493087 27.96837567 25.39493087 28.10644531 28.03662109 C26.54654305 30.80465595 24.57574801 32.75794806 22.30859375 34.984375 C21.84389175 35.44483215 21.37918976 35.90528931 20.90040588 36.37969971 C19.41968181 37.84367811 17.92885481 39.29686041 16.4375 40.75 C15.42965336 41.74279449 14.42248367 42.7362767 13.41601562 43.73046875 C10.95180539 46.16166473 8.47842671 48.58328868 6 51 C3.08165783 49.68516427 1.05079071 48.28366724 -1.171875 45.98828125 C-1.75026123 45.39829346 -2.32864746 44.80830566 -2.92456055 44.20043945 C-3.52695557 43.57741943 -4.12935059 42.95439941 -4.75 42.3125 C-9.1764424 37.80337402 -13.60716543 33.40107384 -18.44921875 29.33203125 C-20.04796055 27.95880466 -21.52812851 26.50744542 -23 25 C-21.69712452 22.08626104 -20.36880433 20.16433891 -17.98828125 18.046875 C-17.39805176 17.51344482 -16.80782227 16.98001465 -16.19970703 16.43041992 C-15.57692871 15.87588135 -14.95415039 15.32134277 -14.3125 14.75 C-9.18770866 10.1012786 -4.34430222 5.40587983 0 0 Z " fill="#99B4CD" transform="translate(309,286)"/>
<path d="M0 0 C2.6304543 1.77351136 4.77668388 3.9345907 6.9921875 6.1953125 C7.6235965 6.82098114 8.25500549 7.44664978 8.9055481 8.09127808 C10.23217738 9.41383712 11.55131066 10.74395303 12.86328125 12.08105469 C14.86889975 14.11880203 16.90451278 16.12255748 18.9453125 18.125 C20.23369894 19.41735151 21.52022278 20.71156313 22.8046875 22.0078125 C23.41190643 22.60288605 24.01912537 23.19795959 24.64474487 23.81106567 C28.37620515 27.66901613 30.02105798 30.39268092 30 36 C28 39 28 39 25.375 39.625 C16.9016464 38.05586044 9.68044794 27.99075239 3.62475586 22.02978516 C2.57683536 21.00364515 1.52268726 19.98382929 0.46264648 18.97021484 C-1.09047908 17.48411866 -2.62286967 15.97913217 -4.15234375 14.46875 C-5.5134729 13.14520508 -5.5134729 13.14520508 -6.90209961 11.79492188 C-9.41513179 8.44694185 -9.8301569 6.1452812 -10 2 C-7.80640756 -2.38718489 -4.15124696 -1.03422253 0 0 Z " fill="#C77528" transform="translate(353,322)"/>
<path d="M0 0 C3.29506699 1.65534171 6.15954594 3.65576984 9 6 C9.60070312 6.47824219 10.20140625 6.95648438 10.8203125 7.44921875 C12 9 12 9 11.97265625 10.890625 C10.6364134 13.78850106 8.7355849 15.54901727 6.4375 17.75 C5.61121094 18.54921875 4.78492188 19.3484375 3.93359375 20.171875 C3.29550781 20.77515625 2.65742188 21.3784375 2 22 C-1.04332765 20.6415798 -3.12309151 19.11536976 -5.453125 16.7421875 C-6.38125 15.80439453 -6.38125 15.80439453 -7.328125 14.84765625 C-7.96234375 14.19667969 -8.5965625 13.54570312 -9.25 12.875 C-9.8996875 12.21628906 -10.549375 11.55757813 -11.21875 10.87890625 C-12.81711727 9.25703357 -14.41061897 7.6306719 -16 6 C-15 3 -15 3 -12.5 1.3125 C-8.10581402 -0.33531974 -4.62774668 -0.95746483 0 0 Z " fill="#AFC3D7" transform="translate(313,315)"/>
<path d="M0 0 C0.33 0 0.66 0 1 0 C1.55258316 13.95272482 1.22580028 24.81154444 -8.14453125 36 C-15.52327569 43.95350979 -24.06931302 49.75042792 -35.234375 50.3359375 C-49.69385516 50.62493655 -59.76803317 47.80981469 -70.4375 37.6875 C-71.283125 36.800625 -72.12875 35.91375 -73 35 C-74.60145005 33.39312131 -76.20583269 31.78916212 -77.8125 30.1875 C-79.20833333 28.79166667 -80.60416667 27.39583333 -82 26 C-81.67 25.34 -81.34 24.68 -81 24 C-80.58862793 24.44802979 -80.17725586 24.89605957 -79.75341797 25.35766602 C-69.54320469 36.35055852 -59.48002605 46.80382021 -43.7109375 48.203125 C-32.28748048 48.43235825 -20.91384842 44.9637424 -12.15234375 37.40625 C-2.33355764 26.75876839 -0.81249387 13.83377723 0 0 Z " fill="#AE6127" transform="translate(511,462)"/>
</svg>
