<?xml version="1.0" encoding="UTF-8"?>
<svg version="1.1" xmlns="http://www.w3.org/2000/svg" width="512" height="512">
<path d="M0 0 C4.29131835 1.70354793 7.29321698 5.04362657 10.5 8.27050781 C12.93344548 10.67816242 15.45708348 12.98676007 17.96875 15.31225586 C24.08623528 20.9861665 30.0613067 26.7687108 35.921875 32.70703125 C37.84881671 34.60589366 39.81952627 36.38042084 41.87890625 38.1328125 C45.63775513 41.3427017 49.09383032 44.80821372 52.56640625 48.3203125 C56.55154189 52.35065031 60.5749449 56.21052182 64.90234375 59.875 C68.52705564 63.13331502 71.91755577 66.63114724 75.32421875 70.11523438 C78.74303737 73.58851947 82.27440219 76.75710201 86.06640625 79.8203125 C86.08098877 78.96800049 86.09557129 78.11568848 86.1105957 77.23754883 C86.1718391 74.05960075 86.24602654 70.88228704 86.32885742 67.70483398 C86.36200431 66.33255292 86.39006796 64.96013888 86.4128418 63.58764648 C86.44657391 61.60893484 86.50042115 59.63059874 86.5546875 57.65234375 C86.58087158 56.46358643 86.60705566 55.2748291 86.6340332 54.05004883 C87.10827803 50.50753906 87.87415159 48.62504018 90.06640625 45.8203125 C92.87276327 44.11682163 94.97040179 43.56901986 98.23423767 43.55961609 C99.05709763 43.55253128 99.87995758 43.54544647 100.72775269 43.53814697 C101.62188873 43.54062439 102.51602478 43.54310181 103.43725586 43.5456543 C104.38565842 43.54054337 105.33406097 43.53543243 106.311203 43.53016663 C109.44711614 43.51626344 112.5828097 43.51722793 115.71875 43.51953125 C117.89823997 43.51564479 120.07772918 43.51131023 122.25721741 43.50654602 C126.82604426 43.49908229 131.39479384 43.49937627 135.96362305 43.50463867 C141.81925754 43.51043422 147.67457583 43.49350081 153.53015804 43.470294 C158.03143667 43.45556447 162.532639 43.45468389 167.03393745 43.45780373 C169.19290353 43.45729015 171.35187384 43.45204557 173.51081657 43.44199181 C176.52947433 43.42965973 179.54751429 43.43639986 182.56616211 43.44799805 C183.90432983 43.43653244 183.90432983 43.43653244 185.26953125 43.42483521 C190.03083075 43.46528338 193.19450343 43.7313769 197.06640625 46.8203125 C200.6673371 51.65394548 199.39924378 58.74783479 199.38208008 64.51928711 C199.37892147 66.74708035 199.40238965 68.97354278 199.42773438 71.20117188 C199.43000779 72.62499833 199.43071067 74.04882834 199.4296875 75.47265625 C199.43415894 77.40612915 199.43415894 77.40612915 199.4387207 79.37866211 C199.04335456 83.03340078 198.27707154 84.91845641 196.06640625 87.8203125 C192.97466873 89.36618126 190.47211073 89.11390771 187.06640625 88.8203125 C185.74640625 87.5003125 184.42640625 86.1803125 183.06640625 84.8203125 C183.06640625 76.9003125 183.06640625 68.9803125 183.06640625 60.8203125 C156.66640625 60.8203125 130.26640625 60.8203125 103.06640625 60.8203125 C100.40388386 94.412599 100.40388386 94.412599 112.62890625 107.6328125 C116.14109942 110.46722318 116.14109942 110.46722318 119.76025391 113.16064453 C125.90898828 117.58570236 131.28493503 122.91495492 136.56640625 128.3203125 C139.97483369 131.77163777 143.36290075 135.18174852 147.06640625 138.3203125 C151.38822894 141.9828741 155.30290005 146.03104439 159.2824707 150.0559082 C162.71687331 153.51428918 166.22623371 156.79710946 169.953125 159.94140625 C172.50446286 162.20978612 174.89869535 164.60556166 177.3046875 167.02734375 C178.19841064 167.92557861 179.09213379 168.82381348 180.01293945 169.74926758 C180.6905835 170.4327124 181.36822754 171.11615723 182.06640625 171.8203125 C182.07005188 171.09003845 182.07369751 170.3597644 182.07745361 169.60736084 C182.11533892 162.72120433 182.17219761 155.83543693 182.25030899 148.94962692 C182.2897988 145.40959585 182.32197942 141.86981406 182.33740234 138.32958984 C182.35545996 134.25838307 182.4054035 130.18810796 182.45703125 126.1171875 C182.45825989 124.84727966 182.45948853 123.57737183 182.46075439 122.26898193 C182.48047302 121.08805969 182.50019165 119.90713745 182.52050781 118.69042969 C182.52939026 117.65118347 182.53827271 116.61193726 182.54742432 115.54119873 C183.19609346 112.14039645 184.41046828 110.9682566 187.06640625 108.8203125 C189.67945963 107.64022388 190.82601275 107.76167994 193.62890625 108.4453125 C196.72744759 110.19320761 197.54272656 111.61294158 199.06640625 114.8203125 C199.35073853 118.12324524 199.35073853 118.12324524 199.22900391 121.92700195 C199.19353611 123.37095552 199.15810701 124.81491003 199.12271118 126.25886536 C199.09844685 127.01969736 199.07418251 127.78052937 199.04918289 128.56441689 C198.9310783 132.63651416 198.90180298 136.7097727 198.85546875 140.78320312 C198.79035404 145.94820343 198.70066082 151.10930702 198.52148438 156.27172852 C196.98022206 176.42855507 196.98022206 176.42855507 203.7487793 194.5480957 C207.16872393 198.07497374 210.8920754 200.87153648 215.04490662 203.47779846 C218.00125753 205.44116394 220.21383095 207.79006339 222.62890625 210.3828125 C225.27663074 213.06601738 227.94329412 215.63087767 230.81640625 218.0703125 C236.72708049 223.12103208 242.11303262 228.76063286 247.55541992 234.30541992 C248.81955151 235.57281958 250.12764677 236.79616585 251.4453125 238.0078125 C253.06640625 239.8203125 253.06640625 239.8203125 253.75390625 243.6328125 C253.54969046 247.09171752 252.65039736 248.78067024 250.25390625 251.2578125 C248.8835821 252.47466034 247.48477817 253.65982638 246.06640625 254.8203125 C245.2671875 255.48546875 244.46796875 256.150625 243.64453125 256.8359375 C241.83521933 258.32406979 240.01701515 259.80143743 238.19140625 261.26953125 C233.92797594 264.71764973 229.79857733 268.32429841 225.66186523 271.92260742 C221.56507695 275.46604217 219.03297887 277.45164993 213.4296875 277.44140625 C208.28254978 276.08868741 204.67631689 271.53281386 201.06640625 267.8203125 C200.07640625 266.8303125 199.08640625 265.8403125 198.06640625 264.8203125 C197.73640625 319.2703125 197.40640625 373.7203125 197.06640625 429.8203125 C213.89640625 429.8203125 230.72640625 429.8203125 248.06640625 429.8203125 C253.06640625 432.8203125 253.06640625 432.8203125 254.06640625 433.8203125 C254.18172501 435.94601562 254.22611057 438.07558715 254.2434082 440.2043457 C254.253265 441.20442154 254.253265 441.20442154 254.26332092 442.22470093 C254.28309746 444.44016623 254.29472674 446.65556358 254.3046875 448.87109375 C254.30876303 449.62643087 254.31283855 450.381768 254.31703758 451.15999413 C254.33791802 455.15866195 254.3522105 459.15729526 254.36157227 463.15600586 C254.37263435 467.28896385 254.40702561 471.42138304 254.44674397 475.55415058 C254.47287953 478.72917183 254.48126139 481.90406422 254.48485374 485.07918358 C254.48972856 486.60263898 254.50136809 488.12608828 254.51989174 489.64943886 C254.54421748 491.78275904 254.54333114 493.91467955 254.53637695 496.0480957 C254.54224319 497.26197464 254.54810944 498.47585358 254.55415344 499.72651672 C253.94434693 503.59453859 253.20143445 504.50747779 250.06640625 506.8203125 C247.15570144 507.21222304 244.62423611 507.35787191 241.7142334 507.32367706 C240.85987607 507.32949083 240.00551874 507.33530459 239.1252718 507.34129453 C236.2427376 507.35597222 233.36104458 507.34197316 230.47851562 507.32824707 C228.39901034 507.33285291 226.3195083 507.33920368 224.24001312 507.34715605 C218.51029181 507.36391597 212.78083562 507.35557275 207.05111313 507.34321117 C200.87788815 507.33419021 194.70470994 507.3481157 188.53149414 507.35913086 C177.1320194 507.37592136 165.73265322 507.37442151 154.33318114 507.36348499 C143.80308496 507.35343185 133.27301992 507.35079171 122.74291992 507.35557556 C122.0450566 507.3558811 121.34719328 507.35618664 120.62818259 507.35650144 C117.79549135 507.35774675 114.96280013 507.35902034 112.13010892 507.3603405 C85.54482685 507.37258282 58.95959888 507.36147264 32.37432516 507.33995291 C8.7430107 507.32096977 -14.88821755 507.32266826 -38.51953125 507.34179688 C-65.05547153 507.36320476 -91.59136399 507.37171468 -118.12731171 507.35934782 C-120.95491027 507.35806491 -123.78250884 507.35681355 -126.61010742 507.35557556 C-127.30635957 507.35525925 -128.00261172 507.35494294 -128.71996242 507.35461705 C-139.24471786 507.35006275 -149.76943879 507.35539645 -160.29418945 507.36549377 C-172.25856685 507.37691487 -184.22284238 507.3737194 -196.18721581 507.3523708 C-202.29600177 507.34183121 -208.4046124 507.33778802 -214.51339722 507.35096741 C-220.09938009 507.36283694 -225.68502418 507.35641889 -231.27097607 507.3350572 C-233.29782874 507.33056798 -235.32470971 507.33290893 -237.35154438 507.34256035 C-240.09525026 507.35462889 -242.8377778 507.34234711 -245.5814209 507.32367706 C-246.77682889 507.33772406 -246.77682889 507.33772406 -247.99638653 507.35205483 C-251.52284967 507.30370606 -253.54931248 507.10403756 -256.42427921 504.98137331 C-258.54405492 501.94624438 -258.43479604 499.76292729 -258.43530273 496.07983398 C-258.44070572 495.41107239 -258.4461087 494.74231079 -258.45167542 494.05328369 C-258.46415481 491.84887052 -258.44768079 489.64576538 -258.4296875 487.44140625 C-258.42984249 485.90731233 -258.43133148 484.37321802 -258.43409729 482.83912659 C-258.43548085 479.62703095 -258.42292959 476.41538208 -258.40014648 473.20336914 C-258.37173752 469.08498632 -258.37450598 464.96734438 -258.3872366 460.84890652 C-258.39418869 457.68245609 -258.38641037 454.51617715 -258.37397957 451.34974861 C-258.36946215 449.83109253 -258.36913081 448.31241806 -258.37304497 446.7937603 C-258.37595333 444.67258777 -258.35947114 442.55243959 -258.33764648 440.43139648 C-258.3322435 439.22434555 -258.32684052 438.01729462 -258.3212738 436.77366638 C-257.93359375 433.8203125 -257.93359375 433.8203125 -256.59584045 431.96961975 C-253.43315476 429.78288201 -250.62778171 429.6976108 -246.91137695 429.70678711 C-245.8905452 429.70686264 -244.86971344 429.70693817 -243.81794739 429.70701599 C-242.7178685 429.71217728 -241.61778961 429.71733856 -240.484375 429.72265625 C-238.79274483 429.72477867 -238.79274483 429.72477867 -237.06694031 429.72694397 C-233.45996463 429.7325478 -229.85305071 429.74510097 -226.24609375 429.7578125 C-223.80273527 429.76282701 -221.35937582 429.76739 -218.91601562 429.77148438 C-212.92185388 429.78251847 -206.92772823 429.79926035 -200.93359375 429.8203125 C-200.93803497 428.77905716 -200.9424762 427.73780182 -200.947052 426.66499329 C-200.98759999 416.85089591 -201.01757909 407.03681554 -201.03721809 397.22265339 C-201.04765411 392.17712728 -201.06181007 387.13166882 -201.08447266 382.08618164 C-201.1062074 377.21677676 -201.11816375 372.34743694 -201.12334824 367.47798729 C-201.12704285 365.62045454 -201.13425746 363.76292535 -201.14505386 361.9054203 C-201.15957711 359.30316098 -201.16157134 356.7011703 -201.16064453 354.09887695 C-201.16783508 353.3313913 -201.17502563 352.56390564 -201.18243408 351.77316284 C-201.16669808 347.68846097 -200.85341303 344.45934689 -198.93359375 340.8203125 C-196.27385805 338.65312044 -194.84521779 338.82496387 -191.37109375 339.0078125 C-186.73564195 340.10346474 -186.73564195 340.10346474 -184.93359375 342.8203125 C-184.65298076 345.66998888 -184.55474084 348.29849473 -184.59301758 351.1472168 C-184.59236046 352.42071487 -184.59236046 352.42071487 -184.59169006 353.71994019 C-184.5937814 356.52837051 -184.61712861 359.33620511 -184.640625 362.14453125 C-184.64621973 364.09080174 -184.65049041 366.03707644 -184.65348816 367.98335266 C-184.66494662 373.107754 -184.69442246 378.23190055 -184.7276001 383.35620117 C-184.75827938 388.58443759 -184.77198892 393.81271515 -184.78710938 399.04101562 C-184.81929115 409.30089324 -184.87049965 419.56058169 -184.93359375 429.8203125 C-183.76441406 429.78550781 -182.59523438 429.75070312 -181.390625 429.71484375 C-179.84246234 429.68669534 -178.29428407 429.65939631 -176.74609375 429.6328125 C-175.59270508 429.59510742 -175.59270508 429.59510742 -174.41601562 429.55664062 C-169.74824864 429.49654062 -166.72566498 429.77929227 -162.93359375 432.8203125 C-161.63695453 435.41359093 -161.81355806 437.28439318 -161.82006836 440.18798828 C-161.82018166 441.86950485 -161.82018166 441.86950485 -161.82029724 443.58499146 C-161.82545853 444.79960052 -161.83061981 446.01420959 -161.8359375 447.265625 C-161.83735245 448.50577362 -161.8387674 449.74592224 -161.84022522 451.02365112 C-161.84488279 454.32149383 -161.85386936 457.61928796 -161.8649292 460.91711426 C-161.87515644 464.28197637 -161.87972566 467.64684558 -161.88476562 471.01171875 C-161.89581106 477.61460243 -161.91256128 484.21745349 -161.93359375 490.8203125 C-159.29359375 490.8203125 -156.65359375 490.8203125 -153.93359375 490.8203125 C-153.93728092 489.72625469 -153.94096809 488.63219688 -153.944767 487.50498581 C-154.03349042 460.90745869 -154.09926118 434.30995072 -154.14084244 407.71230698 C-154.16148432 394.84998064 -154.18963605 381.98775195 -154.23535156 369.12548828 C-154.27516946 357.91722018 -154.30101472 346.70902279 -154.30994773 335.50068593 C-154.31517101 329.56368971 -154.32748151 323.62689579 -154.35651398 317.68996429 C-154.38360323 312.10531751 -154.39205184 306.52095693 -154.38602448 300.93625069 C-154.38712762 298.88351704 -154.3951199 296.83077411 -154.41041565 294.77809715 C-154.43024191 291.98092131 -154.42555986 289.18483396 -154.41461182 286.38763428 C-154.42626318 285.57051366 -154.43791455 284.75339303 -154.44991899 283.91151118 C-154.41245405 280.38372364 -154.24219786 278.24904149 -152.15353012 275.34735489 C-148.3785137 272.75060925 -145.20660689 272.69481283 -140.70277405 272.68659973 C-139.64431778 272.68233475 -138.58586151 272.67806976 -137.49533081 272.67367554 C-136.33937408 272.67412872 -135.18341736 272.67458191 -133.99243164 272.67504883 C-132.77092911 272.67169022 -131.54942657 272.6683316 -130.29090881 272.66487122 C-126.94379025 272.65699959 -123.59673373 272.6536937 -120.24961019 272.65305543 C-118.1576856 272.65234424 -116.0657675 272.65020863 -113.97384453 272.64755821 C-106.67372093 272.6383099 -99.37361559 272.63422275 -92.07348633 272.63500977 C-85.27179143 272.63561068 -78.4701758 272.62505481 -71.66850096 272.6092661 C-65.82549926 272.59618671 -59.98252346 272.59082602 -54.13950723 272.59146518 C-50.65119955 272.59172001 -47.16296235 272.58887666 -43.67466927 272.57828712 C-39.78446483 272.56679951 -35.89436904 272.57135542 -32.00415039 272.57739258 C-30.27325165 272.56896332 -30.27325165 272.56896332 -28.50738525 272.56036377 C-26.91547112 272.5666555 -26.91547112 272.5666555 -25.29139709 272.57307434 C-23.91235246 272.57225719 -23.91235246 272.57225719 -22.50544834 272.57142353 C-18.40597619 272.96814635 -15.86724146 273.73184221 -13.14364147 276.90708447 C-11.5397033 280.76861617 -11.528287 284.32133658 -11.5728302 288.43196106 C-11.57026693 289.29786273 -11.56770365 290.1637644 -11.5650627 291.05590552 C-11.5601225 293.95648665 -11.57662171 296.85654692 -11.59301758 299.75708008 C-11.5938638 301.83660876 -11.59338881 303.91613834 -11.59169006 305.9956665 C-11.59082849 311.64196295 -11.60848059 317.28806862 -11.62941194 322.93432069 C-11.64815168 328.8346779 -11.64992705 334.73503937 -11.65348816 340.63542175 C-11.66281656 351.80903515 -11.68744116 362.98256061 -11.71753663 374.15613526 C-11.75105585 386.87667397 -11.76756042 399.59721685 -11.78262293 412.31778872 C-11.81398997 438.48534708 -11.86736949 464.65282116 -11.93359375 490.8203125 C-5.33359375 490.8203125 1.26640625 490.8203125 8.06640625 490.8203125 C8.04545898 489.1803833 8.02451172 487.5404541 8.00292969 485.85083008 C7.93052595 479.76612073 7.88460436 473.68144947 7.84667969 467.59643555 C7.82656527 464.96290687 7.79927021 462.32942284 7.76464844 459.69604492 C7.71612537 455.91053243 7.69343513 452.1256105 7.67578125 448.33984375 C7.64481354 446.5739666 7.64481354 446.5739666 7.61322021 444.77241516 C7.61098227 436.61863612 7.61098227 436.61863612 9.90332031 432.6003418 C13.69308742 429.48169711 16.98741738 429.6964793 21.72917175 429.70005798 C22.7498212 429.69877635 22.7498212 429.69877635 23.79108983 429.69746882 C26.07584105 429.69581897 28.36051919 429.7013273 30.64526367 429.70678711 C32.28115334 429.70706911 33.91704314 429.70691099 35.55293274 429.7063446 C39.99890533 429.70605715 44.44485106 429.71194556 48.8908174 429.71891856 C53.53530857 429.72516067 58.17980033 429.72575658 62.82429504 429.72694397 C71.62152737 429.73005475 80.41874729 429.73826474 89.21597415 429.74829346 C99.23036177 429.75946244 109.24474998 429.76496703 119.25914228 429.76998889 C139.86157053 429.78044755 160.46398761 429.79804211 181.06640625 429.8203125 C181.23976723 406.31496458 181.33834947 382.81032081 181.34881306 359.3043108 C181.3554003 348.389009 181.38611418 337.47478673 181.47436523 326.55981445 C181.5512571 317.04208648 181.58212751 307.52548941 181.55858964 298.00746077 C181.54771897 292.97087129 181.55931053 287.93666933 181.62609291 282.9004612 C181.68834388 278.15099562 181.68863616 273.40539275 181.64320755 268.65577507 C181.63720836 266.92121578 181.65305888 265.18640792 181.69345284 263.45230865 C181.88141834 254.85389972 181.59474101 248.60284073 175.49861068 242.1103341 C172.80341302 239.52463207 169.98668821 237.14563502 167.06640625 234.8203125 C165.750718 233.67814145 164.43707789 232.53358496 163.12890625 231.3828125 C162.52175781 230.86847656 161.91460937 230.35414063 161.2890625 229.82421875 C158.09346186 226.94312362 155.0922995 223.87789465 152.06640625 220.8203125 C146.72175431 215.40536382 146.72175431 215.40536382 141.06640625 210.3203125 C136.5070289 206.46842474 132.39393761 202.17219042 128.19921875 197.93359375 C125.23699782 194.95230273 122.27933027 192.03467934 119.06640625 189.3203125 C114.5070289 185.46842474 110.39393761 181.17219042 106.19921875 176.93359375 C103.23699782 173.95230273 100.27933027 171.03467934 97.06640625 168.3203125 C92.5070289 164.46842474 88.39393761 160.17219042 84.19921875 155.93359375 C81.23699782 152.95230273 78.27933027 150.03467934 75.06640625 147.3203125 C70.5070289 143.46842474 66.39393761 139.17219042 62.19921875 134.93359375 C59.23699782 131.95230273 56.27933027 129.03467934 53.06640625 126.3203125 C49.17925864 123.03634296 45.64286208 119.43417406 42.06640625 115.8203125 C36.75439065 110.43492971 36.75439065 110.43492971 31.12890625 105.3828125 C26.32452713 101.32555065 21.99768554 96.77546003 17.5769043 92.3112793 C13.72780471 88.43893109 9.82510722 84.70948777 5.65234375 81.18359375 C3.32590688 79.18377487 1.20120553 77.02182426 -0.93359375 74.8203125 C-4.42013851 76.3044498 -6.57550447 78.28245302 -9.18359375 81.0078125 C-11.89151027 83.78145515 -14.59176985 86.45136665 -17.55859375 88.9453125 C-21.73741779 92.51996921 -25.56697199 96.41589847 -29.43359375 100.3203125 C-33.75686939 104.68563824 -38.08036231 108.92645231 -42.78125 112.88671875 C-46.61317608 116.32919318 -50.17861291 120.04697652 -53.80102539 123.70727539 C-57.32837753 127.25733885 -60.92241191 130.6212106 -64.74609375 133.8515625 C-67.93180126 136.71869926 -70.91944133 139.77463129 -73.93359375 142.8203125 C-78.07867706 147.00875442 -82.24275734 151.04701967 -86.74609375 154.8515625 C-89.93180126 157.71869926 -92.91944133 160.77463129 -95.93359375 163.8203125 C-100.07867706 168.00875442 -104.24275734 172.04701967 -108.74609375 175.8515625 C-111.93180126 178.71869926 -114.91944133 181.77463129 -117.93359375 184.8203125 C-122.07867706 189.00875442 -126.24275734 193.04701967 -130.74609375 196.8515625 C-133.93180126 199.71869926 -136.91944133 202.77463129 -139.93359375 205.8203125 C-144.07867706 210.00875442 -148.24275734 214.04701967 -152.74609375 217.8515625 C-156.58195322 221.30383602 -160.15644901 225.02442398 -163.78540039 228.69165039 C-166.89652925 231.82294048 -170.02144392 234.87828896 -173.37109375 237.7578125 C-174.2011795 238.48475311 -174.2011795 238.48475311 -175.04803467 239.22637939 C-176.93359375 240.8203125 -176.93359375 240.8203125 -178.784729 242.10736084 C-182.14916355 244.76412225 -183.73173978 246.78452514 -184.56359863 251.05310059 C-184.79099662 255.14294171 -184.79846287 259.1803609 -184.73046875 263.2734375 C-184.732238 264.78083078 -184.73752291 266.28822365 -184.74615479 267.79559326 C-184.76135926 271.7469818 -184.73763689 275.69708515 -184.70294189 279.64831543 C-184.65231746 285.98547194 -184.65409139 292.32258103 -184.66934967 298.65987396 C-184.66798565 300.87104361 -184.64564193 303.08128241 -184.62078857 305.29229736 C-184.61734544 306.64440775 -184.61448568 307.9965198 -184.61230469 309.34863281 C-184.60229431 310.52887024 -184.59228394 311.70910767 -184.58197021 312.92510986 C-184.93359375 315.8203125 -184.93359375 315.8203125 -186.24273682 317.66619873 C-189.09789517 319.61501977 -191.52476046 319.76153951 -194.93359375 319.8203125 C-198.36101004 317.73405911 -199.65840412 316.6458814 -200.93359375 312.8203125 C-201.04807852 311.24070091 -201.10982307 309.65697398 -201.13891602 308.07348633 C-201.16883385 306.63233208 -201.16883385 306.63233208 -201.19935608 305.1620636 C-201.21606857 304.12760605 -201.23278107 303.0931485 -201.25 302.02734375 C-201.2707811 300.96617844 -201.29156219 299.90501312 -201.31297302 298.81169128 C-201.37840613 295.41879813 -201.43732468 292.025827 -201.49609375 288.6328125 C-201.53928489 286.33397628 -201.58289937 284.03514797 -201.62695312 281.73632812 C-201.73408115 276.0977389 -201.83585926 270.45907194 -201.93359375 264.8203125 C-202.62066406 265.51898438 -203.30773437 266.21765625 -204.015625 266.9375 C-204.91667969 267.84757812 -205.81773437 268.75765625 -206.74609375 269.6953125 C-208.08607422 271.05269531 -208.08607422 271.05269531 -209.453125 272.4375 C-212.47580917 275.34118086 -214.28809201 276.69351751 -218.43359375 277.5078125 C-224.40740845 277.32316732 -228.14288448 273.07038911 -232.35498047 269.24121094 C-234.62752383 267.19571103 -236.962548 265.22641872 -239.29370117 263.24829102 C-256.88583334 248.29791657 -256.88583334 248.29791657 -257.30859375 244.0703125 C-257.45703125 242.0234375 -257.45703125 242.0234375 -256.93359375 239.8203125 C-255.32436192 238.01669821 -253.70649359 236.45150631 -251.93359375 234.8203125 C-250.54655546 233.43258654 -249.16558563 232.03878186 -247.7890625 230.640625 C-246.23313476 229.07545935 -244.67714355 227.5103568 -243.12109375 225.9453125 C-242.35216797 225.16800781 -241.58324219 224.39070312 -240.79101562 223.58984375 C-236.59145792 219.37256639 -232.31012794 215.34428889 -227.7980957 211.46435547 C-224.87204464 208.88428112 -222.15865596 206.10928606 -219.43359375 203.3203125 C-216.04579715 199.88993254 -212.68137286 196.49746775 -208.99609375 193.3828125 C-205.09089419 190.07458613 -201.53078207 186.45517757 -197.93359375 182.8203125 C-193.76712681 178.61020621 -189.58073973 174.5479004 -185.0546875 170.72265625 C-181.45621914 167.49530065 -178.10835845 164.01406277 -174.71069336 160.57788086 C-171.2930356 157.13643085 -167.79081166 153.89422599 -164.08984375 150.7578125 C-161.08744692 148.06000665 -158.27098558 145.18987431 -155.43359375 142.3203125 C-151.44582544 138.2873314 -147.4186447 134.42628788 -143.08984375 130.7578125 C-140.08744692 128.06000665 -137.27098558 125.18987431 -134.43359375 122.3203125 C-130.44582544 118.2873314 -126.4186447 114.42628788 -122.08984375 110.7578125 C-119.08744692 108.06000665 -116.27098558 105.18987431 -113.43359375 102.3203125 C-109.44582544 98.2873314 -105.4186447 94.42628788 -101.08984375 90.7578125 C-98.08744692 88.06000665 -95.27098558 85.18987431 -92.43359375 82.3203125 C-88.44582544 78.2873314 -84.4186447 74.42628788 -80.08984375 70.7578125 C-77.08744692 68.06000665 -74.27098558 65.18987431 -71.43359375 62.3203125 C-67.44582544 58.2873314 -63.4186447 54.42628788 -59.08984375 50.7578125 C-56.08744692 48.06000665 -53.27098558 45.18987431 -50.43359375 42.3203125 C-46.44582544 38.2873314 -42.4186447 34.42628788 -38.08984375 30.7578125 C-35.0874316 28.05999288 -32.27118795 25.18969484 -29.43359375 22.3203125 C-25.35686361 18.20235048 -21.27389464 14.17365232 -16.82421875 10.453125 C-15.41028175 9.23199759 -14.05386762 7.94370597 -12.73046875 6.625 C-5.2867884 -0.64144986 -5.2867884 -0.64144986 0 0 Z M-4.31884766 20.99438477 C-4.84397949 21.53635498 -5.36911133 22.0783252 -5.91015625 22.63671875 C-6.49418213 23.23234619 -7.07820801 23.82797363 -7.67993164 24.44165039 C-8.29989014 25.08223389 -8.91984863 25.72281738 -9.55859375 26.3828125 C-17.31046857 34.27579084 -17.31046857 34.27579084 -20.99609375 37.3828125 C-25.3026292 41.02252956 -29.19547361 45.05682045 -33.15649414 49.06274414 C-36.5741519 52.50419415 -40.07637584 55.74639901 -43.77734375 58.8828125 C-46.77974058 61.58061835 -49.59620192 64.45075069 -52.43359375 67.3203125 C-56.42136206 71.3532936 -60.4485428 75.21433712 -64.77734375 78.8828125 C-67.77974058 81.58061835 -70.59620192 84.45075069 -73.43359375 87.3203125 C-77.42136206 91.3532936 -81.4485428 95.21433712 -85.77734375 98.8828125 C-88.77974058 101.58061835 -91.59620192 104.45075069 -94.43359375 107.3203125 C-98.42136206 111.3532936 -102.4485428 115.21433712 -106.77734375 118.8828125 C-109.77974058 121.58061835 -112.59620192 124.45075069 -115.43359375 127.3203125 C-119.42136206 131.3532936 -123.4485428 135.21433712 -127.77734375 138.8828125 C-130.77974058 141.58061835 -133.59620192 144.45075069 -136.43359375 147.3203125 C-140.42136206 151.3532936 -144.4485428 155.21433712 -148.77734375 158.8828125 C-151.77974058 161.58061835 -154.59620192 164.45075069 -157.43359375 167.3203125 C-161.42136206 171.3532936 -165.4485428 175.21433712 -169.77734375 178.8828125 C-172.77974058 181.58061835 -175.59620192 184.45075069 -178.43359375 187.3203125 C-182.42136206 191.3532936 -186.4485428 195.21433712 -190.77734375 198.8828125 C-193.77974058 201.58061835 -196.59620192 204.45075069 -199.43359375 207.3203125 C-203.42136206 211.3532936 -207.4485428 215.21433712 -211.77734375 218.8828125 C-215.37709282 222.11736964 -218.732792 225.59775261 -222.13208008 229.04052734 C-225.75919535 232.69689783 -229.47253059 236.16941233 -233.4453125 239.453125 C-235.18929847 240.9465922 -235.18929847 240.9465922 -236.93359375 243.8203125 C-234.52703895 245.97771283 -232.10674396 248.1190801 -229.68359375 250.2578125 C-229.00167969 250.86947266 -228.31976563 251.48113281 -227.6171875 252.11132812 C-226.95332031 252.69462891 -226.28945312 253.27792969 -225.60546875 253.87890625 C-224.6942627 254.68799438 -224.6942627 254.68799438 -223.76464844 255.51342773 C-221.67980522 257.00144984 -220.51081334 257.73962098 -217.93359375 257.8203125 C-215.63351241 256.19953645 -215.63351241 256.19953645 -213.44921875 253.7890625 C-212.59585938 252.91507813 -211.7425 252.04109375 -210.86328125 251.140625 C-209.97898437 250.20992187 -209.0946875 249.27921875 -208.18359375 248.3203125 C-206.44121775 246.51589343 -204.69645872 244.71377214 -202.94921875 242.9140625 C-201.67594727 241.60115234 -201.67594727 241.60115234 -200.37695312 240.26171875 C-197.62511176 237.5120771 -194.74933808 234.9710661 -191.79199219 232.44726562 C-188.68414751 229.72647254 -185.82163553 226.77042758 -182.93359375 223.8203125 C-178.79095627 219.62960644 -174.62419448 215.59340622 -170.12109375 211.7890625 C-166.93538624 208.92192574 -163.94774617 205.86599371 -160.93359375 202.8203125 C-156.78851044 198.63187058 -152.62443016 194.59360533 -148.12109375 190.7890625 C-144.93538607 187.92192558 -141.9477483 184.86599174 -138.93359375 181.8203125 C-131.65255086 174.46319759 -131.65255086 174.46319759 -127.99609375 171.3828125 C-123.90738224 167.92992654 -120.19624677 164.11954052 -116.43359375 160.3203125 C-112.1103072 155.9550013 -107.78682544 151.71417289 -103.0859375 147.75390625 C-99.25401142 144.31143182 -95.68857459 140.59364848 -92.06616211 136.93334961 C-88.53880997 133.38328615 -84.94477559 130.0194144 -81.12109375 126.7890625 C-77.93538624 123.92192574 -74.94774617 120.86599371 -71.93359375 117.8203125 C-67.78851044 113.63187058 -63.62443016 109.59360533 -59.12109375 105.7890625 C-55.93538624 102.92192574 -52.94774617 99.86599371 -49.93359375 96.8203125 C-45.78851044 92.63187058 -41.62443016 88.59360533 -37.12109375 84.7890625 C-33.28600212 81.33748003 -29.71218681 77.6176869 -26.08398438 73.95117188 C-22.38327928 70.2264622 -18.62371117 66.65238524 -14.59375 63.28125 C-12.87697086 61.77048436 -11.39892246 60.1446729 -9.87109375 58.4453125 C-6.39038021 55.33488763 -4.57038202 54.73600726 0.06640625 54.8203125 C4.03587202 56.80504538 6.81945331 59.38729522 9.87890625 62.5703125 C12.77386738 65.5290393 15.6516491 68.40238819 18.81640625 71.0703125 C22.77617927 74.45060654 26.40708728 78.1225351 30.06640625 81.8203125 C35.41105494 87.23526517 35.41105494 87.23526517 41.06640625 92.3203125 C45.6257836 96.17220026 49.73887489 100.46843458 53.93359375 104.70703125 C56.89581468 107.68832227 59.85348223 110.60594566 63.06640625 113.3203125 C67.6257836 117.17220026 71.73887489 121.46843458 75.93359375 125.70703125 C78.89581468 128.68832227 81.85348223 131.60594566 85.06640625 134.3203125 C88.95355386 137.60428204 92.48995042 141.20645094 96.06640625 144.8203125 C101.37842185 150.20569529 101.37842185 150.20569529 107.00390625 155.2578125 C111.81536987 159.32105715 116.1481728 163.87857253 120.57568359 168.34912109 C124.23471512 172.0300794 127.94371817 175.54189913 131.9140625 178.88671875 C135.74598858 182.32919318 139.31142541 186.04697652 142.93383789 189.70727539 C145.89597607 192.68848568 148.85357059 195.6060203 152.06640625 198.3203125 C156.6257836 202.17220026 160.73887489 206.46843458 164.93359375 210.70703125 C167.89581468 213.68832227 170.85348223 216.60594566 174.06640625 219.3203125 C178.6257836 223.17220026 182.73887489 227.46843458 186.93359375 231.70703125 C190.451148 235.2472307 194.03354288 238.60396952 197.84765625 241.82421875 C203.48923032 246.89964894 208.73583947 252.42236496 214.06640625 257.8203125 C219.14831538 256.28505123 222.49118511 253.14661592 226.37890625 249.6953125 C227.02408203 249.13199219 227.66925781 248.56867188 228.33398438 247.98828125 C229.91666926 246.60489742 231.49225766 245.21340205 233.06640625 243.8203125 C229.41818059 239.40433428 225.66889344 235.38623562 221.37890625 231.5703125 C217.23397579 227.84637184 213.23232442 224.03524772 209.31640625 220.0703125 C206.35686243 217.07704169 203.39945584 214.17014123 200.19140625 211.4453125 C196.45097403 208.25901838 193.01836857 204.81151281 189.56640625 201.3203125 C186.15570566 197.87093087 182.77019115 194.45911327 179.06640625 191.3203125 C174.74221919 187.6557472 170.82558334 183.60510384 166.84375 179.578125 C163.99999048 176.71457133 161.14765541 173.9315406 158.06640625 171.3203125 C153.74221919 167.6557472 149.82558334 163.60510384 145.84375 159.578125 C142.99999048 156.71457133 140.14765541 153.9315406 137.06640625 151.3203125 C132.74221919 147.6557472 128.82558334 143.60510384 124.84375 139.578125 C121.99999048 136.71457133 119.14765541 133.9315406 116.06640625 131.3203125 C111.74221919 127.6557472 107.82558334 123.60510384 103.84375 119.578125 C100.99999048 116.71457133 98.14765541 113.9315406 95.06640625 111.3203125 C90.74221919 107.6557472 86.82558334 103.60510384 82.84375 99.578125 C79.99999048 96.71457133 77.14765541 93.9315406 74.06640625 91.3203125 C69.74221919 87.6557472 65.82558334 83.60510384 61.84375 79.578125 C58.99999048 76.71457133 56.14765541 73.9315406 53.06640625 71.3203125 C48.74221919 67.6557472 44.82558334 63.60510384 40.84375 59.578125 C37.99999048 56.71457133 35.14765541 53.9315406 32.06640625 51.3203125 C27.74615985 47.65908674 23.83279818 43.61256541 19.85473633 39.58911133 C16.33440354 36.04415006 12.73176605 32.67912503 8.9140625 29.453125 C6.02671639 26.90151681 3.38692842 24.11297223 0.73046875 21.32421875 C-1.32747947 19.46433597 -2.15391588 19.15949634 -4.31884766 20.99438477 Z M-137.93359375 289.8203125 C-137.93359375 356.1503125 -137.93359375 422.4803125 -137.93359375 490.8203125 C-101.63359375 490.8203125 -65.33359375 490.8203125 -27.93359375 490.8203125 C-27.93359375 424.4903125 -27.93359375 358.1603125 -27.93359375 289.8203125 C-64.23359375 289.8203125 -100.53359375 289.8203125 -137.93359375 289.8203125 Z M-241.93359375 445.8203125 C-241.93359375 460.6703125 -241.93359375 475.5203125 -241.93359375 490.8203125 C-220.81359375 490.8203125 -199.69359375 490.8203125 -177.93359375 490.8203125 C-177.93359375 475.9703125 -177.93359375 461.1203125 -177.93359375 445.8203125 C-199.05359375 445.8203125 -220.17359375 445.8203125 -241.93359375 445.8203125 Z M24.06640625 445.8203125 C24.06640625 460.6703125 24.06640625 475.5203125 24.06640625 490.8203125 C94.68640625 490.8203125 165.30640625 490.8203125 238.06640625 490.8203125 C238.06640625 475.9703125 238.06640625 461.1203125 238.06640625 445.8203125 C167.44640625 445.8203125 96.82640625 445.8203125 24.06640625 445.8203125 Z " fill="#000000" transform="translate(257.93359375,2.1796875)"/>
<path d="M0 0 C1.20984055 -0.00708481 2.41968109 -0.01416962 3.66618347 -0.02146912 C4.98528717 -0.0189917 6.30439087 -0.01651428 7.66346741 -0.01396179 C9.07317372 -0.0183112 10.48287767 -0.02349511 11.89257812 -0.02944946 C15.71490376 -0.04282588 19.53713043 -0.04341967 23.3594749 -0.04088616 C26.55281511 -0.03981557 29.74613537 -0.04470206 32.9394713 -0.04949158 C40.47411282 -0.06058199 48.00870449 -0.06102675 55.54335022 -0.05497742 C63.31131497 -0.04893658 71.07909863 -0.06125242 78.84703249 -0.08254749 C85.52149354 -0.1001708 92.195897 -0.10616371 98.87038046 -0.10290974 C102.8544832 -0.10109797 106.83845674 -0.1037225 110.82253838 -0.11762428 C114.56956045 -0.13021002 118.31630045 -0.12825166 122.06331825 -0.11521339 C124.08985251 -0.1117246 126.11639542 -0.12301997 128.14289856 -0.13478088 C129.35555893 -0.12776657 130.5682193 -0.12075226 131.81762695 -0.11352539 C132.86750762 -0.11369313 133.91738829 -0.11386087 134.99908352 -0.1140337 C138.60481148 0.34041435 140.92922158 1.27392482 143.9723053 3.26069641 C145.96166543 6.70308519 146.22427563 9.71478924 146.23300171 13.64300537 C146.24008652 14.7098053 146.24717133 15.77660522 146.25447083 16.87573242 C146.25199341 18.03587357 146.24951599 19.19601471 146.2469635 20.39131165 C146.25207443 21.62110748 146.25718536 22.85090332 146.26245117 24.1179657 C146.27395875 27.48374897 146.27642252 30.84928574 146.27388787 34.21507144 C146.2728166 37.02815751 146.27770551 39.84122097 146.28249329 42.65430218 C146.29358028 49.29240464 146.2940304 55.93045051 146.28797913 62.56855774 C146.28193872 69.40949531 146.29425377 76.25022723 146.31554919 83.09112972 C146.33317946 88.97154373 146.33916433 94.85189236 146.33591145 100.73233181 C146.33410077 104.24136484 146.3367132 107.75025115 146.35062599 111.25926018 C146.36556412 115.17315075 146.3562217 119.08678046 146.34461975 123.00068665 C146.35226349 124.15880356 146.35990723 125.31692047 146.36778259 126.51013184 C146.30235853 136.48671387 146.30235853 136.48671387 142.9723053 141.26069641 C140.24152743 142.62608534 138.07758471 142.39292647 135.0194397 142.40113831 C133.11601303 142.40970352 133.11601303 142.40970352 131.1741333 142.41844177 C129.75993357 142.41968718 128.34573373 142.42081227 126.93153381 142.42182922 C125.44843929 142.42645635 123.96534596 142.43148086 122.48225403 142.43687439 C118.44717621 142.45000907 114.41211503 142.45644522 110.37701917 142.46088505 C107.8579716 142.46381355 105.33892861 142.46791789 102.81988335 142.47238922 C94.94379464 142.48606586 87.06771636 142.49573217 79.19161659 142.49959111 C70.08940971 142.50407493 60.98735277 142.52163706 51.8851915 142.55059171 C44.85585996 142.57217914 37.8265707 142.58229379 30.79720634 142.58363223 C26.59572876 142.58468221 22.39439208 142.59063098 18.1929493 142.60845184 C14.24244414 142.62488229 10.2921866 142.62711272 6.34165955 142.61831284 C4.88999711 142.6175398 3.43832164 142.62192016 1.98669243 142.63177109 C0.00855315 142.6444101 -1.96968477 142.63685156 -3.94784546 142.62818909 C-5.61008982 142.63038893 -5.61008982 142.63038893 -7.30591488 142.63263321 C-10.0276947 142.26069641 -10.0276947 142.26069641 -11.84518528 140.92522812 C-14.1186694 137.72501142 -14.15616896 134.82620901 -14.1681366 131.03623962 C-14.17384674 129.95391556 -14.17955688 128.87159149 -14.18544006 127.75646973 C-14.18655792 126.56886551 -14.18767578 125.38126129 -14.18882751 124.15766907 C-14.19379242 122.90705185 -14.19875732 121.65643463 -14.20387268 120.36791992 C-14.21598263 116.93603751 -14.22343967 113.50421604 -14.22788334 110.07231951 C-14.23081531 107.9279698 -14.23492034 105.78362543 -14.23938751 103.63927841 C-14.25305937 96.92930521 -14.2627278 90.21934421 -14.2665894 83.50935805 C-14.27107089 75.76497193 -14.28862417 68.02076224 -14.31759 60.27642977 C-14.33920666 54.28907587 -14.34929366 48.30177161 -14.35063052 42.3143791 C-14.35167848 38.73882538 -14.35758423 35.16343758 -14.37545013 31.58792496 C-14.39499243 27.59939631 -14.39064188 23.61108823 -14.38414001 19.62251282 C-14.3933548 18.43895706 -14.40256958 17.25540131 -14.4120636 16.03598022 C-14.40649445 14.94801651 -14.40092529 13.8600528 -14.39518738 12.73912048 C-14.39665394 11.79633554 -14.3981205 10.85355061 -14.3996315 9.88219643 C-13.93941457 6.63847684 -13.04780619 4.83740596 -11.0276947 2.26069641 C-7.36213592 0.20453205 -4.15410032 0.00812558 0 0 Z M1.9723053 17.26069641 C1.9723053 24.52069641 1.9723053 31.78069641 1.9723053 39.26069641 C43.8823053 39.26069641 85.7923053 39.26069641 128.9723053 39.26069641 C128.9723053 32.00069641 128.9723053 24.74069641 128.9723053 17.26069641 C87.0623053 17.26069641 45.1523053 17.26069641 1.9723053 17.26069641 Z M1.9723053 55.26069641 C1.9723053 78.69069641 1.9723053 102.12069641 1.9723053 126.26069641 C43.8823053 126.26069641 85.7923053 126.26069641 128.9723053 126.26069641 C128.9723053 102.83069641 128.9723053 79.40069641 128.9723053 55.26069641 C87.0623053 55.26069641 45.1523053 55.26069641 1.9723053 55.26069641 Z " fill="#000000" transform="translate(280.02769470214844,274.7393035888672)"/>
<path d="M0 0 C8.18331483 7.82136052 13.37393265 17.23195131 14.234375 28.6328125 C14.45602192 42.20868662 11.17353928 53.04445999 1.9609375 63.23046875 C-7.06861509 71.87165349 -17.59174897 75.37186973 -29.96875 75.94140625 C-41.26943193 75.50514082 -51.95457751 70.76424512 -60.15625 62.97265625 C-68.66779098 53.43386032 -72.70550944 42.51278901 -72.24609375 29.72265625 C-70.93973695 16.62228942 -65.6202493 6.10188363 -55.4140625 -2.33984375 C-38.07757599 -14.52523363 -16.23081809 -13.61389271 0 0 Z M-48.96875 13.94140625 C-54.00427658 20.56709911 -56.81290216 27.49988465 -55.96875 35.94140625 C-53.10473009 46.18692077 -49.48640526 51.35215777 -40.30859375 56.70703125 C-34.72601074 59.65210008 -29.14344069 59.60995549 -22.96875 58.94140625 C-14.32307666 56.07142378 -8.51898419 50.78663761 -3.96875 42.94140625 C-0.61395193 33.71571155 -1.94958177 26.65180035 -5.96875 17.94140625 C-9.19637715 12.46248045 -14.82537037 8.30537594 -20.85546875 6.3203125 C-31.73826983 4.36905242 -41.06443205 6.0370883 -48.96875 13.94140625 Z " fill="#000000" transform="translate(284.96875,154.05859375)"/>
<path d="M0 0 C1.71316406 -0.00773437 1.71316406 -0.00773437 3.4609375 -0.015625 C4.64945313 -0.00015625 5.83796875 0.0153125 7.0625 0.03125 C8.25101563 0.01578125 9.43953125 0.0003125 10.6640625 -0.015625 C11.80617187 -0.01046875 12.94828125 -0.0053125 14.125 0 C15.16785156 0.00451172 16.21070313 0.00902344 17.28515625 0.01367188 C20.75897863 0.66104384 21.94548132 1.74425717 24.0625 4.53125 C24.5625 8.03125 24.5625 8.03125 24.0625 11.53125 C22.19541495 13.89622439 20.74188569 15.19155715 18.0625 16.53125 C14.46428538 16.79877525 10.8570459 16.76283496 7.25 16.78125 C6.25162109 16.801875 5.25324219 16.8225 4.22460938 16.84375 C-4.88893457 16.89232319 -4.88893457 16.89232319 -8.9375 13.53125 C-10.7878199 11.6809301 -10.22890132 9.10652918 -10.36328125 6.63671875 C-9.23873261 1.07587733 -5.06550236 0.02191503 0 0 Z " fill="#000000" transform="translate(196.9375,383.46875)"/>
</svg>
