<svg version="1.1" id="Layer_1" xmlns="http://www.w3.org/2000/svg" xmlns:xlink="http://www.w3.org/1999/xlink" x="0px" y="0px"
	 width="100%" viewBox="0 0 512 512" enable-background="new 0 0 512 512" xml:space="preserve">
<path fill="none" opacity="1.000000" stroke="currentColor" 
	d="
M290.000000,513.000000 
	C193.356796,513.000000 97.213585,513.000000 1.035192,513.000000 
	C1.035192,342.398438 1.035192,171.796860 1.035192,1.097646 
	C171.559891,1.097646 342.119843,1.097646 512.839905,1.097646 
	C512.839905,171.666550 512.839905,342.333252 512.839905,513.000000 
	C438.796844,513.000000 364.648407,513.000000 290.000000,513.000000 
M150.910538,214.212173 
	C154.171417,214.212173 157.432297,214.212173 161.003326,214.212173 
	C161.003326,212.097992 161.003326,210.458740 161.003326,208.819473 
	C161.003448,186.043549 160.796295,163.264679 161.120377,140.493362 
	C161.228317,132.909073 162.076218,125.211174 163.663147,117.795753 
	C168.125015,96.946198 179.422287,80.047020 195.802979,65.771416 
	C216.974915,48.445404 241.365829,40.966476 268.329163,44.444397 
	C318.397430,50.902546 352.912079,90.888504 352.991119,141.312042 
	C353.026337,163.777039 352.997131,186.242126 352.997223,208.707184 
	C352.997253,210.485474 352.997253,212.263779 352.997253,214.017899 
	C357.049713,214.017899 360.523132,214.017899 364.908478,214.224304 
	C367.860291,214.224304 370.812103,214.224304 374.059967,214.224304 
	C374.139282,212.917084 374.247711,211.963196 374.247620,211.009308 
	C374.245789,186.894989 374.649506,162.769897 374.026337,138.671402 
	C373.758392,128.310196 372.517395,117.675812 369.706787,107.734276 
	C361.066254,77.171394 342.863983,53.650150 314.607025,37.364342 
	C299.389008,29.035807 283.212433,24.117851 265.846558,22.725876 
	C199.546387,17.411531 141.328613,69.504387 139.917099,135.994385 
	C139.383728,161.119766 139.771927,186.264816 139.770599,211.400909 
	C139.770554,212.321808 140.094498,213.242722 140.235931,213.995834 
	C143.700104,213.995834 146.850906,213.995834 150.910538,214.212173 
M406.208954,480.085815 
	C406.222321,414.635162 406.236206,349.184540 406.248566,283.733887 
	C406.250854,271.742889 406.197327,259.751587 406.272522,247.761078 
	C406.299347,243.482819 405.354034,239.483902 401.378235,237.568146 
	C398.681122,236.268555 395.338531,235.824661 392.283813,235.821548 
	C306.181915,235.733765 220.079895,235.749588 133.977905,235.761475 
	C132.320557,235.761703 130.663239,235.918442 128.094177,235.788437 
	C126.594841,235.775314 125.095505,235.751633 123.596161,235.750687 
	C110.331718,235.742340 107.749664,238.288239 107.749504,251.382843 
	C107.748596,326.357208 107.748566,401.331573 107.749519,476.305939 
	C107.749672,488.739471 110.713264,491.751770 122.949455,491.751923 
	C212.418869,491.752991 301.888275,491.754395 391.357697,491.740143 
	C393.349823,491.739838 395.380493,491.768982 397.326752,491.416992 
	C402.855164,490.417145 405.643585,486.952972 406.208954,480.085815 
z"/>
<path fill="#FFCC66" opacity="1.000000" stroke="none" 
	d="
M129.005905,236.002167 
	C130.663239,235.918442 132.320557,235.761703 133.977905,235.761475 
	C220.079895,235.749588 306.181915,235.733765 392.283813,235.821548 
	C395.338531,235.824661 398.681122,236.268555 401.378235,237.568146 
	C405.354034,239.483902 406.299347,243.482819 406.272522,247.761078 
	C406.197327,259.751587 406.250854,271.742889 406.248566,283.733887 
	C406.236206,349.184540 406.222321,414.635162 405.627563,480.542969 
	C387.165710,480.280792 369.182068,480.517853 351.430542,478.603119 
	C328.609070,476.141541 306.512238,469.918884 285.461487,460.567352 
	C277.784454,457.156921 270.470123,452.930084 263.452515,448.991150 
	C268.076782,448.856537 272.241333,448.881134 276.400513,448.742737 
	C290.641968,448.269012 299.577423,438.327087 298.177216,424.181000 
	C296.587585,408.121887 294.778015,392.083130 292.886261,376.056519 
	C292.520416,372.957245 293.306030,370.947144 295.500153,368.644226 
	C308.851624,354.630432 313.834869,337.970184 309.506317,319.037323 
	C304.417999,296.781219 285.595398,280.395660 263.271545,278.116730 
	C240.770187,275.819702 219.207809,287.559296 209.284241,307.509949 
	C199.176178,327.831482 202.972519,351.840302 218.833771,368.531067 
	C219.988403,369.746094 221.463745,371.580627 221.314285,372.968109 
	C219.765945,387.341431 217.914246,401.682037 215.827087,415.895874 
	C213.797882,414.465881 211.864471,413.382446 210.415924,411.842834 
	C202.118927,403.024078 193.495010,394.461700 185.801331,385.136383 
	C165.053070,359.987915 150.211868,331.523743 140.404388,300.487579 
	C133.780167,279.524902 130.581299,257.890961 129.005905,236.002167 
z"/>
<path fill="#FEB955" opacity="1.000000" stroke="none" 
	d="
M128.550049,235.895294 
	C130.581299,257.890961 133.780167,279.524902 140.404388,300.487579 
	C150.211868,331.523743 165.053070,359.987915 185.801331,385.136383 
	C193.495010,394.461700 202.118927,403.024078 210.415924,411.842834 
	C211.864471,413.382446 213.797882,414.465881 215.898376,416.356873 
	C216.147217,420.449127 215.868591,423.945282 215.887939,427.439789 
	C215.950684,438.779327 222.746933,446.973114 234.069901,448.078125 
	C243.651245,449.013123 253.345840,448.787598 262.990326,449.075684 
	C270.470123,452.930084 277.784454,457.156921 285.461487,460.567352 
	C306.512238,469.918884 328.609070,476.141541 351.430542,478.603119 
	C369.182068,480.517853 387.165710,480.280792 405.513611,480.999420 
	C405.643585,486.952972 402.855164,490.417145 397.326752,491.416992 
	C395.380493,491.768982 393.349823,491.739838 391.357697,491.740143 
	C301.888275,491.754395 212.418869,491.752991 122.949455,491.751923 
	C110.713264,491.751770 107.749672,488.739471 107.749519,476.305939 
	C107.748566,401.331573 107.748596,326.357208 107.749504,251.382843 
	C107.749664,238.288239 110.331718,235.742340 123.596161,235.750687 
	C125.095505,235.751633 126.594841,235.775314 128.550049,235.895294 
z"/>
<path fill="#C4C2D6" opacity="1.000000" stroke="none" 
	d="
M363.996552,214.017899 
	C360.523132,214.017899 357.049713,214.017899 352.997253,214.017899 
	C352.997253,212.263779 352.997253,210.485474 352.997223,208.707184 
	C352.997131,186.242126 353.026337,163.777039 352.991119,141.312042 
	C352.912079,90.888504 318.397430,50.902546 268.329163,44.444397 
	C241.365829,40.966476 216.974915,48.445404 195.104218,65.895248 
	C188.528442,69.923317 181.942368,73.080742 176.902054,77.866241 
	C158.895813,94.962135 150.214432,116.379425 150.041580,141.141006 
	C149.872070,165.424866 150.002762,189.710800 150.001709,213.995834 
	C146.850906,213.995834 143.700104,213.995834 140.235931,213.995834 
	C140.094498,213.242722 139.770554,212.321808 139.770599,211.400909 
	C139.771927,186.264816 139.383728,161.119766 139.917099,135.994385 
	C141.328613,69.504387 199.546387,17.411531 265.846558,22.725876 
	C283.212433,24.117851 299.389008,29.035807 314.854309,37.994659 
	C315.839050,39.478054 316.486023,40.434776 317.327240,41.168922 
	C334.948792,56.547867 348.390778,74.749237 356.240082,97.017334 
	C361.738678,112.616486 363.628632,128.727219 363.889160,145.036865 
	C364.256439,168.025253 363.991302,191.023727 363.996552,214.017899 
z"/>
<path fill="#D8D5E3" opacity="1.000000" stroke="none" 
	d="
M364.452515,214.121094 
	C363.991302,191.023727 364.256439,168.025253 363.889160,145.036865 
	C363.628632,128.727219 361.738678,112.616486 356.240082,97.017334 
	C348.390778,74.749237 334.948792,56.547867 317.327240,41.168922 
	C316.486023,40.434776 315.839050,39.478054 315.045135,38.282490 
	C342.863983,53.650150 361.066254,77.171394 369.706787,107.734276 
	C372.517395,117.675812 373.758392,128.310196 374.026337,138.671402 
	C374.649506,162.769897 374.245789,186.894989 374.247620,211.009308 
	C374.247711,211.963196 374.139282,212.917084 374.059967,214.224304 
	C370.812103,214.224304 367.860291,214.224304 364.452515,214.121094 
z"/>
<path fill="#D8D5E3" opacity="1.000000" stroke="none" 
	d="
M150.456116,214.104004 
	C150.002762,189.710800 149.872070,165.424866 150.041580,141.141006 
	C150.214432,116.379425 158.895813,94.962135 176.902054,77.866241 
	C181.942368,73.080742 188.528442,69.923317 194.790115,65.987091 
	C179.422287,80.047020 168.125015,96.946198 163.663147,117.795753 
	C162.076218,125.211174 161.228317,132.909073 161.120377,140.493362 
	C160.796295,163.264679 161.003448,186.043549 161.003326,208.819473 
	C161.003326,210.458740 161.003326,212.097992 161.003326,214.212173 
	C157.432297,214.212173 154.171417,214.212173 150.456116,214.104004 
z"/>
<path fill="#020201" opacity="1.000000" stroke="none" 
	d="
M263.452515,448.991150 
	C253.345840,448.787598 243.651245,449.013123 234.069901,448.078125 
	C222.746933,446.973114 215.950684,438.779327 215.887939,427.439789 
	C215.868591,423.945282 216.147217,420.449127 216.218140,416.492737 
	C217.914246,401.682037 219.765945,387.341431 221.314285,372.968109 
	C221.463745,371.580627 219.988403,369.746094 218.833771,368.531067 
	C202.972519,351.840302 199.176178,327.831482 209.284241,307.509949 
	C219.207809,287.559296 240.770187,275.819702 263.271545,278.116730 
	C285.595398,280.395660 304.417999,296.781219 309.506317,319.037323 
	C313.834869,337.970184 308.851624,354.630432 295.500153,368.644226 
	C293.306030,370.947144 292.520416,372.957245 292.886261,376.056519 
	C294.778015,392.083130 296.587585,408.121887 298.177216,424.181000 
	C299.577423,438.327087 290.641968,448.269012 276.400513,448.742737 
	C272.241333,448.881134 268.076782,448.856537 263.452515,448.991150 
M266.917053,427.186890 
	C270.181885,427.186890 273.446747,427.186890 276.779449,427.186890 
	C276.779449,425.770111 276.845520,425.101868 276.769775,424.450104 
	C274.943420,408.739685 273.108429,393.030243 271.260590,377.322327 
	C270.185059,368.179504 269.437622,359.169189 279.537842,353.984070 
	C279.959991,353.767303 280.257935,353.298248 280.596771,352.931061 
	C295.921722,336.324554 288.902863,307.626007 267.517365,301.339996 
	C252.119141,296.162109 236.230118,302.339722 228.768234,316.405518 
	C221.317505,330.450287 224.970840,347.231079 238.028320,356.954620 
	C241.986893,359.902435 243.675140,363.259369 243.220108,367.966034 
	C242.291779,377.568573 241.432785,387.178314 240.426926,396.772705 
	C239.378006,406.777924 238.189835,416.768555 237.033188,427.025970 
	C247.095383,427.025970 256.551941,427.025970 266.917053,427.186890 
z"/>
<path fill="#909090" opacity="1.000000" stroke="none" 
	d="
M266.008484,427.025970 
	C256.551941,427.025970 247.095383,427.025970 237.033188,427.025970 
	C238.189835,416.768555 239.378006,406.777924 240.426926,396.772705 
	C241.432785,387.178314 242.291779,377.568573 243.220108,367.966034 
	C243.675140,363.259369 241.986893,359.902435 238.028320,356.954620 
	C224.970840,347.231079 221.317505,330.450287 228.768234,316.405518 
	C236.230118,302.339722 252.119141,296.162109 267.808411,301.947296 
	C268.555664,303.613373 268.812927,304.826660 269.497467,305.708130 
	C283.588043,323.852600 280.182343,350.670959 262.336670,365.246887 
	C260.973999,366.359894 260.038727,368.952026 260.167877,370.766754 
	C260.672241,377.854706 261.752319,384.899445 262.493042,391.973358 
	C263.715973,403.652222 264.841766,415.341248 266.008484,427.025970 
z"/>
<path fill="#737474" opacity="1.000000" stroke="none" 
	d="
M266.462769,427.106445 
	C264.841766,415.341248 263.715973,403.652222 262.493042,391.973358 
	C261.752319,384.899445 260.672241,377.854706 260.167877,370.766754 
	C260.038727,368.952026 260.973999,366.359894 262.336670,365.246887 
	C280.182343,350.670959 283.588043,323.852600 269.497467,305.708130 
	C268.812927,304.826660 268.555664,303.613373 268.098450,302.186371 
	C288.902863,307.626007 295.921722,336.324554 280.596771,352.931061 
	C280.257935,353.298248 279.959991,353.767303 279.537842,353.984070 
	C269.437622,359.169189 270.185059,368.179504 271.260590,377.322327 
	C273.108429,393.030243 274.943420,408.739685 276.769775,424.450104 
	C276.845520,425.101868 276.779449,425.770111 276.779449,427.186890 
	C273.446747,427.186890 270.181885,427.186890 266.462769,427.106445 
z"/>
</svg>