<?xml version="1.0" standalone="no"?>
<!DOCTYPE svg PUBLIC "-//W3C//DTD SVG 20010904//EN"
 "http://www.w3.org/TR/2001/REC-SVG-20010904/DTD/svg10.dtd">
<svg version="1.0" xmlns="http://www.w3.org/2000/svg"
 width="512.000000pt" height="512.000000pt" viewBox="0 0 512.000000 512.000000"
 preserveAspectRatio="xMidYMid meet">
<metadata>
Created by potrace 1.16, written by Peter Selinger 2001-2019
</metadata>
<g transform="translate(0.000000,512.000000) scale(0.100000,-0.100000)"
fill="#000000" stroke="none">
<path d="M2105 5101 c-22 -10 -54 -34 -72 -52 -57 -61 -63 -88 -63 -297 l0
-189 -92 -33 c-51 -18 -143 -56 -204 -85 l-112 -53 -128 130 c-74 75 -146 138
-169 149 -53 25 -147 25 -200 0 -55 -26 -599 -572 -620 -623 -21 -51 -19 -144
4 -193 11 -23 74 -95 149 -169 l130 -128 -53 -112 c-29 -61 -67 -153 -85 -203
l-33 -93 -191 0 c-214 0 -242 -7 -303 -71 -63 -67 -63 -66 -63 -519 0 -453 0
-452 63 -519 61 -64 89 -71 303 -71 l191 0 33 -92 c18 -51 56 -143 85 -204
l53 -112 -130 -128 c-75 -74 -138 -146 -149 -169 -25 -53 -25 -147 0 -200 26
-55 572 -599 623 -620 51 -21 144 -19 193 4 23 11 95 74 169 149 l128 130 112
-53 c61 -29 153 -67 204 -85 l92 -33 0 -189 c0 -209 6 -236 63 -297 68 -71 64
-71 527 -71 463 0 459 0 527 71 57 61 63 88 63 297 l0 189 93 33 c50 18 142
56 203 85 l112 53 128 -130 c74 -75 146 -138 169 -149 53 -25 147 -25 200 0
55 26 599 572 620 623 21 51 19 144 -4 193 -11 23 -74 95 -149 169 l-130 128
53 112 c29 61 67 153 85 204 l33 92 191 0 c214 0 242 7 303 71 54 57 63 93 63
244 0 122 -2 137 -20 155 -28 28 -75 26 -105 -5 -24 -23 -25 -30 -25 -139 0
-107 -2 -117 -24 -143 l-24 -28 -209 -5 c-179 -4 -213 -8 -236 -23 -38 -24
-62 -67 -93 -162 -15 -44 -53 -137 -85 -206 -60 -128 -69 -170 -48 -226 6 -15
72 -90 147 -165 123 -125 136 -141 136 -173 0 -34 -18 -54 -272 -307 -253
-254 -273 -272 -307 -272 -32 0 -48 13 -173 136 -75 75 -150 141 -165 147 -56
21 -98 12 -226 -48 -69 -32 -162 -70 -206 -85 -95 -31 -138 -55 -162 -93 -15
-23 -19 -57 -23 -236 l-5 -209 -28 -24 -29 -25 -384 3 -383 3 -23 23 c-22 22
-23 31 -28 230 -4 178 -8 212 -23 235 -24 38 -67 62 -162 93 -44 15 -137 53
-206 85 -128 60 -170 69 -226 48 -15 -6 -90 -72 -165 -147 -125 -123 -141
-136 -173 -136 -34 0 -54 18 -307 272 -254 253 -272 273 -272 307 0 32 13 48
136 173 75 75 141 150 147 165 21 55 12 98 -43 216 -30 64 -71 163 -91 221
-36 102 -59 140 -100 163 -13 8 -97 14 -227 17 -199 5 -208 6 -230 28 l-23 23
0 389 0 389 23 23 c22 22 31 23 230 28 270 6 262 2 333 198 22 59 62 154 89
212 51 109 60 153 39 207 -6 15 -72 90 -147 165 -123 125 -136 141 -136 173 0
34 18 54 272 307 253 254 273 272 307 272 32 0 48 -13 173 -136 75 -75 150
-141 165 -147 56 -21 98 -12 226 48 69 32 162 70 206 85 95 31 138 55 162 93
15 23 19 57 23 235 6 264 -2 252 169 256 107 3 121 6 139 25 31 35 35 71 11
101 -20 26 -21 26 -157 26 -112 0 -144 -4 -177 -19z"/>
<path d="M2671 5096 c-27 -29 -22 -75 12 -106 18 -18 35 -20 138 -20 110 0
120 -2 146 -24 l28 -24 5 -209 c4 -179 8 -213 23 -236 24 -38 67 -62 162 -93
44 -15 137 -53 206 -85 128 -60 170 -69 226 -48 15 6 90 72 165 147 125 123
141 136 173 136 34 0 54 -18 307 -272 254 -253 272 -273 272 -307 0 -32 -13
-48 -136 -173 -75 -75 -141 -150 -147 -165 -21 -56 -12 -98 48 -226 32 -69 70
-162 85 -206 31 -95 55 -138 93 -162 23 -15 57 -19 236 -23 l209 -5 24 -28
c22 -26 24 -36 24 -143 0 -109 1 -116 25 -139 30 -31 77 -33 105 -5 18 18 20
33 20 158 0 154 -11 192 -71 249 -61 57 -88 63 -297 63 l-189 0 -33 93 c-18
50 -56 142 -85 203 l-53 112 130 128 c75 74 138 146 149 169 23 49 25 142 4
193 -21 51 -565 597 -620 623 -53 25 -147 25 -200 0 -23 -11 -95 -74 -169
-149 l-128 -130 -112 53 c-61 29 -153 67 -203 85 l-93 33 0 189 c0 209 -6 236
-63 297 -57 60 -94 71 -253 71 -136 0 -141 -1 -163 -24z"/>
<path d="M2490 4033 c-627 -31 -1171 -460 -1346 -1063 -75 -259 -75 -562 1
-825 143 -496 550 -888 1053 -1014 246 -62 532 -57 772 13 550 160 954 618
1046 1186 20 122 20 338 0 460 -120 743 -779 1279 -1526 1243z m325 -176 c413
-90 738 -341 925 -715 224 -447 175 -971 -127 -1376 l-18 -24 -35 19 c-19 10
-141 60 -270 110 -129 50 -270 104 -312 120 l-78 30 0 61 c0 59 1 61 56 121
57 61 106 149 124 223 9 36 15 42 48 52 58 17 117 65 149 119 24 42 28 58 28
128 0 69 -4 86 -27 127 -27 45 -28 52 -28 186 0 105 -5 157 -20 216 -114 448
-632 660 -1035 424 -38 -23 -100 -71 -136 -107 -149 -150 -209 -320 -209 -595
0 -83 -3 -104 -21 -133 -15 -23 -23 -58 -27 -102 -8 -119 56 -218 168 -258 46
-16 51 -22 60 -58 23 -90 111 -236 165 -271 22 -14 25 -24 25 -74 l0 -59 -77
-30 c-43 -16 -184 -70 -313 -120 -129 -50 -251 -100 -270 -110 l-35 -19 -18
24 c-221 296 -308 653 -247 1006 48 279 175 525 374 723 216 215 460 334 781
379 63 9 333 -3 400 -17z m-120 -259 c74 -18 178 -80 240 -143 103 -103 149
-216 160 -385 5 -88 5 -93 -8 -64 -8 17 -56 74 -106 127 -120 125 -135 128
-256 63 -150 -82 -277 -123 -427 -141 l-58 -7 0 41 c0 181 111 390 261 490 67
45 84 47 194 19z m190 -590 l56 -63 -3 -235 c-4 -271 -13 -309 -95 -400 -187
-208 -522 -157 -641 98 -26 55 -27 64 -30 268 l-3 210 118 12 c183 19 351 69
478 142 28 16 53 30 57 30 3 0 32 -28 63 -62z m-140 -1011 c4 -32 16 -59 36
-81 l29 -34 -29 -25 c-60 -50 -120 -72 -211 -75 -99 -4 -170 17 -233 69 l-37
31 29 27 c27 26 51 83 51 125 0 15 5 17 28 11 58 -14 227 -16 277 -2 28 8 51
11 52 8 1 -3 4 -28 8 -54z m-544 -232 c74 -71 183 -124 284 -138 149 -22 306
29 423 138 l63 58 254 -98 c140 -54 255 -101 255 -106 0 -13 -106 -104 -180
-153 -140 -94 -311 -166 -480 -203 -119 -25 -401 -25 -520 0 -228 49 -447 158
-605 301 -33 30 -58 56 -55 58 3 3 93 39 200 81 107 42 218 85 245 96 28 11
52 20 54 20 2 1 30 -24 62 -54z"/>
</g>
</svg>
