<svg version="1.1" id="Layer_1" xmlns="http://www.w3.org/2000/svg" xmlns:xlink="http://www.w3.org/1999/xlink" x="0px" y="0px"
	 width="100%" viewBox="0 0 512 512" enable-background="new 0 0 512 512" xml:space="preserve">
<path fill="#64798A" opacity="1.000000" stroke="none" 
	d="
M513.000000,449.000000 
	C513.000000,449.444336 513.000000,449.888672 512.531372,450.666931 
	C341.708466,451.000580 171.354233,451.000305 1.000000,451.000000 
	C1.000000,450.555664 1.000000,450.111328 1.350256,449.319946 
	C9.435097,442.225708 17.196957,435.509491 24.898661,428.724915 
	C41.575954,414.033752 58.258190,399.347839 74.868721,384.581390 
	C85.535255,375.098969 96.036491,365.430817 106.685074,355.928009 
	C124.383850,340.133698 142.130920,324.393433 159.878448,308.653870 
	C169.925903,299.743195 180.014832,290.879303 190.389969,282.126160 
	C216.110001,301.260803 241.524292,320.264801 266.940887,339.265686 
	C272.522308,343.438202 276.146118,343.533356 280.740112,339.490295 
	C295.959167,326.096405 311.106812,312.621033 326.368011,299.275482 
	C336.110962,290.755554 346.006134,282.409698 356.158203,274.097229 
	C358.271881,275.945129 360.178101,277.576935 361.830139,279.434753 
	C374.615692,293.813019 387.348846,308.237885 400.104889,322.642426 
	C408.133514,331.708557 416.183838,340.755493 424.206451,349.826904 
	C439.149811,366.723938 454.098053,383.616760 469.009003,400.542389 
	C477.887177,410.620056 486.592194,420.852356 495.578278,430.832184 
	C501.189819,437.064331 507.179810,442.955719 513.000000,449.000000 
z"/>
<path fill="none" opacity="1.000000" stroke="none" 
	d="
M1.000000,140.000000 
	C1.000000,93.692322 1.000000,47.384640 1.000000,1.038480 
	C171.546524,1.038480 342.093048,1.038480 513.000000,1.038480 
	C513.000000,47.020267 513.000000,93.041473 512.827515,139.541901 
	C512.654968,140.021103 512.343262,140.170532 511.967224,140.103149 
	C511.085938,140.012543 510.580688,139.989288 509.602051,139.967163 
	C488.888123,139.968277 468.647552,139.968277 447.811646,139.968277 
	C447.811646,131.021912 447.811646,122.890144 447.629639,114.504860 
	C428.731354,97.246933 410.015015,80.242516 390.816345,63.164860 
	C389.835236,63.066284 389.336517,63.018787 388.837769,63.018749 
	C280.114105,63.010918 171.390411,63.004974 62.666733,63.017456 
	C61.237896,63.017620 59.809078,63.252911 57.839573,63.425964 
	C57.839573,89.048843 57.839573,114.263962 57.839573,139.965866 
	C39.481731,139.965866 21.703459,139.965866 3.546023,139.973404 
	C2.663829,140.043961 2.160796,140.106979 1.501567,140.095596 
	C1.345371,140.021194 1.000000,140.000000 1.000000,140.000000 
z"/>
<path fill="none" opacity="1.000000" stroke="none" 
	d="
M1.000000,451.468658 
	C171.354233,451.000305 341.708466,451.000580 512.531372,451.000427 
	C513.000000,471.652435 513.000000,492.304901 513.000000,512.952515 
	C342.333313,512.947754 171.666656,512.947754 1.000000,512.947754 
	C1.000000,492.576111 1.000000,472.256714 1.000000,451.468658 
z"/>
<path fill="#64798A" opacity="1.000000" stroke="none" 
	d="
M1.000000,140.468658 
	C1.000000,140.000000 1.345371,140.021194 1.673243,140.389908 
	C20.642973,154.627991 39.284832,168.497345 58.093376,182.643860 
	C59.276115,183.778961 60.250916,184.692062 61.314217,185.486786 
	C90.613396,207.385376 119.948288,229.236328 149.213898,251.179657 
	C159.565979,258.941650 169.752747,266.924133 180.004700,275.166504 
	C179.113251,276.703064 178.392670,278.054718 177.327026,279.028870 
	C159.056030,295.730682 140.724670,312.366425 122.445755,329.059570 
	C113.486435,337.241638 104.639122,345.546295 95.685349,353.734528 
	C72.879341,374.590546 50.049995,395.421112 27.213013,416.243225 
	C18.499163,424.188263 9.739032,432.082581 0.999998,440.000000 
	C1.000000,340.312439 1.000000,240.624878 1.000000,140.468658 
z"/>
<path fill="#64798A" opacity="1.000000" stroke="none" 
	d="
M512.343262,140.170532 
	C512.343262,140.170532 512.654968,140.021103 512.827515,140.010559 
	C513.000000,239.020889 513.000000,338.041779 512.734680,437.335266 
	C497.823303,420.431580 483.203949,403.232483 468.523956,386.085297 
	C452.331818,367.171844 436.117432,348.277222 419.851593,329.427155 
	C401.526276,308.190338 383.132721,287.012390 364.964172,265.536499 
	C391.142609,242.403519 417.154510,219.575394 443.060669,196.627884 
	C445.440918,194.519470 447.146027,191.648834 449.469208,188.991547 
	C462.714020,178.930054 475.694916,169.061646 488.579437,159.068954 
	C496.576294,152.866898 504.426971,146.476425 512.343262,140.170532 
z"/>
<path fill="#3B566B" opacity="1.000000" stroke="none" 
	d="
M0.999998,440.449982 
	C9.739032,432.082581 18.499163,424.188263 27.213013,416.243225 
	C50.049995,395.421112 72.879341,374.590546 95.685349,353.734528 
	C104.639122,345.546295 113.486435,337.241638 122.445755,329.059570 
	C140.724670,312.366425 159.056030,295.730682 177.327026,279.028870 
	C178.392670,278.054718 179.113251,276.703064 180.347061,275.259888 
	C183.828156,277.326569 186.956619,279.660431 190.085068,281.994324 
	C180.014832,290.879303 169.925903,299.743195 159.878448,308.653870 
	C142.130920,324.393433 124.383850,340.133698 106.685074,355.928009 
	C96.036491,365.430817 85.535255,375.098969 74.868721,384.581390 
	C58.258190,399.347839 41.575954,414.033752 24.898661,428.724915 
	C17.196957,435.509491 9.435097,442.225708 1.350256,448.986450 
	C1.000000,446.299988 1.000000,443.599976 0.999998,440.449982 
z"/>
<path fill="#3B566B" opacity="1.000000" stroke="none" 
	d="
M364.768860,265.808838 
	C383.132721,287.012390 401.526276,308.190338 419.851593,329.427155 
	C436.117432,348.277222 452.331818,367.171844 468.523956,386.085297 
	C483.203949,403.232483 497.823303,420.431580 512.734680,437.803894 
	C513.000000,441.361298 513.000000,444.722565 513.000000,448.541931 
	C507.179810,442.955719 501.189819,437.064331 495.578278,430.832184 
	C486.592194,420.852356 477.887177,410.620056 469.009003,400.542389 
	C454.098053,383.616760 439.149811,366.723938 424.206451,349.826904 
	C416.183838,340.755493 408.133514,331.708557 400.104889,322.642426 
	C387.348846,308.237885 374.615692,293.813019 361.830139,279.434753 
	C360.178101,277.576935 358.271881,275.945129 356.295166,273.782440 
	C358.994232,270.840454 361.881561,268.324646 364.768860,265.808838 
z"/>
<path fill="#D4D5DA" opacity="1.000000" stroke="none" 
	d="
M364.964172,265.536499 
	C361.881561,268.324646 358.994232,270.840454 355.969971,273.671021 
	C346.006134,282.409698 336.110962,290.755554 326.368011,299.275482 
	C311.106812,312.621033 295.959167,326.096405 280.740112,339.490295 
	C276.146118,343.533356 272.522308,343.438202 266.940887,339.265686 
	C241.524292,320.264801 216.110001,301.260803 190.389969,282.126160 
	C186.956619,279.660431 183.828156,277.326569 180.357346,274.899292 
	C169.752747,266.924133 159.565979,258.941650 149.213898,251.179657 
	C119.948288,229.236328 90.613396,207.385376 61.314217,185.486786 
	C60.250916,184.692062 59.276115,183.778961 58.120117,182.145447 
	C57.991032,169.391327 57.884159,157.410843 58.084999,145.435486 
	C58.144699,141.875916 56.917614,140.914368 53.495220,140.949890 
	C38.689899,141.103561 23.881884,141.049637 9.075400,140.969162 
	C7.356895,140.959808 5.641840,140.315704 3.925185,139.965866 
	C21.703459,139.965866 39.481731,139.965866 57.839573,139.965866 
	C57.839573,114.263962 57.839573,89.048843 57.839573,63.425964 
	C59.809078,63.252911 61.237896,63.017620 62.666733,63.017456 
	C171.390411,63.004974 280.114105,63.010918 388.837769,63.018749 
	C389.336517,63.018787 389.835236,63.066284 390.753113,63.614273 
	C391.172241,81.024879 391.172241,97.912842 391.172241,115.164879 
	C397.222504,115.164879 402.844086,115.204369 408.464905,115.156952 
	C421.580688,115.046310 434.696075,114.893875 447.811646,114.758377 
	C447.811646,122.890144 447.811646,131.021912 447.811646,139.968277 
	C468.647552,139.968277 488.888123,139.968277 509.308411,140.279388 
	C507.684448,140.732101 505.880981,140.993408 504.077026,140.996704 
	C486.969635,141.028000 469.861206,141.111237 452.755493,140.939056 
	C449.093323,140.902206 447.851685,141.881989 447.915039,145.677048 
	C448.131256,158.628586 447.959076,171.586243 448.049103,184.540771 
	C448.059784,186.073730 448.775635,187.601791 449.164612,189.132141 
	C447.146027,191.648834 445.440918,194.519470 443.060669,196.627884 
	C417.154510,219.575394 391.142609,242.403519 364.964172,265.536499 
M229.529053,132.902451 
	C227.665588,133.997650 225.708542,134.961075 223.952820,136.207977 
	C200.177231,153.093369 196.998734,194.159393 217.664993,214.817200 
	C235.940872,233.085617 264.509644,232.092651 277.079102,215.296860 
	C277.539276,214.681976 278.280426,214.277344 278.711121,213.922562 
	C281.439728,217.362946 283.588776,221.003830 286.589386,223.695511 
	C299.919006,235.652908 320.442261,231.182663 330.384399,214.366104 
	C339.682831,198.638367 340.410919,181.533020 338.157288,164.055176 
	C331.635590,113.475861 281.050903,78.645401 226.205643,96.730125 
	C195.369781,106.897972 165.338013,139.872726 167.678284,184.595413 
	C170.369217,236.019806 218.492416,273.408997 268.575256,261.669159 
	C279.804413,259.036957 290.365173,254.737717 299.459351,246.763763 
	C296.503998,241.634415 293.706451,236.778915 290.776917,231.694351 
	C287.129974,234.438492 283.975952,237.150665 280.505524,239.367523 
	C259.428162,252.831329 228.388290,249.232315 208.731384,231.160873 
	C187.717087,211.841537 180.831207,181.112427 191.238846,153.098511 
	C201.049011,126.692787 226.517090,108.603600 255.110703,108.212494 
	C272.212433,107.978577 287.706451,112.665871 300.036743,125.252083 
	C318.066376,143.655930 322.751984,166.185150 319.165283,190.746765 
	C318.293304,196.717926 314.946777,202.535965 311.776520,207.850891 
	C310.659149,209.724182 306.488251,210.907547 304.051788,210.477615 
	C302.335510,210.174789 300.691681,206.781860 299.932251,204.467773 
	C299.127319,202.014877 299.244324,199.206619 299.237946,196.552887 
	C299.190338,176.721466 299.217865,156.889877 299.201569,137.058365 
	C299.200134,135.306244 299.054108,133.554245 298.973846,131.771637 
	C289.834991,131.771637 281.242371,131.771637 272.496185,131.771637 
	C272.292267,134.311035 272.113861,136.532745 271.869080,139.580627 
	C259.137054,127.611374 245.195419,126.604691 229.529053,132.902451 
z"/>
<path fill="#EAEFF2" opacity="1.000000" stroke="none" 
	d="
M449.469208,188.991547 
	C448.775635,187.601791 448.059784,186.073730 448.049103,184.540771 
	C447.959076,171.586243 448.131256,158.628586 447.915039,145.677048 
	C447.851685,141.881989 449.093323,140.902206 452.755493,140.939056 
	C469.861206,141.111237 486.969635,141.028000 504.077026,140.996704 
	C505.880981,140.993408 507.684448,140.732101 509.781799,140.278275 
	C510.580688,139.989288 511.085938,140.012543 511.967224,140.103149 
	C504.426971,146.476425 496.576294,152.866898 488.579437,159.068954 
	C475.694916,169.061646 462.714020,178.930054 449.469208,188.991547 
z"/>
<path fill="#324B5B" opacity="1.000000" stroke="none" 
	d="
M447.629639,114.504860 
	C434.696075,114.893875 421.580688,115.046310 408.464905,115.156952 
	C402.844086,115.204369 397.222504,115.164879 391.172241,115.164879 
	C391.172241,97.912842 391.172241,81.024879 391.235474,63.687515 
	C410.015015,80.242516 428.731354,97.246933 447.629639,114.504860 
z"/>
<path fill="#EAEFF2" opacity="1.000000" stroke="none" 
	d="
M3.546022,139.973404 
	C5.641840,140.315704 7.356895,140.959808 9.075400,140.969162 
	C23.881884,141.049637 38.689899,141.103561 53.495220,140.949890 
	C56.917614,140.914368 58.144699,141.875916 58.084999,145.435486 
	C57.884159,157.410843 57.991032,169.391327 57.953430,181.868286 
	C39.284832,168.497345 20.642973,154.627991 1.829440,140.464310 
	C2.160796,140.106979 2.663829,140.043961 3.546022,139.973404 
z"/>
<path fill="#314A5B" opacity="1.000000" stroke="none" 
	d="
M229.873474,132.737915 
	C245.195419,126.604691 259.137054,127.611374 271.869080,139.580627 
	C272.113861,136.532745 272.292267,134.311035 272.496185,131.771637 
	C281.242371,131.771637 289.834991,131.771637 298.973846,131.771637 
	C299.054108,133.554245 299.200134,135.306244 299.201569,137.058365 
	C299.217865,156.889877 299.190338,176.721466 299.237946,196.552887 
	C299.244324,199.206619 299.127319,202.014877 299.932251,204.467773 
	C300.691681,206.781860 302.335510,210.174789 304.051788,210.477615 
	C306.488251,210.907547 310.659149,209.724182 311.776520,207.850891 
	C314.946777,202.535965 318.293304,196.717926 319.165283,190.746765 
	C322.751984,166.185150 318.066376,143.655930 300.036743,125.252083 
	C287.706451,112.665871 272.212433,107.978577 255.110703,108.212494 
	C226.517090,108.603600 201.049011,126.692787 191.238846,153.098511 
	C180.831207,181.112427 187.717087,211.841537 208.731384,231.160873 
	C228.388290,249.232315 259.428162,252.831329 280.505524,239.367523 
	C283.975952,237.150665 287.129974,234.438492 290.776917,231.694351 
	C293.706451,236.778915 296.503998,241.634415 299.459351,246.763763 
	C290.365173,254.737717 279.804413,259.036957 268.575256,261.669159 
	C218.492416,273.408997 170.369217,236.019806 167.678284,184.595413 
	C165.338013,139.872726 195.369781,106.897972 226.205643,96.730125 
	C281.050903,78.645401 331.635590,113.475861 338.157288,164.055176 
	C340.410919,181.533020 339.682831,198.638367 330.384399,214.366104 
	C320.442261,231.182663 299.919006,235.652908 286.589386,223.695511 
	C283.588776,221.003830 281.439728,217.362946 278.711121,213.922562 
	C278.280426,214.277344 277.539276,214.681976 277.079102,215.296860 
	C264.509644,232.092651 235.940872,233.085617 217.664993,214.817200 
	C196.998734,194.159393 200.177231,153.093369 223.952820,136.207977 
	C225.708542,134.961075 227.665588,133.997650 229.873474,132.737915 
M239.063904,158.511093 
	C230.100754,168.524048 229.065125,184.985199 236.705612,195.996140 
	C244.403244,207.089508 259.919098,207.195572 267.470947,195.990814 
	C273.499329,187.046417 273.896393,177.132843 270.389893,167.286606 
	C265.544098,153.679794 251.424164,149.620758 239.063904,158.511093 
z"/>
<path fill="#D4D5DA" opacity="1.000000" stroke="none" 
	d="
M239.328629,158.258011 
	C251.424164,149.620758 265.544098,153.679794 270.389893,167.286606 
	C273.896393,177.132843 273.499329,187.046417 267.470947,195.990814 
	C259.919098,207.195572 244.403244,207.089508 236.705612,195.996140 
	C229.065125,184.985199 230.100754,168.524048 239.328629,158.258011 
z"/>
</svg>