<svg version="1.1" id="Layer_1" xmlns="http://www.w3.org/2000/svg" xmlns:xlink="http://www.w3.org/1999/xlink" x="0px" y="0px"
	 width="100%" viewBox="0 0 512 512" enable-background="new 0 0 512 512" xml:space="preserve">
<path fill="#F44336" opacity="1.000000" stroke="none" 
	d="
M0.999998,411.000000 
	C1.000000,308.645233 1.000000,206.290466 1.352970,103.318619 
	C2.136950,101.144836 2.495723,99.563843 3.010136,98.035217 
	C8.186227,82.653984 18.558760,72.383369 33.799381,67.019432 
	C44.219276,63.352142 55.017647,65.443733 65.837044,65.447952 
	C128.591324,115.178627 191.188416,164.588730 253.676224,214.136658 
	C256.732666,216.560165 258.388580,215.596802 260.828888,213.665573 
	C306.522522,177.504517 352.278625,141.422485 397.984955,105.277489 
	C414.819702,91.964417 431.560028,78.531929 448.788574,65.108177 
	C455.860809,65.041412 462.501892,64.734283 469.112030,65.058594 
	C483.106598,65.745201 494.613953,71.955582 502.801971,83.056679 
	C507.175354,88.986000 509.661865,96.307068 513.000000,103.000000 
	C513.000000,205.354767 513.000000,307.709534 512.647095,410.681396 
	C510.415649,416.123627 509.082855,421.259186 506.549896,425.712036 
	C500.489899,436.365204 491.264160,443.222748 479.552368,447.092010 
	C469.454132,450.428192 459.217865,448.418732 449.031891,448.402283 
	C449.015961,348.873779 449.015961,249.801483 449.015961,149.895279 
	C446.914337,151.375305 445.561462,152.255768 444.285889,153.236786 
	C398.061462,188.787888 351.827698,224.326889 305.635101,259.919281 
	C289.681885,272.211578 273.833527,284.639923 257.585022,296.994202 
	C255.850327,296.098175 254.392532,295.312195 253.096375,294.315979 
	C194.983810,249.650742 136.886307,204.965927 78.783707,160.287735 
	C74.476639,156.975800 70.144867,153.695969 65.000450,149.772705 
	C65.000450,152.653214 65.000450,154.578293 65.000450,156.503372 
	C65.000450,234.820663 65.007439,313.137939 64.995415,391.455231 
	C64.992477,410.616455 64.927231,429.777649 64.429482,448.965057 
	C57.657269,448.994354 51.335381,449.236755 45.037338,448.951904 
	C30.980419,448.316040 19.459948,442.069366 11.213428,430.992340 
	C6.807312,425.073914 4.341490,417.710999 0.999998,411.000000 
z"/>
<path fill="#FFFFFF" opacity="1.000000" stroke="none" 
	d="
M513.000000,102.531342 
	C509.661865,96.307068 507.175354,88.986000 502.801971,83.056679 
	C494.613953,71.955582 483.106598,65.745201 469.112030,65.058594 
	C462.501892,64.734283 455.860809,65.041412 448.298584,65.076782 
	C445.698486,65.061150 444.033539,65.004997 442.368622,65.004936 
	C318.795746,65.000847 195.222885,65.000473 71.650017,65.007576 
	C69.652702,65.007690 67.655388,65.103630 65.658073,65.154854 
	C55.017647,65.443733 44.219276,63.352142 33.799381,67.019432 
	C18.558760,72.383369 8.186227,82.653984 3.010136,98.035217 
	C2.495723,99.563843 2.136950,101.144836 1.352970,102.850769 
	C1.000000,69.020775 1.000000,35.041546 1.000004,1.062302 
	C171.666672,1.062286 342.333344,1.062286 513.000000,1.062286 
	C513.000000,34.770611 513.000000,68.416649 513.000000,102.531342 
z"/>
<path fill="#FFFFFF" opacity="1.000000" stroke="none" 
	d="
M449.047821,448.858459 
	C459.217865,448.418732 469.454132,450.428192 479.552368,447.092010 
	C491.264160,443.222748 500.489899,436.365204 506.549896,425.712036 
	C509.082855,421.259186 510.415649,416.123627 512.647095,411.149231 
	C513.000000,444.979218 513.000000,478.958405 513.000000,512.937744 
	C342.333313,512.937866 171.666656,512.937866 1.000000,512.937866 
	C1.000000,479.229584 1.000000,445.583466 0.999998,411.468658 
	C4.341490,417.710999 6.807312,425.073914 11.213428,430.992340 
	C19.459948,442.069366 30.980419,448.316040 45.037338,448.951904 
	C51.335381,449.236755 57.657269,448.994354 64.904411,448.978210 
	C191.294678,448.975769 316.748871,448.987305 442.203064,448.986481 
	C443.865906,448.986481 445.528748,448.830292 447.499878,448.781738 
	C448.221405,448.830444 448.634613,448.844452 449.047821,448.858459 
z"/>
<path fill="#ECEFF1" opacity="1.000000" stroke="none" 
	d="
M447.191589,448.747009 
	C445.528748,448.830292 443.865906,448.986481 442.203064,448.986481 
	C316.748871,448.987305 191.294678,448.975769 65.365555,448.952026 
	C64.927231,429.777649 64.992477,410.616455 64.995415,391.455231 
	C65.007439,313.137939 65.000450,234.820663 65.000450,156.503372 
	C65.000450,154.578293 65.000450,152.653214 65.000450,149.772705 
	C70.144867,153.695969 74.476639,156.975800 78.783707,160.287735 
	C136.886307,204.965927 194.983810,249.650742 253.096375,294.315979 
	C254.392532,295.312195 255.850327,296.098175 257.707520,297.305420 
	C260.129028,299.418335 261.970306,301.341461 264.039429,302.976318 
	C278.640503,314.512939 293.314056,325.957855 307.916443,337.492828 
	C348.592651,369.624420 389.268127,401.756989 429.882751,433.966309 
	C435.823425,438.677521 441.430267,443.809662 447.191589,448.747009 
z"/>
<path fill="#ECEFF1" opacity="1.000000" stroke="none" 
	d="
M65.837044,65.447952 
	C67.655388,65.103630 69.652702,65.007690 71.650017,65.007576 
	C195.222885,65.000473 318.795746,65.000847 442.368622,65.004936 
	C444.033539,65.004997 445.698486,65.061150 447.853394,65.122513 
	C431.560028,78.531929 414.819702,91.964417 397.984955,105.277489 
	C352.278625,141.422485 306.522522,177.504517 260.828888,213.665573 
	C258.388580,215.596802 256.732666,216.560165 253.676224,214.136658 
	C191.188416,164.588730 128.591324,115.178627 65.837044,65.447952 
z"/>
<path fill="#CFD8DC" opacity="1.000000" stroke="none" 
	d="
M447.499878,448.781738 
	C441.430267,443.809662 435.823425,438.677521 429.882751,433.966309 
	C389.268127,401.756989 348.592651,369.624420 307.916443,337.492828 
	C293.314056,325.957855 278.640503,314.512939 264.039429,302.976318 
	C261.970306,301.341461 260.129028,299.418335 258.059814,297.317383 
	C273.833527,284.639923 289.681885,272.211578 305.635101,259.919281 
	C351.827698,224.326889 398.061462,188.787888 444.285889,153.236786 
	C445.561462,152.255768 446.914337,151.375305 449.015961,149.895279 
	C449.015961,249.801483 449.015961,348.873779 449.031891,448.402252 
	C448.634613,448.844452 448.221405,448.830444 447.499878,448.781738 
z"/>
</svg>