<?xml version="1.0" encoding="UTF-8"?>
<svg version="1.1" xmlns="http://www.w3.org/2000/svg" width="512" height="512">
<path d="M0 0 C0.98643997 -0.0099852 1.97287994 -0.0199704 2.98921204 -0.03025818 C5.07276229 -0.04540936 7.15638495 -0.0524849 9.23999023 -0.05200195 C12.3988727 -0.05853807 15.55456713 -0.11298184 18.71289062 -0.16992188 C38.28736269 -0.33424939 38.28736269 -0.33424939 46.73828125 6.50390625 C47.9142688 7.41934204 47.9142688 7.41934204 49.11401367 8.35327148 C52.18744293 10.81383456 54.37340348 12.73318081 56.07983398 16.33764648 C59.40940005 21.34328489 65.58291022 22.3577283 71.02734375 24.0703125 C72.88225112 24.6837894 74.7371561 25.2972736 76.59192467 25.91117001 C79.18704159 26.7643113 81.78820847 27.5981235 84.38952637 28.43212891 C88.91850511 29.88754195 93.43894412 31.369104 97.95736694 32.85691833 C100.35848162 33.64542086 102.76251353 34.42511394 105.16983032 35.19447327 C118.21466491 39.44245768 127.03033181 44.95968755 136.73828125 54.50390625 C137.69913209 55.4372769 138.66016821 56.37045685 139.62139893 57.30343628 C142.54530147 60.16414551 145.44634552 63.046133 148.33984375 65.9375 C149.39400553 66.98843589 150.44823675 68.03930212 151.50253296 69.09010315 C153.68394126 71.26559814 155.86335012 73.44307294 158.04150391 75.62182617 C160.82934677 78.40977184 163.62408261 81.19070054 166.42049599 83.97004604 C168.58746708 86.12591266 170.74989227 88.28629462 172.9110527 90.4479847 C173.9404702 91.47622573 174.97150139 92.50285394 176.00419998 93.52779961 C177.43934387 94.95314756 178.86753988 96.38548086 180.29541016 97.81811523 C181.10748932 98.62876938 181.91956848 99.43942352 182.7562561 100.27464294 C185.5967846 103.46949946 186.63217356 105.56662166 187.11328125 109.81640625 C186.34103562 117.41015495 180.94555998 122.9391976 176.17578125 128.56640625 C174.91408651 130.07575547 173.65368497 131.58618657 172.39453125 133.09765625 C171.46253906 134.21527344 171.46253906 134.21527344 170.51171875 135.35546875 C168.01182887 138.3839697 165.58756053 141.46759991 163.17578125 144.56640625 C162.29720877 145.68776158 161.41829815 146.80885207 160.5390625 147.9296875 C159.05062679 149.8274296 157.56469528 151.72697113 156.08349609 153.63037109 C154.35375179 155.84656046 152.6098693 158.05097794 150.86328125 160.25390625 C150.32759521 160.94621338 149.79190918 161.63852051 149.23999023 162.35180664 C144.18585497 168.6807732 144.18585497 168.6807732 139.73828125 169.50390625 C133.30030093 169.353425 129.43855945 167.58249232 124.23828125 163.94140625 C122.09328125 162.47703125 119.94828125 161.01265625 117.73828125 159.50390625 C117.73828125 169.07390625 117.73828125 178.64390625 117.73828125 188.50390625 C121.23655518 188.49343262 124.7348291 188.48295898 128.33911133 188.47216797 C139.8781974 188.43907591 151.41729 188.41685391 162.95641041 188.40028191 C169.95477019 188.38996426 176.95308506 188.37589464 183.95141602 188.35302734 C190.70112923 188.3309829 197.45078606 188.31934791 204.20053673 188.31415176 C206.77981998 188.31044724 209.35910059 188.30321356 211.93836403 188.29244614 C215.54205543 188.2779961 219.14555202 188.2759256 222.74926758 188.27685547 C223.82316742 188.26966492 224.89706726 188.26247437 226.00350952 188.25506592 C226.98367538 188.25781525 227.96384125 188.26056458 228.97370911 188.26339722 C229.82636762 188.26155363 230.67902613 188.25971004 231.55752277 188.25781059 C233.73828125 188.50390625 233.73828125 188.50390625 236.73828125 190.50390625 C237.03732806 193.39211921 237.13695812 196.065798 237.1105957 198.95703125 C237.11420105 199.84844346 237.1178064 200.73985567 237.121521 201.65828037 C237.12965021 204.69033246 237.11566233 207.72188121 237.1015625 210.75390625 C237.1017213 212.954992 237.10298932 215.1560779 237.10527039 217.35716248 C237.10684933 223.45324812 237.08761296 229.54911869 237.06408691 235.64515305 C237.05080979 239.4956282 237.04332278 243.34607007 237.0378418 247.19656372 C236.92343516 324.63576024 235.77961173 402.07278833 234.73828125 479.50390625 C235.35703125 479.62765625 235.97578125 479.75140625 236.61328125 479.87890625 C238.73828125 480.50390625 238.73828125 480.50390625 240.73828125 482.50390625 C240.99707031 485.16186523 240.99707031 485.16186523 241.00390625 488.5 C241.00648438 489.69818359 241.0090625 490.89636719 241.01171875 492.13085938 C241.00398438 493.38833984 240.99625 494.64582031 240.98828125 495.94140625 C240.99601562 497.19501953 241.00375 498.44863281 241.01171875 499.74023438 C241.00785156 501.53944336 241.00785156 501.53944336 241.00390625 503.375 C241.00165039 504.4777124 240.99939453 505.5804248 240.99707031 506.71655273 C240.73828125 509.50390625 240.73828125 509.50390625 238.73828125 512.50390625 C236.05739935 512.80089532 233.60696633 512.90300286 230.92382812 512.8762207 C229.71388939 512.8816967 229.71388939 512.8816967 228.47950745 512.88728333 C225.80513654 512.89540936 223.13136766 512.88176196 220.45703125 512.8671875 C218.60380046 512.86666914 216.75056911 512.86718591 214.89733887 512.86869812 C211.01008922 512.8686083 207.12304656 512.85815997 203.23583984 512.84008789 C198.24530087 512.81740039 193.25506456 512.81685561 188.26448822 512.82360554 C184.43671972 512.82694207 180.60902061 512.8203214 176.78126526 512.8104763 C174.94080468 512.80661856 173.10033638 512.80547845 171.25987244 512.80706215 C168.69067597 512.80743173 166.12187206 512.79484299 163.55273438 512.77856445 C162.78695572 512.78104187 162.02117706 512.78351929 161.23219299 512.78607178 C155.96702237 512.73264737 155.96702237 512.73264737 153.73828125 510.50390625 C153.47949219 507.66235352 153.47949219 507.66235352 153.47265625 504.0703125 C153.47007812 502.78189453 153.4675 501.49347656 153.46484375 500.16601562 C153.4690332 499.4933667 153.47322266 498.82071777 153.47753906 498.12768555 C153.4882226 496.07765976 153.47765162 494.02851378 153.46484375 491.97851562 C153.46871094 490.04395508 153.46871094 490.04395508 153.47265625 488.0703125 C153.47491211 486.88381104 153.47716797 485.69730957 153.47949219 484.47485352 C153.73828125 481.50390625 153.73828125 481.50390625 155.73828125 478.50390625 C155.83136471 476.27772409 155.83136471 476.27772409 155.48526001 473.79989624 C155.37862534 472.83273682 155.27199066 471.86557739 155.16212463 470.86911011 C154.9689994 469.27946945 154.9689994 469.27946945 154.77197266 467.65771484 C154.58221611 465.9816214 154.58221611 465.9816214 154.3886261 464.27166748 C153.96631353 460.56392349 153.52791246 456.8582563 153.08984375 453.15234375 C152.79437328 450.57757501 152.50006714 448.00267241 152.20687866 445.42764282 C151.51016099 439.32824492 150.80390578 433.23002691 150.0923456 427.13234484 C148.74537657 415.58791319 147.41667152 404.04139697 146.09452438 392.49409866 C145.65856017 388.70635327 145.21551286 384.91948525 144.77163696 381.13265991 C144.50200272 378.79728636 144.23257265 376.46188922 143.96337891 374.12646484 C143.77632637 372.55504227 143.77632637 372.55504227 143.585495 370.95187378 C142.91677138 365.09054742 142.61857486 359.4034895 142.73828125 353.50390625 C142.07828125 353.50390625 141.41828125 353.50390625 140.73828125 353.50390625 C140.76354889 354.74697037 140.78881653 355.99003448 140.81484985 357.27076721 C140.81072397 362.98054468 140.18054584 368.56919146 139.51318359 374.23413086 C139.38317459 375.37340027 139.25316559 376.51266968 139.11921692 377.6864624 C138.8381487 380.1453098 138.55487128 382.60390547 138.26960373 385.06226921 C137.81932392 388.94849581 137.3763366 392.83549019 136.93545532 396.72279358 C135.68190096 407.76967597 134.41718141 418.8152586 133.14160156 429.85961914 C132.36030404 436.62509476 131.59048985 443.39180813 130.82689285 450.15930367 C130.53352544 452.73988006 130.23601873 455.31998925 129.93436813 457.89961052 C129.51452698 461.49183905 129.10802232 465.08534066 128.70458984 468.67944336 C128.57583969 469.75214981 128.44708954 470.82485626 128.31443787 471.93006897 C128.20780319 472.90426788 128.10116852 473.8784668 127.99130249 474.88218689 C127.89359243 475.73145217 127.79588238 476.58071745 127.69521141 477.45571804 C127.50675722 479.73377192 127.50675722 479.73377192 129.73828125 481.50390625 C129.99707031 484.36132812 129.99707031 484.36132812 130.00390625 487.97265625 C130.00648438 489.26558594 130.0090625 490.55851562 130.01171875 491.890625 C130.0075293 492.56528809 130.00333984 493.23995117 129.99902344 493.93505859 C129.98832195 495.99606782 129.99892068 498.05620544 130.01171875 500.1171875 C130.00785156 502.05658203 130.00785156 502.05658203 130.00390625 504.03515625 C130.00165039 505.22689453 129.99939453 506.41863281 129.99707031 507.64648438 C129.73828125 510.50390625 129.73828125 510.50390625 127.73828125 512.50390625 C125.13456059 512.70753889 122.63674966 512.78711482 120.03149414 512.77856445 C119.23622818 512.78367538 118.44096222 512.78878632 117.62159729 512.79405212 C114.98463479 512.80798734 112.34793251 512.8069884 109.7109375 512.8046875 C107.88252159 512.80857235 106.05410658 512.81290657 104.22569275 512.81767273 C100.38977129 512.82514344 96.55394186 512.82483757 92.71801758 512.81958008 C87.79702159 512.81378505 82.87640193 512.83071306 77.95546818 512.85392475 C74.17827646 512.86864144 70.4011758 512.86953661 66.62396049 512.86641502 C64.80943494 512.8669293 62.99490442 512.87218694 61.18040657 512.88222694 C58.6448418 512.89453389 56.11001543 512.88783456 53.57446289 512.8762207 C52.82163025 512.88386444 52.06879761 512.89150818 51.29315186 512.89938354 C46.23963532 512.84809993 46.23963532 512.84809993 43.77178955 511.15385437 C42.1719311 508.59975447 42.36688352 506.39526474 42.375 503.41015625 C42.3759668 501.61771484 42.3759668 501.61771484 42.37695312 499.7890625 C42.39306641 498.53996094 42.40917969 497.29085938 42.42578125 496.00390625 C42.42255859 494.75480469 42.41933594 493.50570313 42.41601562 492.21875 C42.4712787 482.90441008 42.4712787 482.90441008 44.73828125 479.50390625 C46.05828125 479.50390625 47.37828125 479.50390625 48.73828125 479.50390625 C48.72575317 478.65551178 48.7132251 477.80711731 48.70031738 476.93301392 C48.53987403 465.99839898 48.38635285 455.06369573 48.23828125 444.12890625 C48.226404 443.25212975 48.21452675 442.37535324 48.20228958 441.47200775 C47.76266583 408.81358677 47.6072269 376.16526521 47.73828125 343.50390625 C47.17431641 343.61984131 46.61035156 343.73577637 46.02929688 343.85522461 C43.43292496 344.38709809 40.83562049 344.91427771 38.23828125 345.44140625 C37.35140625 345.62380859 36.46453125 345.80621094 35.55078125 345.99414062 C0.336306 353.11471466 -36.54441765 342.90975392 -69.51171875 330.37890625 C-71.07249146 329.78589722 -71.07249146 329.78589722 -72.66479492 329.1809082 C-90.00377715 322.30454302 -90.00377715 322.30454302 -93.82421875 315.87890625 C-95.5125626 311.91496852 -96.40440823 308.78974079 -96.3082428 304.49255371 C-96.29312464 303.70238861 -96.27800648 302.91222351 -96.26243019 302.09811401 C-96.24036192 301.2388028 -96.21829365 300.37949158 -96.19555664 299.49414062 C-96.1762377 298.5806485 -96.15691875 297.66715637 -96.13701439 296.72598267 C-96.07091102 293.68305288 -95.99658998 290.64038593 -95.921875 287.59765625 C-95.87263664 285.4430803 -95.82365575 283.28849845 -95.7749176 281.13391113 C-95.22973741 257.5489726 -94.52311422 233.96835179 -93.80236816 210.38824463 C-93.62634903 204.61304651 -93.45295964 198.83776937 -93.27929688 193.0625 C-92.94256298 181.87622682 -92.60310674 170.6900383 -92.26171875 159.50390625 C-93.6384375 160.46103516 -93.6384375 160.46103516 -95.04296875 161.4375 C-96.28202194 162.27292223 -97.52163561 163.10751361 -98.76171875 163.94140625 C-99.36242187 164.36228516 -99.963125 164.78316406 -100.58203125 165.21679688 C-105.19312803 168.28268569 -108.71303173 169.27218045 -114.26171875 169.50390625 C-120.19234325 167.6773641 -123.25086828 163.3974082 -126.94921875 158.69140625 C-127.56079834 157.93093994 -128.17237793 157.17047363 -128.80249023 156.38696289 C-130.63460999 154.10212594 -132.45071244 151.80549924 -134.26171875 149.50390625 C-134.75897461 148.87419922 -135.25623047 148.24449219 -135.76855469 147.59570312 C-137.56192372 145.32284384 -139.35253461 143.04805892 -141.12963867 140.76245117 C-143.61778168 137.56655747 -146.1474552 134.41218365 -148.7265625 131.2890625 C-149.6081604 130.21893921 -149.6081604 130.21893921 -150.50756836 129.12719727 C-151.64540246 127.74991916 -152.78787891 126.37645814 -153.93579102 125.00756836 C-157.77442721 120.35541485 -160.93127378 116.14746598 -161.69921875 110.00390625 C-160.89170313 103.54378131 -156.35036043 99.29519368 -151.88574219 94.85327148 C-151.09947197 94.05933487 -151.09947197 94.05933487 -150.2973175 93.24935913 C-148.57701115 91.51524541 -146.84947107 89.78856694 -145.12109375 88.0625 C-143.91264358 86.8501578 -142.70441559 85.6375941 -141.49639893 84.42481995 C-138.96795144 81.88892908 -136.43568782 79.35692409 -133.90087891 76.82739258 C-130.66686129 73.59916432 -127.44434309 70.35972376 -124.2248497 67.1170187 C-121.73353774 64.61091269 -119.23526648 62.1118342 -116.73499298 59.61467171 C-115.54463697 58.42380525 -114.35661636 57.2305993 -113.17107391 56.03494072 C-103.80878129 46.60259878 -95.87247654 40.69958234 -83.18359375 36.4375 C-82.13576721 36.07672867 -81.08794067 35.71595734 -80.00836182 35.34425354 C-76.67928548 34.20055493 -73.34566088 33.07083167 -70.01171875 31.94140625 C-67.78875107 31.17994502 -65.56609169 30.41758313 -63.34375 29.65429688 C-59.2293791 28.24380554 -55.11375665 26.83718974 -50.99511719 25.43920898 C-50.06195679 25.11943085 -49.12879639 24.79965271 -48.1673584 24.47018433 C-46.12083003 23.78960596 -44.0628519 23.14298855 -41.99768066 22.52127075 C-40.9301355 22.19335541 -39.86259033 21.86544006 -38.76269531 21.52758789 C-37.31228851 21.0990023 -37.31228851 21.0990023 -35.83258057 20.66175842 C-32.00419333 18.9375481 -30.33205554 16.22336086 -28.0390625 12.8203125 C-24.90297025 8.73305381 -20.64703324 6.12018352 -16.26171875 3.50390625 C-15.01600098 2.7303479 -15.01600098 2.7303479 -13.74511719 1.94116211 C-9.08622502 0.01889563 -4.99393678 0.01772274 0 0 Z " fill="#020102" transform="translate(216.26171875,-0.50390625)"/>
<path d="M0 0 C-0.04640625 1.11375 -0.0928125 2.2275 -0.140625 3.375 C-0.55442971 17.74401168 1.14549583 32.51042506 9 45 C11.41714446 47.52152116 12.73025051 47.96607745 16.23046875 48.40625 C20.79735567 47.91406737 24.20799941 46.4704646 28.3125 44.5 C35.80574324 41 35.80574324 41 38 41 C42.36741007 44.53587664 45.39965571 48.87498208 46.46129799 54.40122962 C47.20524943 61.70559832 47.00147313 69.05038305 46.90820312 76.3815918 C46.90594457 78.86594062 46.90721702 81.35029478 46.91174316 83.8346405 C46.91355975 89.1676364 46.89100251 94.49966078 46.84584045 99.83240318 C46.78058948 107.54230173 46.75996529 115.25182249 46.74993652 122.96196721 C46.73246386 135.4734769 46.67932418 147.98456732 46.60351562 160.49584961 C46.52998859 172.64328934 46.47340796 184.79061484 46.43945312 196.93823242 C46.43735134 197.68806535 46.43524955 198.43789828 46.43308407 199.21045341 C46.42264313 202.97246168 46.41253362 206.73447074 46.40258884 210.49648035 C46.31976849 241.66462502 46.17836534 272.8322486 46 304 C43.64942839 303.86506813 41.29946459 303.72411402 38.94946289 303.57983398 C37.64070694 303.50184067 36.33195099 303.42384735 34.98353577 303.3434906 C28.67311173 302.79935808 22.59877739 301.49283241 16.4375 300.0625 C15.78468048 299.91304932 15.13186096 299.76359863 14.45925903 299.60961914 C4.12676059 297.22705264 -5.99605876 294.326961 -16.0625 291 C-17.85119507 290.41424194 -17.85119507 290.41424194 -19.67602539 289.81665039 C-42.85943448 281.88740789 -42.85943448 281.88740789 -47 275 C-47.35545349 272.45959473 -47.35545349 272.45959473 -47.32592773 269.55664062 C-47.32117935 268.46379761 -47.31643097 267.37095459 -47.3115387 266.24499512 C-47.28994186 265.06070923 -47.26834503 263.87642334 -47.24609375 262.65625 C-47.23420517 261.4149231 -47.22231659 260.17359619 -47.21006775 258.89465332 C-47.05718036 246.074792 -46.65608513 233.26020099 -46.2020874 220.44793701 C-46.05845252 216.3855255 -45.92099699 212.32294751 -45.78564453 208.26025391 C-45.60669216 202.90033107 -45.42610912 197.54046887 -45.24365234 192.18066406 C-44.94000518 183.24584979 -44.6399894 174.31105314 -44.375 165.375 C-44.34344315 164.34292923 -44.34344315 164.34292923 -44.31124878 163.29000854 C-44.07211389 155.28747526 -43.9823127 147.29849758 -44.046875 139.29296875 C-44.05228302 138.47656921 -44.05769104 137.66016968 -44.06326294 136.81903076 C-44.09078672 132.91356651 -44.13447397 129.00976798 -44.21240234 125.10498047 C-44.32002971 117.45087217 -43.67449978 110.56554268 -41.72900391 103.11547852 C-39.34492324 92.92684709 -39.76204252 82.03427264 -39.75 71.625 C-39.74799088 70.58634293 -39.74799088 70.58634293 -39.74594116 69.52670288 C-39.75269995 53.27881483 -41.16036861 37.2202496 -45.546875 21.5234375 C-46.11053173 18.38445261 -46.25919249 16.97264525 -45 14 C-42.19836932 12.34037512 -39.16560249 11.43533027 -36.07421875 10.44921875 C-35.17508255 10.14554886 -34.27594635 9.84187897 -33.3495636 9.52900696 C-31.44534811 8.8900523 -29.53775542 8.261089 -27.62719727 7.64135742 C-24.70308188 6.69255593 -21.78970519 5.71549109 -18.87695312 4.73242188 C-17.0265999 4.11551062 -15.17570477 3.50022188 -13.32421875 2.88671875 C-12.45117599 2.59617111 -11.57813324 2.30562347 -10.67863464 2.00627136 C-9.86131363 1.74211929 -9.04399261 1.47796722 -8.2019043 1.20581055 C-7.48544235 0.97218307 -6.76898041 0.7385556 -6.0308075 0.49784851 C-4 0 -4 0 0 0 Z " fill="#EE435F" transform="translate(178,33)"/>
<path d="M0 0 C18.48 0 36.96 0 56 0 C56.1875 15.375 56.1875 15.375 56.20776367 20.16162109 C56.45322003 31.28663142 58.80696212 39.98902963 67 48 C70.85809417 50.59444624 74.84168028 52.92084014 79 55 C79.07864153 98.23897406 78.88636542 141.47231857 78.55461788 184.70991063 C78.48044509 194.3919933 78.41006239 204.07410368 78.33936501 213.75621223 C78.22915209 228.83749769 78.11422104 243.91874313 78 259 C58.86 259 39.72 259 20 259 C19.32904297 252.80089844 19.32904297 252.80089844 18.64453125 246.4765625 C14.89287891 211.63374221 14.89287891 211.63374221 10.8427124 176.82485962 C10.55520034 174.43943638 10.27495757 172.05325389 9.99658203 169.66674805 C9.05351764 161.61383856 8.08285205 153.56745772 7.00878906 145.53076172 C5.84776033 136.83955762 4.74013025 128.14251613 3.6875 119.4375 C3.5968288 118.68816193 3.50615761 117.93882385 3.4127388 117.16677856 C-1.25933834 78.15727625 -0.72633825 39.22226529 0 0 Z " fill="#518ED9" transform="translate(363,221)"/>
<path d="M0 0 C11.22 0 22.44 0 34 0 C33.86464844 5.76404297 33.86464844 5.76404297 33.7265625 11.64453125 C33.68690765 15.39459684 33.67141568 19.14404598 33.65820312 22.89428711 C33.63623174 25.48707159 33.58940372 28.07977555 33.51660156 30.67163086 C32.36012079 45.78103915 32.36012079 45.78103915 37.99902344 59.04052734 C41.35012877 61.94769006 45.08952132 63.95225557 49 66 C53.5013605 68.44658516 53.5013605 68.44658516 55 71 C56.26336957 79.94757992 54.71645359 89.31499753 53.6015625 98.2265625 C53.37007959 100.16881783 53.13860735 102.11107445 52.90748215 104.05337238 C52.65844152 106.134586 52.40559168 108.21530525 52.15167236 110.29592896 C51.2264659 117.88364184 50.33278653 125.47511581 49.4375 133.06640625 C49.34152149 133.87809958 49.24554298 134.6897929 49.14665604 135.52608299 C47.4524355 149.87182532 45.86320995 164.22793141 44.3125 178.58984375 C44.20040569 179.6273175 44.08831139 180.66479126 43.97282028 181.73370361 C42.8570255 192.06766793 41.7482669 202.40237421 40.64598465 212.7377882 C40.23150225 216.61784359 39.8143415 220.49760826 39.39666748 224.37732124 C39.1107394 227.04334005 38.82873813 229.70975435 38.546875 232.37620544 C38.37082207 234.01327811 38.19456391 235.65032872 38.01806641 237.28735352 C37.94430094 237.99622522 37.87053547 238.70509693 37.79453468 239.4354496 C37.11212846 245.6941697 36.04106368 251.75361793 35 258 C16.19 258 -2.62 258 -22 258 C-22.09087891 250.11287109 -22.09087891 250.11287109 -22.18359375 242.06640625 C-22.25637739 235.84396997 -22.32997111 229.62154359 -22.40385818 223.39912033 C-22.42626964 221.50942434 -22.44861624 219.61972759 -22.47089767 217.73003006 C-22.73809377 195.07208778 -23.04119457 172.41693107 -23.49591064 149.76190186 C-24.13530305 117.84092449 -24.10308218 85.92578894 -24 54 C-23.37877258 53.72906021 -22.75754517 53.45812042 -22.11749268 53.17897034 C-21.3043158 52.82157272 -20.49113892 52.46417511 -19.65332031 52.09594727 C-18.8464679 51.74250748 -18.03961548 51.38906769 -17.20831299 51.0249176 C-9.67973839 47.53077132 -6.03243076 42.0336561 -2.91015625 34.55078125 C-1.32198122 30.09980144 -0.83453833 26.22834766 -0.68359375 21.484375 C-0.64548584 20.35741211 -0.60737793 19.23044922 -0.56811523 18.06933594 C-0.50346069 15.93126465 -0.50346069 15.93126465 -0.4375 13.75 C-0.2209375 6.94375 -0.2209375 6.94375 0 0 Z " fill="#518FDA" transform="translate(298,221)"/>
<path d="M0 0 C4.92620322 1.63374277 9.85170688 3.26957282 14.77661133 4.90722656 C16.44732539 5.46246917 18.11821957 6.0171701 19.78930664 6.57128906 C28.90481411 9.59433075 38.0049671 12.63047198 47 16 C46.74605469 17.05574219 46.49210937 18.11148438 46.23046875 19.19921875 C42.02392392 37.07498431 39.72533018 54.26078555 39.75 72.625 C39.75102722 73.72098511 39.75102722 73.72098511 39.7520752 74.83911133 C39.77408752 90.45814294 39.77408752 90.45814294 42.55078125 105.76171875 C44.9498554 115.61323599 44.3137137 125.74407207 44.1875 135.8125 C44.125625 142.804375 44.06375 149.79625 44 157 C24.2 157.33 4.4 157.66 -16 158 C-16 205.19 -16 252.38 -16 301 C-37 305 -37 305 -46 305 C-46.18264876 273.21140714 -46.32415321 241.42296405 -46.40852264 209.63396878 C-46.41852784 205.8778045 -46.42888246 202.12164125 -46.43945312 198.36547852 C-46.44155161 197.61771962 -46.44365009 196.86996073 -46.44581217 196.09954248 C-46.48058722 184.00470734 -46.54364384 171.91017756 -46.61722237 159.81552335 C-46.69213424 147.39778302 -46.73649116 134.9802022 -46.75270796 122.56224519 C-46.76366465 114.90449561 -46.79822047 107.24760923 -46.86333174 99.59012548 C-46.91076928 93.71031851 -46.91561659 87.83095035 -46.90486145 81.95094681 C-46.90705769 79.54474014 -46.92290965 77.13850001 -46.9536438 74.73248863 C-47.22037686 52.76931643 -47.22037686 52.76931643 -39.91338348 44.64996815 C-38 43 -38 43 -36 42 C-33.5995321 43.08896381 -31.27817659 44.23231751 -28.9375 45.4375 C-23.04066598 48.32294521 -18.66993797 50.2027757 -12 49 C-8.21660995 46.02681967 -6.56303054 42.39032596 -4.875 38 C-4.61638184 37.33137939 -4.35776367 36.66275879 -4.09130859 35.97387695 C-0.69821317 26.86809399 0.10172635 18.26592391 0.0390625 8.61328125 C0.03624268 7.78268188 0.03342285 6.95208252 0.03051758 6.09631348 C0.02321043 4.06419666 0.01200292 2.03209451 0 0 Z " fill="#ED435F" transform="translate(280,32)"/>
<path d="M0 0 C0.63220465 2.70681798 1.25574569 5.4152134 1.875 8.125 C2.04902344 8.86621094 2.22304687 9.60742188 2.40234375 10.37109375 C5.13025115 22.39409301 6.31507948 34.14769772 6.20581055 46.44116211 C6.18748349 48.56441296 6.18530251 50.68722473 6.18554688 52.81054688 C6.16615259 60.31200691 5.90642499 67.75621994 5.24389648 75.23266602 C5.0460143 77.47790577 4.91685257 79.72912716 4.80859375 81.98046875 C4.28640672 86.49326404 3.79129915 90.3214805 0.34033203 93.55517578 C-3.61196546 96.49058713 -7.84460605 98.86917069 -12.23828125 101.07714844 C-14.2565164 102.09498031 -14.2565164 102.09498031 -17 104 C-18.87890625 104.00390625 -18.87890625 104.00390625 -21 103 C-22.7869789 101.01612527 -24.35903638 99.07673359 -25.9375 96.9375 C-26.91389073 95.65382554 -27.89181761 94.37131838 -28.87109375 93.08984375 C-29.38140137 92.41808105 -29.89170898 91.74631836 -30.41748047 91.05419922 C-33.04267484 87.64654951 -35.77409853 84.32719731 -38.5 81 C-39.58914146 79.66064377 -40.67768466 78.32080082 -41.765625 76.98046875 C-43.38361331 74.98725939 -45.00345457 72.99578522 -46.63085938 71.01025391 C-48.17939506 69.11796593 -49.71585676 67.2164632 -51.25 65.3125 C-51.71599609 64.74853516 -52.18199219 64.18457031 -52.66210938 63.60351562 C-55.19567732 60.433681 -56.88849151 58.09873674 -57 54 C-55.46684809 51.87135331 -54.06699657 50.27590199 -52.20410156 48.4753418 C-51.4215097 47.68420738 -51.4215097 47.68420738 -50.62310791 46.87709045 C-48.89326859 45.13612911 -47.14275755 43.41771964 -45.390625 41.69921875 C-44.18459681 40.49676632 -42.97967486 39.29320342 -41.77581787 38.08857727 C-39.24934825 35.56680185 -36.71311218 33.05543126 -34.16894531 30.55151367 C-30.90386588 27.33743201 -27.65891368 24.10392432 -24.42038345 20.86311626 C-21.93344766 18.37699519 -19.43877778 15.89876229 -16.94139862 13.42313576 C-15.74188207 12.23318232 -14.54418841 11.04138848 -13.34833527 9.84775352 C-11.67745218 8.18335677 -9.99707774 6.52920332 -8.31347656 4.87768555 C-7.81775146 4.38060089 -7.32202637 3.88351624 -6.8112793 3.37136841 C-3.34343855 0 -3.34343855 0 0 0 Z " fill="#F9637C" transform="translate(123,54)"/>
<path d="M0 0 C3.83466327 1.58778397 6.30522243 4.02666911 9.2434082 6.92114258 C9.75278427 7.42058884 10.26216034 7.9200351 10.78697205 8.43461609 C12.46383509 10.08235585 14.13289085 11.73771246 15.80078125 13.39453125 C16.9633088 14.54555151 18.12584039 15.69656768 19.28837585 16.84757996 C21.72062934 19.25885152 24.14821483 21.674725 26.57348633 24.09301758 C29.68519284 27.19372398 32.81503146 30.27542831 35.94950581 33.35309315 C38.35554802 35.72194209 40.74812137 38.10404828 43.13716698 40.49002647 C44.28570567 41.6325038 45.43925427 42.76996714 46.59780312 43.90229225 C48.21417894 45.48464675 49.81065118 47.08475051 51.40356445 48.69067383 C52.31749466 49.59731277 53.23142487 50.50395172 54.17304993 51.43806458 C56 54 56 54 55.86378479 56.71270752 C54.93869466 59.16233587 53.92663207 60.73000047 52.2265625 62.71484375 C51.65462158 63.39377686 51.08268066 64.07270996 50.4934082 64.7722168 C49.8768335 65.48676025 49.26025879 66.20130371 48.625 66.9375 C47.33855761 68.46245762 46.05341693 69.98851422 44.76953125 71.515625 C44.12967285 72.27294922 43.48981445 73.03027344 42.83056641 73.81054688 C40.25916459 76.88607788 37.77589251 80.02520202 35.3125 83.1875 C34.66244995 84.02003296 34.66244995 84.02003296 33.99926758 84.86938477 C33.12391347 85.99139551 32.24915852 87.11387393 31.375 88.23681641 C28.86373519 91.4570498 26.33693435 94.66508809 23.8125 97.875 C22.88144861 99.05984726 21.95045298 100.24473835 21.01953125 101.4296875 C20.01986328 102.70199219 20.01986328 102.70199219 19 104 C13.72422764 103.53357612 10.0544572 100.72620635 5.8125 97.8125 C5.08869141 97.34263672 4.36488281 96.87277344 3.61914062 96.38867188 C-0.75593683 93.40547953 -2.9065838 91.40797741 -4 86 C-4.350625 84.824375 -4.70125 83.64875 -5.0625 82.4375 C-7.61086332 71.87928586 -7.27131981 60.48631296 -7.3125 49.6875 C-7.31545074 48.99800262 -7.31840149 48.30850525 -7.32144165 47.59811401 C-7.33713485 31.32801739 -5.57541771 15.37292797 0 0 Z " fill="#F9647C" transform="translate(336,54)"/>
<path d="M0 0 C0.78199768 -0.01377182 1.56399536 -0.02754364 2.36968994 -0.04173279 C4.0273123 -0.06502769 5.68502878 -0.08228147 7.34277344 -0.09399414 C9.86830095 -0.12085631 12.38959574 -0.19571088 14.9140625 -0.27148438 C26.66217245 -0.46179708 26.66217245 -0.46179708 30.58398438 1.93408203 C35.45998964 7.46692074 35.54631131 13.50228478 35.48046875 20.61328125 C34.21766114 34.83801066 24.74684629 47.30167498 16.828125 58.69140625 C16.30017334 59.45549805 15.77222168 60.21958984 15.22827148 61.00683594 C14.72884033 61.71227539 14.22940918 62.41771484 13.71484375 63.14453125 C13.26713623 63.78036133 12.81942871 64.41619141 12.3581543 65.07128906 C11.95636963 65.52342773 11.55458496 65.97556641 11.140625 66.44140625 C10.480625 66.44140625 9.820625 66.44140625 9.140625 66.44140625 C7.81542969 64.85595703 7.81542969 64.85595703 6.3125 62.63671875 C5.76271484 61.83057129 5.21292969 61.02442383 4.64648438 60.19384766 C4.06705078 59.32679199 3.48761719 58.45973633 2.890625 57.56640625 C2.30087891 56.69032715 1.71113281 55.81424805 1.10351562 54.91162109 C-0.56060377 52.42790905 -2.21236577 49.93648639 -3.859375 47.44140625 C-4.52453125 46.44109375 -5.1896875 45.44078125 -5.875 44.41015625 C-12.50433987 33.94277751 -16.82952133 22.98569732 -14.859375 10.44140625 C-11.70535755 2.75348871 -8.19359648 0.12573642 0 0 Z " fill="#ED435F" transform="translate(218.859375,9.55859375)"/>
<path d="M0 0 C21.78 0 43.56 0 66 0 C66 3.96 66 7.92 66 12 C44.22 12 22.44 12 0 12 C0 8.04 0 4.08 0 0 Z " fill="#3A70BF" transform="translate(380,490)"/>
<path d="M0 0 C21.78 0 43.56 0 66 0 C66 3.96 66 7.92 66 12 C44.22 12 22.44 12 0 12 C0 8.04 0 4.08 0 0 Z " fill="#3A70BF" transform="translate(270,490)"/>
<path d="M0 0 C21.12 0 42.24 0 64 0 C64 3.96 64 7.92 64 12 C42.88 12 21.76 12 0 12 C0 8.04 0 4.08 0 0 Z " fill="#396EBC" transform="translate(273,199)"/>
<path d="M0 0 C20.79 0 41.58 0 63 0 C63 3.96 63 7.92 63 12 C42.21 12 21.42 12 0 12 C0 8.04 0 4.08 0 0 Z " fill="#396FBE" transform="translate(380,199)"/>
<path d="M0 0 C3.63 0 7.26 0 11 0 C11 19.14 11 38.28 11 58 C1.73537019 52.70592582 1.73537019 52.70592582 0 51 C-0.48101807 48.70307922 -0.48101807 48.70307922 -0.45410156 45.9777832 C-0.45379944 44.95695145 -0.45349731 43.93611969 -0.45318604 42.88435364 C-0.43254089 41.78427475 -0.41189575 40.68419586 -0.390625 39.55078125 C-0.38496521 38.4230278 -0.37930542 37.29527435 -0.37347412 36.13334656 C-0.35105631 32.52596865 -0.30084784 28.91957847 -0.25 25.3125 C-0.22994209 22.86915495 -0.21169009 20.42579436 -0.1953125 17.98242188 C-0.15117347 11.98789979 -0.08210687 5.99411744 0 0 Z " fill="#396FBD" transform="translate(342,221)"/>
<path d="M0 0 C3.5625 0.3125 3.5625 0.3125 5.5 1.375 C7.11729605 4.32418691 6.74880138 7.02117559 6.5625 10.3125 C7.655625 10.250625 8.74875 10.18875 9.875 10.125 C13.5625 10.3125 13.5625 10.3125 15.5 11.4375 C17.06672245 14.20230433 16.95226435 16.19438517 16.5625 19.3125 C15.5 21.1875 15.5 21.1875 13.5625 22.3125 C9.875 22.5 9.875 22.5 6.5625 22.3125 C6.624375 23.405625 6.68625 24.49875 6.75 25.625 C6.5625 29.3125 6.5625 29.3125 5.4375 31.25 C2.67269567 32.81672245 0.68061483 32.70226435 -2.4375 32.3125 C-4.3125 31.25 -4.3125 31.25 -5.4375 29.3125 C-5.625 25.625 -5.625 25.625 -5.4375 22.3125 C-6.530625 22.374375 -7.62375 22.43625 -8.75 22.5 C-12.4375 22.3125 -12.4375 22.3125 -14.375 21.25 C-16.02912584 18.23365289 -15.74325763 15.67583392 -15.4375 12.3125 C-13.4375 10.3125 -13.4375 10.3125 -11.4921875 10.1171875 C-9.47395833 10.18229167 -7.45572917 10.24739583 -5.4375 10.3125 C-5.47875 9.03375 -5.52 7.755 -5.5625 6.4375 C-5.6328125 4.2578125 -5.6328125 4.2578125 -5.4375 2.3125 C-3.4375 0.3125 -3.4375 0.3125 0 0 Z " fill="#6FD6F9" transform="translate(187.4375,361.6875)"/>
<path d="M0 0 C4.95 0 9.9 0 15 0 C15 14.52 15 29.04 15 44 C7.67129658 41.06851863 4.43383136 36.92246157 1.04736328 30.00878906 C-0.90515556 24.39973494 -0.51670275 18.74347274 -0.3125 12.875 C-0.28994141 11.63234375 -0.26738281 10.3896875 -0.24414062 9.109375 C-0.18573703 6.07238785 -0.09607686 3.03602885 0 0 Z " fill="#275497" transform="translate(428,221)"/>
<path d="M0 0 C4.62 0 9.24 0 14 0 C14.1086673 4.29235817 14.18765239 8.58192167 14.25 12.875 C14.30027344 14.68097656 14.30027344 14.68097656 14.3515625 16.5234375 C14.44637981 25.2466302 13.62872097 32.60445497 7.9296875 39.5078125 C7.25164062 40.04148437 6.57359375 40.57515625 5.875 41.125 C5.19179688 41.68445313 4.50859375 42.24390625 3.8046875 42.8203125 C2 44 2 44 0 44 C0 29.48 0 14.96 0 0 Z " fill="#28579D" transform="translate(274,221)"/>
<path d="M0 0 C0.33 0 0.66 0 1 0 C1.02578125 0.72703125 1.0515625 1.4540625 1.078125 2.203125 C1.93548563 17.40179078 8.36429515 30.07803794 16 43 C14.09118566 44.03544174 12.17260796 45.05290085 10.25 46.0625 C9.18265625 46.63097656 8.1153125 47.19945312 7.015625 47.78515625 C4 49 4 49 1.77734375 49.10546875 C-1.20023232 47.25348188 -1.62049933 44.49475912 -2.6875 41.25 C-3.10386719 40.01765625 -3.52023438 38.7853125 -3.94921875 37.515625 C-7.11769968 26.91475945 -7.80845848 15.11375695 -3.0703125 4.91796875 C-2.12856806 3.2303902 -1.07199368 1.60799052 0 0 Z " fill="#F26179" transform="translate(193,23)"/>
<path d="M0 0 C4.9863791 4.52917529 6.73975051 10.22777713 7.359375 16.828125 C7.75582593 28.58338876 5.11881934 38.47653892 0 49 C-3.85025879 48.39644592 -6.86101159 47.23227397 -10.3125 45.4375 C-11.19550781 44.98246094 -12.07851562 44.52742188 -12.98828125 44.05859375 C-13.98408203 43.53458984 -13.98408203 43.53458984 -15 43 C-14.48050781 42.12859375 -13.96101562 41.2571875 -13.42578125 40.359375 C-5.55525302 27.00441482 -1.22983613 15.49226415 0 0 Z " fill="#F26179" transform="translate(264,23)"/>
<path d="M0 0 C0.66 0 1.32 0 2 0 C2.30292969 0.67546875 2.60585938 1.3509375 2.91796875 2.046875 C6.79950858 10.31156905 10.59455771 13.70374812 19 17 C19 17.66 19 18.32 19 19 C18.33613281 19.27972656 17.67226563 19.55945313 16.98828125 19.84765625 C9.54958096 23.22493478 5.99389187 26.5374801 2.6875 33.9375 C2.460625 34.618125 2.23375 35.29875 2 36 C1.34 36 0.68 36 0 36 C-0.30292969 35.32453125 -0.60585938 34.6490625 -0.91796875 33.953125 C-4.79950858 25.68843095 -8.59455771 22.29625188 -17 19 C-17 18.34 -17 17.68 -17 17 C-16.33613281 16.72027344 -15.67226563 16.44054687 -14.98828125 16.15234375 C-7.54958096 12.77506522 -3.99389187 9.4625199 -0.6875 2.0625 C-0.460625 1.381875 -0.23375 0.70125 0 0 Z " fill="#F5C74B" transform="translate(415,43)"/>
<path d="M0 0 C0.87591797 0.00322266 1.75183594 0.00644531 2.65429688 0.00976562 C3.52634766 -0.00634766 4.39839844 -0.02246094 5.296875 -0.0390625 C6.55467773 -0.0400293 6.55467773 -0.0400293 7.83789062 -0.04101562 C8.60544678 -0.04399658 9.37300293 -0.04697754 10.16381836 -0.05004883 C12.76484638 0.42165622 13.64391477 1.22703549 15.21679688 3.32226562 C15.86101211 8.47598751 15.86101211 8.47598751 13.95117188 10.98486328 C11.8324068 12.61867453 10.74324093 12.70822993 8.09179688 12.72070312 C7.30289062 12.72457031 6.51398438 12.7284375 5.70117188 12.73242188 C4.88132812 12.72082031 4.06148438 12.70921875 3.21679688 12.69726562 C1.98703125 12.71466797 1.98703125 12.71466797 0.73242188 12.73242188 C-0.4509375 12.72662109 -0.4509375 12.72662109 -1.65820312 12.72070312 C-2.3775 12.71731934 -3.09679687 12.71393555 -3.83789062 12.71044922 C-6.36771853 12.20562663 -7.25560574 11.37778269 -8.78320312 9.32226562 C-9.09570312 5.75976562 -9.09570312 5.75976562 -8.78320312 2.32226562 C-5.96326442 -0.49767308 -3.85416153 0.03263724 0 0 Z " fill="#28579D" transform="translate(355.783203125,198.677734375)"/>
<path d="M0 0 C2 1.6875 2 1.6875 3 4 C2.77962372 7.67293796 2.63033454 9.36966546 0 12 C-7.1372549 12.67973856 -7.1372549 12.67973856 -10.0625 10.375 C-11.33302894 7.15632669 -10.98013473 5.29045231 -10 2 C-7.54755562 -2.22365421 -4.26175901 -1.14154259 0 0 Z " fill="#88D046" transform="translate(240,413)"/>
<path d="M0 0 C2 1.6875 2 1.6875 3 4 C2.77962372 7.67293796 2.63033454 9.36966546 0 12 C-7.1372549 12.67973856 -7.1372549 12.67973856 -10.0625 10.375 C-11.33302894 7.15632669 -10.98013473 5.29045231 -10 2 C-7.54755562 -2.22365421 -4.26175901 -1.14154259 0 0 Z " fill="#F5C74B" transform="translate(102,211)"/>
<path d="M0 0 C2 1.6875 2 1.6875 3 4 C2.77962372 7.67293796 2.63033454 9.36966546 0 12 C-7.1372549 12.67973856 -7.1372549 12.67973856 -10.0625 10.375 C-11.33302894 7.15632669 -10.98013473 5.29045231 -10 2 C-7.54755562 -2.22365421 -4.26175901 -1.14154259 0 0 Z " fill="#FC647C" transform="translate(450,109)"/>
</svg>
