<?xml version="1.0" standalone="no"?>
<!DOCTYPE svg PUBLIC "-//W3C//DTD SVG 20010904//EN"
 "http://www.w3.org/TR/2001/REC-SVG-20010904/DTD/svg10.dtd">
<svg version="1.0" xmlns="http://www.w3.org/2000/svg"
 width="512.000000pt" height="512.000000pt" viewBox="0 0 512.000000 512.000000"
 preserveAspectRatio="xMidYMid meet">
<metadata>
Created by potrace 1.16, written by Peter Selinger 2001-2019
</metadata>
<g transform="translate(0.000000,512.000000) scale(0.100000,-0.100000)"
fill="#000000" stroke="none">
<path d="M2163 5100 c-58 -35 -67 -60 -74 -204 -5 -109 -11 -144 -34 -209 -16
-42 -40 -90 -54 -106 -28 -31 -156 -82 -695 -278 -160 -57 -302 -111 -317
-119 -22 -11 -37 -39 -80 -146 -119 -302 -251 -751 -294 -1001 -28 -163 -34
-309 -45 -967 -6 -360 -17 -927 -26 -1260 -8 -333 -12 -618 -8 -635 15 -68 62
-126 129 -156 38 -18 117 -19 1895 -19 1775 0 1857 1 1895 19 22 10 54 33 72
51 67 69 64 -1 53 1279 -11 1374 -14 1485 -35 1621 -33 215 -116 534 -209 806
-54 158 -130 354 -147 382 -17 27 -14 26 -348 147 -157 57 -347 127 -421 155
-74 28 -162 61 -194 73 -71 27 -98 58 -134 159 -21 59 -27 99 -32 204 -6 144
-15 169 -73 204 -30 19 -53 20 -412 20 -359 0 -382 -1 -412 -20z m737 -227 c0
-88 -1 -88 -38 -128 -75 -79 -251 -205 -287 -205 -18 0 -145 78 -210 130 -103
82 -115 103 -115 204 l0 86 325 0 325 0 0 -87z m-645 -324 c4 -5 40 -32 82
-60 41 -28 71 -54 67 -59 -23 -20 -244 -170 -252 -170 -4 0 -15 43 -24 95
l-17 95 35 51 c19 28 37 62 40 75 l6 24 29 -21 c16 -11 31 -24 34 -30z m715
11 c7 -17 25 -48 41 -70 l28 -38 -16 -89 c-9 -48 -19 -92 -24 -97 -6 -6 -208
125 -252 164 -5 4 27 32 70 62 43 31 87 65 97 77 26 29 41 26 56 -9z m-1005
-212 c10 -41 364 -1962 362 -1964 -1 -1 -65 163 -141 364 -184 484 -182 479
-217 491 -55 19 -109 -16 -109 -71 0 -13 142 -394 315 -847 l315 -825 0 -668
0 -668 -606 0 -607 0 7 73 c16 169 51 383 116 712 135 686 153 937 99 1365
-49 383 -136 811 -300 1468 -39 156 -69 285 -67 287 7 7 438 163 438 159 0 -3
-20 -45 -45 -94 -25 -49 -45 -101 -45 -115 0 -46 36 -69 147 -94 l102 -23 -44
-55 c-33 -40 -45 -64 -45 -88 0 -42 95 -293 121 -319 26 -28 87 -25 111 4 27
33 22 74 -22 188 -22 56 -40 104 -40 106 0 2 32 43 70 91 69 86 81 115 64 160
-10 24 -49 40 -159 65 -55 12 -101 24 -103 25 -2 1 26 56 62 121 l65 119 68
27 c84 33 81 33 88 6z m1321 -12 c55 -23 56 -23 120 -141 35 -65 63 -119 61
-121 -1 -1 -47 -12 -102 -24 -146 -33 -165 -45 -165 -111 0 -20 18 -51 63
-107 35 -43 66 -83 70 -89 4 -6 -11 -58 -33 -114 -45 -115 -50 -167 -21 -193
27 -25 87 -25 110 0 24 25 121 280 121 318 0 20 -15 49 -45 87 l-45 57 103 23
c111 25 147 48 147 94 0 14 -20 66 -45 115 -25 50 -41 90 -36 90 10 0 424
-150 430 -155 2 -2 -15 -75 -37 -162 -117 -451 -230 -964 -287 -1297 -104
-614 -99 -873 30 -1536 85 -434 104 -541 125 -713 11 -88 20 -169 20 -179 0
-17 -28 -18 -610 -18 l-610 0 0 656 0 656 320 838 c176 461 320 848 320 861
-1 81 -119 100 -153 26 -8 -18 -81 -206 -163 -420 -81 -213 -148 -386 -150
-385 -1 2 358 1948 365 1976 1 5 31 -5 97 -32z m-641 -35 c28 -19 54 -38 58
-41 4 -4 -1 -28 -12 -53 l-20 -47 -96 0 -96 0 -20 46 c-12 25 -18 48 -16 51
27 26 132 91 141 86 6 -4 34 -23 61 -42z m-322 -188 l24 -48 -30 -252 c-17
-139 -33 -253 -36 -253 -6 0 -94 467 -95 502 -1 12 86 88 111 97 2 1 13 -20
26 -46z m593 0 c44 -29 54 -41 50 -57 -3 -12 -23 -122 -46 -246 -23 -124 -44
-234 -48 -245 -3 -11 -20 97 -38 240 l-32 259 21 43 c12 24 25 43 29 43 5 0
33 -17 64 -37z m-266 -122 c0 -5 27 -229 60 -498 l60 -488 -97 -528 c-54 -291
-99 -525 -100 -520 -1 4 -46 241 -98 525 l-96 518 60 495 c34 272 61 497 61
500 0 3 34 5 75 5 41 0 75 -4 75 -9z m-1511 -656 c28 -115 66 -289 86 -385 35
-171 35 -175 21 -240 -57 -250 -105 -1089 -123 -2153 l-6 -397 -195 2 c-195 3
-195 3 -213 28 -18 24 -19 44 -4 650 9 344 22 940 30 1325 14 672 15 706 40
845 39 226 117 510 208 760 l31 85 38 -155 c21 -85 60 -249 87 -365z m3040
397 c120 -333 201 -678 221 -936 5 -72 14 -682 20 -1356 9 -1181 9 -1226 -9
-1250 -18 -25 -19 -25 -198 -28 l-180 -2 -6 377 c-20 1103 -64 1887 -123 2171
l-15 73 41 197 c23 108 70 316 105 462 90 375 98 410 101 407 2 -2 21 -53 43
-115z m-2815 -1709 c4 -76 2 -203 -3 -283 -10 -135 -50 -444 -57 -437 -4 3 21
561 32 754 4 62 10 110 14 108 4 -3 10 -67 14 -142z m2454 -73 c7 -113 14
-270 17 -350 3 -80 8 -181 11 -225 3 -44 3 -78 1 -75 -12 11 -47 286 -58 445
-12 168 -5 436 11 418 4 -4 12 -100 18 -213z"/>
<path d="M1641 1077 c-66 -23 -76 -50 -76 -211 0 -231 -8 -226 354 -226 370 0
366 -2 366 226 0 224 2 223 -360 223 -168 0 -261 -4 -284 -12z m489 -212 l0
-65 -205 0 -205 0 0 65 0 65 205 0 205 0 0 -65z"/>
<path d="M2911 1077 c-66 -24 -76 -50 -76 -211 0 -231 -8 -226 354 -226 368 0
366 -1 366 221 0 147 -7 174 -54 206 -23 16 -57 18 -291 20 -189 2 -275 -1
-299 -10z m489 -212 l0 -65 -205 0 -205 0 0 65 0 65 205 0 205 0 0 -65z"/>
</g>
</svg>
